<?xml version="1.0" encoding="UTF-8" standalone="no"?>
<!-- Created with Inkscape (http://www.inkscape.org/) -->

<svg
   width="100"
   height="100"
   viewBox="0 0 26.458333 26.458333"
   version="1.1"
   id="svg1"
   xml:space="preserve"
   inkscape:version="1.4.3 (0d15f75, 2025-12-25)"
   sodipodi:docname="chick.svg"
   xmlns:inkscape="http://www.inkscape.org/namespaces/inkscape"
   xmlns:sodipodi="http://sodipodi.sourceforge.net/DTD/sodipodi-0.dtd"
   xmlns="http://www.w3.org/2000/svg"
   xmlns:svg="http://www.w3.org/2000/svg"><sodipodi:namedview
     id="namedview1"
     pagecolor="#ffffff"
     bordercolor="#000000"
     borderopacity="0.25"
     inkscape:showpageshadow="2"
     inkscape:pageopacity="0.0"
     inkscape:pagecheckerboard="0"
     inkscape:deskcolor="#d1d1d1"
     inkscape:document-units="px"
     inkscape:zoom="7.880685"
     inkscape:cx="31.596238"
     inkscape:cy="48.599836"
     inkscape:window-width="1920"
     inkscape:window-height="992"
     inkscape:window-x="-8"
     inkscape:window-y="-8"
     inkscape:window-maximized="1"
     inkscape:current-layer="layer1" /><defs
     id="defs1"><inkscape:path-effect
       effect="roughen"
       id="path-effect3"
       is_visible="true"
       lpeversion="1.2"
       global_randomize="1.3;1"
       displace_x="0.36;1466644229"
       displace_y="0.34;1"
       method="size"
       max_segment_size="1"
       segments="2"
       handles="along"
       shift_nodes="true"
       fixed_displacement="false"
       spray_tool_friendly="false" /><inkscape:path-effect
       effect="roughen"
       id="path-effect2"
       is_visible="true"
       lpeversion="1.2"
       global_randomize="1;1"
       displace_x="0.33;-971983428"
       displace_y="0.31;1"
       method="size"
       max_segment_size="0.543"
       segments="2"
       handles="along"
       shift_nodes="true"
       fixed_displacement="false"
       spray_tool_friendly="false" /></defs><g
     inkscape:label="Layer 1"
     inkscape:groupmode="layer"
     id="layer1"><path
       style="fill:none;fill-opacity:1;stroke:#000000;stroke-width:1.8654;stroke-linecap:round;stroke-linejoin:round;stroke-dasharray:none;stroke-opacity:1"
       d="m 12.047767,21.302243 -0.107283,0.02521 -0.06652,0.108839 -0.02649,0.0084 -0.09267,0.07754 -0.02278,0.07998 -0.01255,0.08904 -0.06878,0.01006 -0.136226,0.129979 -0.0046,0.0382 -0.03347,0.088 -0.02928,0.05806 -0.0174,0.07053 0.03261,-0.02692 -0.01006,0.116056 -0.07879,0.136465 -0.01867,0.06808 0.01822,0.07288 0.0069,0.07947 -0.111202,0.07839 0.0043,-0.05881 -0.01521,0.19329 -0.01227,0.07365 -0.06713,0.103843 -0.01088,0.02311 -0.01588,0.07824 -0.02569,0.05622 -0.07978,0.07219 -0.0057,0.03979 0.0098,0.12149 -0.03685,0.07992 -0.0082,-0.0057 -0.03455,0.186362 -0.07964,0.06302 -0.05372,0.09379 -0.09027,0.0632 0.011,0.03812 0.02327,0.135773 0.01882,-0.07225 0.08269,0.193839 -0.02596,0.0458 -0.07291,0.04594 -0.05517,0.14866 0.02027,0.04706 -0.02878,0.0728 0.01076,-0.01006 0.02144,0.118994 0.05411,0.02359 0.0042,0.07442 0.0011,0.011 -0.0098,0.138496 0.02652,0.132558 0.004,0.03657 0.117543,0.02473 0.09439,-0.139977 0.09818,0.01396 0.02836,0.0381 0.140386,0.0141 0.09763,0.02801 0.0245,0.0023 0.03093,0.02774 0.105715,0.01198 0.09712,-0.02962 -0.04694,0.03004 0.172761,0.0393 0.06734,0.02949 0.13531,0.03817 0.0601,0.02942 -0.03346,-0.08092 0.107938,0.03485 0.02201,-0.02685 0.191011,0.05515 0.113004,0.04076 -0.03341,-0.06429 -0.01722,-0.02115 -0.101281,-0.01029 -0.118177,-0.02402 -0.06164,-0.122717 -0.01809,-0.0015 -0.182598,0.0061 -0.0021,-0.0391 -0.05881,-0.03707 -0.129329,0.02959 -0.05858,-0.02693 -0.03407,-0.02586 -0.135155,-0.0089 -0.06102,-0.0039 -0.08525,-4.57e-4 -0.08712,-0.0817 -0.05639,-0.04732 -0.06061,0.03139 -0.09796,-0.111389 -0.08365,-0.01589 -0.06377,1.99e-4 -0.146376,0.03906 -0.01662,-0.01729 -0.165032,0.03702 -0.02836,-0.01041 -0.0187,-0.131248 -0.067,-0.04412 -0.186273,0.02052 -0.0074,0.02632 -0.09924,0.01604 -0.07373,0.0143 3.45e-4,0.01688 -0.09507,0.007 -0.1187439,0.02363 -0.08446,0.02344 0.0028,0.0014 -0.1393819,0.01756 -0.02629,0.0248 -0.04283,0.01213 -0.106184,-0.01326 -0.127177,-0.03014 -0.1750556,0.02843 0.05458,0.0088 -0.115297,-0.07778 -0.05618,-0.0057 -0.08003,0.0014 -0.108722,-0.03979 -0.06727,0.0068 0.0014,0.01598 -0.11374,-0.004 0.02139,0.03484 -0.186227,0.03278 0.04942,0.02997 -0.146471,-0.03251 -0.109599,0.004"
       id="path7"
       sodipodi:nodetypes="cccc" /><path
       style="fill:none;fill-opacity:1;stroke:#000000;stroke-width:1.8654;stroke-linecap:round;stroke-linejoin:round;stroke-dasharray:none;stroke-opacity:1"
       d="m 16.668573,21.556993 -0.01053,0.02112 0.05092,0.137538 0.01339,0.011 0.06472,0.07541 0.05742,0.07882 0.01792,0.07552 0.05378,0.0043 0.03366,0.124464 0.01857,0.04938 -0.01619,0.08153 0.02715,0.06484 0.01416,0.06514 0.03323,-0.03044 0.0062,0.09747 0.10292,0.1349 0.02966,0.05405 0.01966,0.06546 0.006,0.07078 -0.0034,0.07324 0.01681,-0.04899 0.08071,0.18226 0.02152,0.06157 0.07763,0.09799 0.0091,0.01382 0.01813,0.07343 0.04109,0.05171 0.01326,0.06569 0.01736,0.03433 -0.0088,0.116642 0.0036,0.0791 0.02072,-0.0096 0.05341,0.179288 -0.03682,0.05698 8.38e-4,0.08518 0.0041,0.052 -0.02108,0.007 0.121928,0.142177 0.03172,-0.07962 -0.107903,0.198115 -0.01431,0.08104 0.09204,0.05235 0.0084,0.102018 -0.100485,0.02488 0.104217,0.117964 0.03139,-0.04865 0.111963,0.103994 0.01863,0.02498 -0.08189,-0.05124 -0.06823,-0.109212 -0.106674,-0.03158 -0.121012,0.02589 -0.04332,0.0371 -0.113507,0.02431 -0.0087,-0.145627 -0.128485,0.03524 0.01729,0.04577 -0.128712,0.03537 -0.07887,0.04342 -0.0562,0.01764 -0.142079,0.03745 -0.0022,-0.0036 -0.08004,-0.02032 -0.05052,0.04229 -0.08116,0.0353 -0.03096,0.03945 -0.08384,0.05613 -0.09716,0.04667 -0.02135,-0.07316 -0.199155,0.04011 0.02606,-0.04197 -0.0332,0.04567 -0.226385,0.07206 v -0.05206 l -0.07614,0.0047 -0.06782,0.02361 -0.07699,0.007 -0.04835,-0.09487 -0.162321,0.08113 -0.07266,0.0387 -0.01743,-0.02149 -0.09081,0.03025 -0.07415,0.09357 -0.0199,-0.0077 -0.0524,0.03236 -0.04834,0.05627 -0.06769,0.04511 -0.0243,0.04144 -0.03872,-0.0433 0.0698,-0.05416 -0.04715,0.02569 0.182056,-0.131009 0.06342,-0.022 0.06349,-0.0067 -0.0021,0.0316 0.09398,-0.03215 0.09173,0.02547 0.103551,-0.021 0.07542,-0.13748 0.07056,-0.05267 0.01297,0.009 0.08547,0.01937 0.157451,0.0063 -0.04174,0.01185 0.08369,0.0067 0.110616,-0.0042 -0.03413,0.01618 0.09521,0.0091 0.09693,-0.01076 0.09561,0.0081 0.13985,0.01765 -0.07252,0.01368 0.209954,-0.02423 0.04115,-0.02823 0.0088,0.02474 0.08957,-0.0028 0.121096,-0.08269 0.02953,-0.01041 0.05832,-0.0075 0.08308,-0.04952 0.0668,-0.0036 0.110968,0.0042 0.01006,-0.0187 0.17388,0.01722 -0.07181,0.0243 0.02294,0.02494 0.200998,-0.01639 0.121816,0.01123 -0.04769,0.01396 0.180227,-0.02712 0.01018,-0.0035 0.05595,-0.0074 0.0623,0.0033 0.06995,-0.01557 0.06834,-0.0283 0.06458,-0.06389 0.104967,-3.38e-4 0.09688,-0.0063 7.15e-4,-0.03474 0.06494,-0.0075 0.07393,0.01706 0.0896,-0.01853 0.08959,0.03794 0.02185,-0.06802 0.13548,0.05131 0.0453,0.002 0.05616,4.31e-4 0.08597,0.0021 0.0511,-0.0011 0.150127,0.01555"
       id="path8"
       sodipodi:nodetypes="cccc" /><path
       style="fill:none;fill-opacity:1;stroke:#000000;stroke-width:1.8654;stroke-dasharray:none;stroke-opacity:1"
       d="M 2.6285639,9.3380567 C 2.0286659,8.9621237 0.93269992,8.3659077 0.93269992,8.1979372 c 0,-0.167971 1.59440178,-0.9081096 1.93034488,-0.8761156"
       id="path2-7"
       sodipodi:nodetypes="csc" /><path
       style="fill:#000000;fill-opacity:1;stroke:none;stroke-width:3.02983;stroke-dasharray:none;stroke-opacity:1"
       d="M 8.3251906,7.335463 C 8.4156418,5.5523616 7.7760448,5.4489926 7.3948723,5.4296126 7.0136999,5.4102306 5.4114827,6.7023326 5.9089437,8.078423 6.4064068,9.4545134 7.6468324,8.7567771 7.8987943,8.4208295 8.1507563,8.0848838 8.2729245,7.9052569 8.3251906,7.335463 Z"
       id="path3"
       sodipodi:nodetypes="csssc" /><path
       style="display:inline;fill:none;stroke:#000000;stroke-width:1.5875;stroke-linecap:round;stroke-linejoin:round;stroke-dasharray:none;stroke-opacity:1"
       d="m 9.0195659,2.8236801 c 0.3360519,0.012502 0.6610532,-0.046232 0.9505567,-0.00441 0.2630124,-0.038467 0.5215524,0.1434593 0.7891664,0.2201174 0.184287,0.1125963 0.480481,0.1034149 0.707569,0.2060674 0.187215,0.03616 0.352054,0.1705989 0.540231,0.292704 0.114267,0.080717 0.396128,0.2585667 0.557445,0.4001032 0.156869,0.1123827 0.306624,0.2628638 0.419014,0.3845564 0.154176,0.1366935 0.164989,0.1286926 0.251328,0.2392345 0.08626,0.056414 0.372502,0.3350132 0.467952,0.4830404 0.211494,0.1280306 0.110644,0.1825128 0.159395,0.2703933 0.06459,0.1202539 0.02878,0.2621027 0.08153,0.370679 -0.04012,0.141369 0.138177,0.2218309 0.195242,0.3158951 0.0781,0.087461 0.130779,0.161806 0.180584,0.2272601 0.08012,0.067527 0.120617,-0.059713 0.166606,-0.015968 0.05199,0.049449 -0.03427,0.1573144 0.03391,0.1749024 0.386495,0.099698 0.712691,0.2059065 1.066947,0.309756 0.324292,0.1121849 0.723174,0.2227157 1.058236,0.3343719 0.325065,0.1118753 0.639547,0.2206876 0.93176,0.3304864 0.301164,0.1137325 0.573878,0.2286588 0.835952,0.3393743 0.270775,0.120577 0.354212,0.2358394 0.589901,0.3476351 0.12609,0.1476634 0.546738,0.057584 0.795022,0.1919726 0.247166,-0.076838 0.406896,0.2786011 0.622526,0.4138757 0.134419,0.1388131 0.580838,0.2653221 0.760088,0.3939562 0.306295,0.0954 0.127464,0.2379668 0.236679,0.3246031 0.04894,0.1892046 0.30527,0.226699 0.441097,0.3494634 0.130286,0.094094 0.248121,0.2190872 0.358799,0.3331044 0.109279,0.09992 0.207699,0.18022 0.30069,0.289994 0.09631,0.07281 0.236768,0.186881 0.318684,0.300317 0.125463,0.06221 0.132879,0.104993 0.195444,0.209541 0.06453,0.02308 0.171305,0.243589 0.229933,0.373582 0.06948,0.07962 0.187872,0.193001 0.221559,0.290283 0.13383,0.08045 0.07022,0.01926 0.08779,0.102266 0.04533,-0.01965 -0.136974,0.329144 -0.132898,0.467291 -0.175732,0.116039 -0.03364,0.155459 -0.02222,0.211305 -0.0292,0.103012 0.07861,0.183996 0.105067,0.23723 0.05631,0.08684 0.01882,0.07519 0.02971,0.09604 0.0252,0.04823 -0.04881,-0.04216 -0.0464,0.003 0.0023,0.04303 0.122957,0.122155 0.121231,0.179903 0.118609,0.08144 -0.02526,-0.107967 -0.0311,-0.04366 -0.03184,-0.09054 -0.02878,0.298208 -0.06071,0.469216 -0.01119,0.09637 -0.09795,0.167555 -0.117977,0.255119 -0.08591,0.09221 -0.0176,0.129055 -0.04332,0.224481 -0.0068,0.06804 -0.100091,0.300803 -0.141906,0.430012 -0.06076,0.148064 -0.164911,0.151346 -0.19978,0.247077 -0.144932,0.08074 -0.05804,0.221223 -0.107536,0.341164 -0.02337,0.116262 -0.113051,0.07063 -0.17541,0.202863 -0.08351,-0.01677 -0.11593,0.266129 -0.214002,0.44347 -0.0304,0.07208 -0.243117,0.151645 -0.341703,0.306877 -0.163078,-0.0048 -0.182038,0.185085 -0.291094,0.337382 -0.09296,0.03432 -0.225834,0.07685 -0.348692,0.229196 -0.134995,-0.06208 -0.276675,0.225997 -0.427553,0.392284 -0.128455,0.03397 -0.256453,0.284028 -0.395887,0.423083 -0.118621,0.125996 -0.201851,0.290487 -0.333204,0.409377 -0.0877,0.16999 -0.262974,0.257164 -0.407381,0.373423 -0.136811,0.135262 -0.295412,-0.04194 -0.452653,0.06918 -0.198025,-0.132555 -0.462488,0.270138 -0.681269,0.406686 -0.219763,0.0927 -0.393573,0.246717 -0.56845,0.344883 -0.230684,0.139187 -0.402549,0.179126 -0.582541,0.267739 -0.252261,0.0869 -0.274208,0.225709 -0.479841,0.311671 -0.132198,0.143749 -0.526337,0.202867 -0.807249,0.2865 -0.258168,0.07653 -0.401437,0.171897 -0.675626,0.226623 -0.189305,0.09174 -0.606311,0.09759 -0.955689,0.124968 -0.281361,0.01771 -0.651323,-0.03594 -0.991163,-0.0346 -0.341087,0.0013 -0.81912,0.09887 -1.155106,0.07539 -0.186876,-0.01355 -0.502263,-0.01272 -0.683003,-0.03614 -0.269714,0.0015 -0.29452,-0.0016 -0.428902,-0.02518 -0.192532,0.0068 -0.449474,-0.0095 -0.61566,-0.04898 -0.249625,0.02196 -0.332564,-0.01684 -0.469708,-0.0572 -0.209023,0.0075 -0.270281,-0.245784 -0.421753,-0.300998 C 9.9057308,19.264067 9.7642552,19.365955 9.6145964,19.300319 9.4972456,19.240123 9.3665278,19.067826 9.2039071,18.981751 9.1361516,18.821511 9.0399773,18.83574 8.8899775,18.742594 8.8614743,18.65909 8.5674408,18.584082 8.4010822,18.46172 8.2802081,18.421418 8.1141487,18.147556 7.976065,18.030654 7.8699611,17.845446 7.6572208,17.826097 7.5553948,17.730815 7.3519779,17.620103 7.3681242,17.560454 7.2775428,17.467344 7.1632056,17.358888 7.0908663,17.207358 6.983026,17.082718 6.9136609,16.936433 6.7772688,16.617803 6.6754636,16.486018 6.6160411,16.188071 6.5485122,16.319792 6.4844648,16.231128 6.3916974,16.103222 6.2519468,15.98759 6.160307,15.846638 6.0287395,15.73576 6.0029051,15.493463 5.9178013,15.346616 5.8635584,15.145636 5.7469142,15.023927 5.6751216,14.886762 5.5846698,14.69631 5.4404518,14.68108 5.3747189,14.541509 5.2013941,14.443331 5.1983442,14.165241 5.1291092,13.992803 5.0433305,13.79917 5.0224725,13.647467 4.9683196,13.490117 4.9245693,13.28939 4.896977,13.158792 4.8480921,12.991033 4.8328993,12.808082 4.7417693,12.62716 4.6965579,12.441221 4.6473593,12.258399 4.5816425,12.080554 4.5444747,11.892154 4.4775728,11.710991 4.4559617,11.368994 4.4270679,11.173708 4.3868513,10.882979 4.3886081,10.793479 4.3717865,10.644959 4.3549647,10.387654 4.2332938,10.359064 4.2200639,10.187463 4.1007385,10.027801 4.1996977,9.5440554 4.2042459,9.3136804 4.2075323,8.9655627 4.2133358,8.9940901 4.2218226,8.857811 4.2342743,8.6232438 4.3153373,8.4626231 4.3325785,8.2564115 4.3485025,8.0659528 4.2859782,7.9320636 4.297562,7.686962 4.3101013,7.3369105 4.3424074,6.9805368 4.3969416,6.6790363 4.4467008,6.3565073 4.3269039,6.1867453 4.4126592,5.9379605 4.3270195,5.6932675 4.6271215,5.3250761 4.7800518,5.0720919 4.8845555,4.8358063 5.0438659,4.4190701 5.2002344,4.2418384 5.3070389,3.8660081 5.4620995,3.8924681 5.5929141,3.7807422 5.7664209,3.5557599 5.8730457,3.5504542 6.0405724,3.4490478 6.1986296,3.3494992 6.4681076,3.2751747 6.6735013,3.1939167 6.8756295,3.1691957 7.0567601,3.086306 7.2321962,3.0385317 c 0.1890949,-0.022985 0.2553084,-0.059431 0.4094101,-0.088435 0.1098017,-0.012219 0.31099,-0.03229 0.4733013,-0.050971 0.1052154,0.00985 0.422174,-0.025172 0.5507499,-0.036055 0.189697,8.055e-4 0.2606457,0.027741 0.3081243,0.023322 0.1632985,0.036043 0.1798283,0.036879 0.1953661,0.034125 0.1181323,-0.020942 -0.149582,-0.096837 -0.149582,-0.096837 z"
       id="path1"
       sodipodi:nodetypes="cssccc"
       inkscape:path-effect="#path-effect2"
       inkscape:original-d="m 9.0874935,2.8210264 c 4.7047255,0.1750258 4.6429785,3.4422516 5.5473625,3.6755412 8.502878,2.193352 8.919289,5.3622744 8.96619,6.2396674 0.0621,1.161716 -1.312232,7.832403 -10.827013,7.167305 C 6.9808993,19.483479 3.9965584,14.302716 4.3125474,7.6167324 4.4880968,2.7160108 9.0874935,2.8210264 9.0874935,2.8210264 Z"
       transform="matrix(1.1699301,0,0,1.1699263,-2.1616305,-2.0133582)" /><path
       style="fill:none;stroke:#000000;stroke-width:1.5875;stroke-linecap:round;stroke-linejoin:round;stroke-dasharray:none;stroke-opacity:1"
       d="m 10.550079,11.278481 c 0.0793,0.566861 0.172094,0.954701 0.271176,1.410044 0.112021,0.37809 0.295253,0.986029 0.427129,1.37074 0.177797,0.373861 0.170528,0.515021 0.295554,0.765547 0.09132,0.205762 0.301998,0.490205 0.477729,0.705959 0.150638,0.133106 0.228149,0.362457 0.411849,0.505229 0.07921,0.138921 0.555013,0.300125 0.779128,0.392876 0.321869,0.105582 0.330935,-0.01605 0.47297,0.01821 0.209385,0.0505 0.317443,0.254241 0.574595,0.263884 -0.202073,-0.531028 -0.380776,-0.957353 -0.485026,-1.291292 -0.127538,-0.334195 -0.03649,-0.537685 -0.03023,-0.696467 0.124394,-0.08808 0.0025,-0.200028 0.07056,-0.231282 0.06463,-0.0426 0.311759,0.0073 0.594578,0.145119 0.244831,0.119336 0.586352,0.04227 0.982984,0.282482 0.417069,0.252591 0.648304,0.302347 0.863199,0.437911 0.164835,-0.0047 0.471316,0.242821 0.53686,0.22425 0.145696,-0.0082 0.124667,-0.08565 0.07878,-0.246255 -0.05624,-0.196811 -0.328608,-0.516989 -0.432822,-0.995145 -0.105106,-0.482252 -0.158118,-0.822403 -0.175955,-1.051866 0.0026,-0.204364 -0.255162,-0.305132 -0.155937,-0.300456 -0.15291,0.02563 0.379384,-0.142626 0.788251,0.15955 0.341205,0.252169 0.789022,0.924089 1.264887,1.388738 0.162667,0.158833 0.541951,0.231845 0.663986,0.213888 0.332479,-0.0025 0.163472,0.0095 0.218634,-0.100285 0.07372,-0.08541 0.115305,-0.501813 0.06764,-0.863758 -0.03524,-0.288408 -0.103488,-0.56412 -0.218076,-0.87046 -0.11595,-0.333325 -0.311517,-0.708854 -0.526179,-1.040059 -0.244159,-0.392886 -0.594362,-0.710364 -0.90818,-1.009806 -0.333104,-0.317844 -0.578522,-0.708112 -1.052591,-0.9877788"
       id="path2"
       sodipodi:nodetypes="ccsssc"
       inkscape:path-effect="#path-effect3"
       inkscape:original-d="m 10.550079,11.278481 c 0.634415,4.534889 1.903244,5.310285 3.782991,5.380775 -1.010365,-2.655142 -0.934498,-2.658176 1.010363,-1.480301 1.668276,1.010365 1.574289,0.986868 1.174842,-0.845885 -0.420426,-1.929009 -0.400038,-1.808647 1.644779,0.187974 1.138664,1.111826 1.4803,-2.561155 -1.78576,-4.487896"
       transform="matrix(1.1699301,0,0,1.1699263,-2.5544187,-1.3848992)" /></g></svg>
