<?xml version="1.0" encoding="UTF-8" standalone="no"?>
<!-- Created with Inkscape (http://www.inkscape.org/) -->

<svg
   width="100"
   height="100"
   viewBox="0 0 26.458333 26.458333"
   version="1.1"
   id="svg1"
   xml:space="preserve"
   inkscape:version="1.4.2 (f4327f4, 2025-05-13)"
   sodipodi:docname="chiken.svg"
   xmlns:inkscape="http://www.inkscape.org/namespaces/inkscape"
   xmlns:sodipodi="http://sodipodi.sourceforge.net/DTD/sodipodi-0.dtd"
   xmlns="http://www.w3.org/2000/svg"
   xmlns:svg="http://www.w3.org/2000/svg"><sodipodi:namedview
     id="namedview1"
     pagecolor="#505050"
     bordercolor="#ffffff"
     borderopacity="1"
     inkscape:showpageshadow="0"
     inkscape:pageopacity="0"
     inkscape:pagecheckerboard="1"
     inkscape:deskcolor="#505050"
     inkscape:document-units="px"
     inkscape:zoom="6.5129136"
     inkscape:cx="-0.92124668"
     inkscape:cy="22.954396"
     inkscape:window-width="1920"
     inkscape:window-height="1009"
     inkscape:window-x="-8"
     inkscape:window-y="-8"
     inkscape:window-maximized="1"
     inkscape:current-layer="layer1" /><defs
     id="defs1"><inkscape:path-effect
       effect="roughen"
       id="path-effect15"
       is_visible="true"
       lpeversion="1.2"
       global_randomize="1;1"
       displace_x="0.12;103146887"
       displace_y="0.12;1"
       method="size"
       max_segment_size="0.0544932"
       segments="2"
       handles="along"
       shift_nodes="true"
       fixed_displacement="false"
       spray_tool_friendly="false" /><inkscape:path-effect
       effect="roughen"
       id="path-effect14"
       is_visible="true"
       lpeversion="1.2"
       global_randomize="1;1"
       displace_x="0.12;-293555727"
       displace_y="0.12;1"
       method="size"
       max_segment_size="0.0508798"
       segments="2"
       handles="along"
       shift_nodes="true"
       fixed_displacement="false"
       spray_tool_friendly="false" /><inkscape:path-effect
       effect="roughen"
       id="path-effect13"
       is_visible="true"
       lpeversion="1.2"
       global_randomize="1.4;1"
       displace_x="0.13;1"
       displace_y="0.13;1"
       method="size"
       max_segment_size="1"
       segments="2"
       handles="along"
       shift_nodes="true"
       fixed_displacement="false"
       spray_tool_friendly="false" /><inkscape:path-effect
       effect="roughen"
       id="path-effect11"
       is_visible="true"
       lpeversion="1.2"
       global_randomize="0.1;1"
       displace_x="0.11;1"
       displace_y="0.11;1"
       method="size"
       max_segment_size="4"
       segments="5"
       handles="along"
       shift_nodes="true"
       fixed_displacement="false"
       spray_tool_friendly="false" /><inkscape:path-effect
       effect="roughen"
       id="path-effect10"
       is_visible="true"
       lpeversion="1.2"
       global_randomize="1;1"
       displace_x="0.16;-1595247672"
       displace_y="0.13;-850744027"
       method="size"
       max_segment_size="0.102814"
       segments="2"
       handles="along"
       shift_nodes="true"
       fixed_displacement="false"
       spray_tool_friendly="false" /><inkscape:path-effect
       effect="roughen"
       id="path-effect9"
       is_visible="true"
       lpeversion="1.2"
       global_randomize="1.4;1"
       displace_x="0.13;1"
       displace_y="0.13;1"
       method="size"
       max_segment_size="1"
       segments="2"
       handles="along"
       shift_nodes="true"
       fixed_displacement="false"
       spray_tool_friendly="false" /><inkscape:path-effect
       effect="roughen"
       id="path-effect8"
       is_visible="true"
       lpeversion="1.2"
       global_randomize="1;1005828747"
       displace_x="0.21;1"
       displace_y="0.21;1"
       method="size"
       max_segment_size="0.323082"
       segments="2"
       handles="along"
       shift_nodes="true"
       fixed_displacement="false"
       spray_tool_friendly="false" /></defs><g
     inkscape:label="Layer 1"
     inkscape:groupmode="layer"
     id="layer1"><path
       style="fill:none;stroke:#000000;stroke-width:1.59445;stroke-dasharray:none;stroke-opacity:1"
       d="m 3.4604327,9.6036891 c -0.00956,0.2443034 -0.024598,0.3461314 -0.031463,0.5811599 -0.037918,0.222321 0.012342,0.595022 0.00817,0.826912 0.02167,0.302644 -0.070634,0.34782 -0.072124,0.527438 -0.066743,0.20375 -0.019126,0.407344 -0.018033,0.622325 -0.015752,0.184943 -0.00162,0.432885 0.00268,0.644737 -0.00135,0.196885 0.02982,0.446703 0.036814,0.640231 0.026518,0.222121 -0.00874,0.33246 -2.96e-5,0.50082 -0.012799,0.174692 0.1220253,0.42017 0.1348445,0.600925 0.1120621,0.202728 0.028465,0.31371 0.041786,0.464216 0.019822,0.169309 0.079851,0.328353 0.097238,0.486884 0.066384,0.157513 0.055197,0.339494 0.075079,0.489723 0.038054,0.16949 0.061573,0.317162 0.082579,0.452168 0.043324,0.1682 0.01318,0.108304 0.035625,0.232989 0.00566,0.04004 -0.019635,0.275626 0.019614,0.452733 -0.052811,0.07254 0.081344,0.417213 0.1240022,0.576228 0.029496,0.17965 0.056375,0.195319 0.084234,0.288184 0.038298,0.119705 0.087155,0.24264 0.1249257,0.352606 0.052139,0.118669 0.092633,0.229022 0.1314423,0.328717 0.056479,0.117584 0.2138818,0.390767 0.2538201,0.48196 0.1483062,0.225008 -0.029623,-0.09553 -0.018843,-0.07165 0.013317,-0.0016 0.1751722,0.294789 0.2452769,0.424601 0.085321,0.0935 0.08943,0.15747 0.1330066,0.230184 0.053556,0.08621 0.131295,0.275834 0.1820414,0.351288 0.064382,0.163213 0.059973,0.06378 0.091727,0.107726 0.056741,0.05455 0.08908,0.145662 0.1511413,0.220826 0.034558,0.06441 0.121281,0.153513 0.1897748,0.225474 0.054005,0.06726 0.087632,0.08203 0.1551839,0.144001 0.039958,0.0255 0.080454,0.03014 0.1681801,0.09824 0.019266,-0.03472 0.2049035,0.138483 0.3199471,0.211752 0.068037,0.02922 0.1582837,0.0965 0.2428812,0.14347 0.074469,0.04017 0.068477,0.0087 0.1512098,0.04911 0.021519,-0.0221 0.2354015,0.17485 0.3562511,0.224643 0.080313,0.09814 0.1748199,0.07898 0.2525929,0.107484 0.1020224,0.04722 0.1940639,0.106689 0.2752161,0.133013 0.1110871,0.07486 0.2778341,0.200373 0.3551578,0.222505 0.1693754,0.165049 0.051381,-0.06235 0.09477,-0.05103 0.080434,-0.05639 0.2854876,0.09448 0.4042426,0.119393 0.1353879,0.05427 0.1122019,-0.121645 0.1955807,-0.106991 0.075087,-0.132308 0.2693756,0.05678 0.4016463,0.07727 0.1133662,0.02859 0.2158201,0.132579 0.3199915,0.146916 0.1134626,0.11586 0.2015354,-0.0076 0.3059647,0.0031 0.1115222,-0.02203 0.2444509,0.03879 0.3628949,0.04819 0.1244565,0.0253 0.2034845,-0.0045 0.3181025,0.002 0.104435,-0.01373 0.248185,0.0029 0.379037,0.0087 0.117657,-0.0052 0.101302,-0.0589 0.229999,-0.05356 0.01343,-0.06325 0.289627,0.01796 0.480516,0.03393 0.08473,0.009 0.234182,-0.06141 0.388211,-0.04905 0.08859,-0.07456 0.224636,-0.0539 0.382028,-0.02318 0.145713,0.02844 0.264623,0.138073 0.381258,0.139853 0.194806,0.003 0.269697,-0.09596 0.459233,-0.101506 0.109473,-0.104182 0.455389,-0.01097 0.674867,-0.02889 0.186471,-0.0066 0.397062,-0.01523 0.573043,-0.03725 0.203468,-0.0028 0.336509,0.03833 0.497849,0.01145 0.182929,0.05368 0.224853,-0.103592 0.395331,-0.139921 0.08037,-0.08497 0.388515,-0.0937 0.585685,-0.146562 0.149614,-0.04634 0.362605,-0.08936 0.523852,-0.140111 0.17878,-0.04304 0.28718,-0.104688 0.429286,-0.155511 0.147198,-0.06396 0.343696,-0.0099 0.489564,-0.06877 0.190282,0.0417 0.30167,-0.108425 0.442346,-0.172 0.152289,-0.05144 0.418046,-0.125679 0.552617,-0.193119 0.240325,-0.04682 0.18599,-0.101735 0.282079,-0.153555 0.12446,-0.07418 0.211424,-0.186759 0.340665,-0.263518 0.07839,-0.118693 0.291748,-0.09159 0.41997,-0.174865 0.151981,-0.01193 0.249246,-0.150607 0.369114,-0.235588 0.118235,-0.06882 0.272738,-0.152266 0.384723,-0.238464 0.1442,-0.06394 0.226967,-0.100831 0.325946,-0.183026 0.132265,-0.03158 0.359146,-0.16046 0.463553,-0.255073 0.217913,-0.04494 0.150516,-0.1464 0.223916,-0.217898 0.09124,-0.09648 0.187044,-0.166868 0.274123,-0.259612 0.09272,-0.07905 0.171988,-0.198246 0.254912,-0.295074 0.07538,-0.09908 0.246641,-0.04447 0.320164,-0.138008 0.178773,0.02953 0.299384,-0.09795 0.37757,-0.212575 0.205198,0.0149 0.01521,-0.233485 0.08073,-0.350522 -0.06934,-0.118911 0.10552,-0.24467 0.162575,-0.361232 0.02487,-0.104231 0.130766,-0.140999 0.171659,-0.232472 0.08639,-0.05465 0.04919,-0.235066 0.08698,-0.332338 -0.0052,-0.116681 0.02419,-0.253785 0.05173,-0.32959 -0.01535,-0.153026 0.06058,-0.09166 0.0796,-0.143378 0.0505,-0.06336 0.117404,-0.09861 0.143179,-0.171864 0.09055,-0.02782 -0.03269,-0.249429 -0.01257,-0.330929 -0.07509,-0.128979 0.0066,-0.120284 0.0208,-0.163345 3.54e-4,-0.08398 0.131672,-0.0321 0.15386,-0.07861 0.118994,0.01751 -0.01248,-0.183087 -0.01681,-0.257286 -0.003,-0.0513 -0.0049,-0.08555 1.43e-4,-0.122584 0.0065,-0.04716 0.01275,-0.10276 0.02,-0.153283 0.0061,-0.05518 0.05272,-0.06062 0.05973,-0.111932 0.04735,-0.02609 0.04981,-0.04461 0.05744,-0.112558 0.04192,0.0023 -0.02889,-0.259065 -0.02335,-0.347692 -0.04426,-0.12081 -0.03825,-0.127421 -0.03693,-0.158891 -0.04015,-0.105448 0.01674,0.04698 0.01733,0.006 0.01533,0.0244 -0.145394,-0.254892 -0.15331,-0.362835 -0.147674,-0.08966 -0.05362,-0.09282 -0.05858,-0.137444 -0.05291,-0.0634 -0.01532,-0.12026 -0.02524,-0.180053 -0.01097,-0.06387 0.07451,-0.01169 0.06,-0.07436 0.07311,0.0094 -0.08156,-0.24453 -0.120032,-0.34973 -0.04573,-0.08749 0.04247,-0.0458 0.01994,-0.09707 0.04264,-0.0323 -0.09426,-0.187001 -0.146751,-0.276107 -0.04558,-0.06968 -0.248552,-0.189117 -0.291186,-0.249712 -0.19065,-0.09173 -0.112234,-0.102916 -0.130314,-0.127065 -0.110015,-0.09775 0.06783,-0.01922 0.0322,-0.06194 0.05169,-0.03186 -0.107461,-0.09346 -0.211083,-0.189568 -0.02731,0.0153 -0.16457,-0.168818 -0.280024,-0.255091 -0.05509,-0.06077 -0.159809,-0.08452 -0.263794,-0.150336 -0.07953,-0.01801 -0.197947,-0.130603 -0.320439,-0.196617 -0.09007,-0.05715 -0.227801,-0.120007 -0.355523,-0.179248 -0.116681,-0.0555 -0.119055,-0.01097 -0.255511,-0.06563 -0.04465,0.03066 -0.290117,-0.04414 -0.495863,-0.113631 -0.09928,0.03764 -0.275127,-0.0049 -0.477012,-0.06539 -0.104676,0.05684 -0.343793,0.06226 -0.567489,6.23e-4 -0.146281,0.124479 -0.436597,-0.09373 -0.67317,-0.159169 -0.196356,-0.02635 -0.401077,-0.100133 -0.613812,-0.157047 -0.210571,-0.04562 -0.443432,-0.117138 -0.669814,-0.173096 -0.237493,-0.0588 -0.462762,-0.165416 -0.700702,-0.216111 -0.251055,-0.107762 -0.449409,-0.04455 -0.707532,-0.07962 -0.234286,0.01276 -0.580868,-0.05762 -0.891268,-0.09076 -0.302814,-0.03232 -0.641529,-0.191297 -0.941863,-0.195941 -0.144575,0.0058 -0.295964,-0.01971 -0.431014,-0.01073 -0.143241,-0.02542 -0.26038,0.01769 -0.38205,0.02544 -0.125117,0.0071 -0.24613,-0.01767 -0.358352,-0.01633 -0.114511,-0.03019 -0.214356,-9.99e-4 -0.312568,-0.0098 -0.09919,-0.0089 -0.174979,-0.0092 -0.261427,-0.03422 -0.07697,-0.01205 -0.202407,-0.09053 -0.282378,-0.145905 -0.08941,-0.07109 -0.111329,-0.06839 -0.165462,-0.13817 -0.04681,-0.04813 -0.109558,-0.184905 -0.160246,-0.3222712 -0.04433,-0.1201515 -0.01615,-0.2568596 -0.04239,-0.4104422 -0.01061,-0.061763 -0.01998,-0.1307532 -0.02762,-0.2060355 -0.0082,-0.075344 0.06201,-0.075337 0.05635,-0.1626177 0.06878,-0.030468 0.0075,-0.2225869 0.0012,-0.3522262 0.01613,-0.090857 -0.01974,-0.2354534 -0.02527,-0.3465381 -0.0147,-0.1256764 -0.01212,-0.2080866 -0.01817,-0.3130934 -0.0083,-0.1197611 -0.0243,-0.2299659 -0.03286,-0.3485174 -0.01919,-0.121668 -0.0016,-0.2438754 -0.0132,-0.3689966 0.0053,-0.1265774 -0.03079,-0.2746875 -0.04659,-0.4044239 C 11.402496,6.8109062 11.382259,6.6580619 11.362963,6.533893 11.336363,6.3704843 11.245969,6.2847915 11.223805,6.1699465 11.121454,6.0313075 11.199844,5.9475758 11.172135,5.8293855 11.164422,5.7089531 11.097024,5.556651 11.057263,5.4229773 11.012294,5.2964647 10.949248,5.099247 10.903887,4.9771943 10.837971,4.805557 10.820037,4.7677822 10.777989,4.6734838 10.718992,4.5449706 10.72544,4.6207034 10.665648,4.5139789 10.629948,4.5270679 10.412601,4.1265856 10.297891,3.9784067 10.17734,3.8308681 10.190443,3.8772063 10.126401,3.8077073 10.043889,3.751946 9.9157189,3.6061319 9.8064903,3.5153745 9.6959492,3.4341098 9.7400627,3.4043624 9.6326576,3.33603 9.6226974,3.2895961 9.3289588,3.1809536 9.1480838,3.1086785 9.0168798,3.0734436 8.8716563,3.0027334 8.7243283,2.9609442 8.5728736,2.9144484 8.4587131,2.9031567 8.3016527,2.8791916 8.133597,2.8535488 7.9154996,2.8061119 7.7386074,2.8050953 7.5639965,2.8040918 7.4189917,2.8176326 7.2588487,2.8310934 7.1135928,2.8522605 6.9401546,2.8739884 6.7876999,2.9028625 6.6484319,2.9379492 6.3468957,2.8454325 6.2124793,2.886375 5.9602865,2.7967579 6.0186448,2.957533 5.925988,2.9950855 5.8010579,3.053314 5.6147471,3.0574405 5.5006903,3.1215665 5.3295165,3.1348349 5.2969683,3.2524515 5.2006145,3.3237384 5.1008401,3.4061702 5.0029941,3.5288185 4.9101201,3.6189947 4.8335527,3.7428414 4.7389727,3.773471 4.664726,3.8639055 4.576792,3.9479242 4.5063262,3.989313 4.4370939,4.0962777 4.3545529,4.1433567 4.2261884,4.3410657 4.1604651,4.474616 4.0486924,4.5747717 4.0242697,4.6712858 3.9802882,4.7837797 c -0.082556,0.1000901 0.00557,0.2857866 -0.032137,0.4113675 0.060124,0.1572201 -0.047322,0.2588317 -0.076025,0.376344 -0.00938,0.1419848 -0.036019,0.2601643 -0.059282,0.3755323 -0.00587,0.1458639 0.085071,0.3031827 0.065748,0.4176195 0.1109738,0.1821619 -0.044801,0.1600268 -0.062123,0.2658799 -0.032062,0.08741 -0.069601,0.2659695 -0.090812,0.4061889 -0.043686,0.1119305 -0.022636,0.2942687 -0.039386,0.4210081 -1.135e-4,0.1508954 0.040615,0.3192104 0.027154,0.4278089 0.057632,0.1931127 0.1025165,0.3365569 0.088908,0.4256074 0.1136278,0.238993 0.0267,0.2662281 0.00525,0.3425461 0.027998,0.2055128 -0.068345,0.2091496 -0.1131156,0.2915426 -0.041711,0.097243 -0.056971,0.1999282 -0.096895,0.2870277 -0.070352,0.069534 -0.125316,0.284893 -0.1371399,0.3714365 z"
       id="path1"
       sodipodi:nodetypes="csscssccccccccccccccccccccccccccccccccccccccccccsccccccccccccccccccccccccccccccccccccccccccccccccccccccccccccccccccccccccccccccccccccccccccccccccccsscccccccccccccccccccccccc" /><path
       style="fill:none;fill-opacity:1;stroke:#000000;stroke-width:1.59445;stroke-dasharray:none;stroke-opacity:1"
       d="M 3.5088331,7.882759 C 2.9960691,7.5614278 2.0592902,7.0518099 2.0592902,6.9082363 c 0,-0.1435737 1.3628182,-0.7762113 1.6499662,-0.7488641"
       id="path2"
       sodipodi:nodetypes="csc" /><path
       style="fill:#000000;fill-opacity:1;stroke:none;stroke-width:1.59445;stroke-dasharray:none;stroke-opacity:1"
       d="M 6.7450389,5.7915537 C 6.6974406,6.7299146 7.0340275,6.7843121 7.2346193,6.7945117 7.4352115,6.8047099 8.2783781,6.1247398 8.0165886,5.4005701 7.7547989,4.6764003 7.1020248,5.043585 6.9694298,5.2203777 6.8368349,5.39717 6.7725445,5.4916996 6.7450389,5.7915537 Z"
       id="path3"
       sodipodi:nodetypes="csssc" /><path
       style="fill:#000000;fill-opacity:1;stroke:none;stroke-width:1.59445;stroke-dasharray:none;stroke-opacity:1"
       d="M 5.1436564,3.3191682 C 4.9046549,0.34571641 5.1998921,0.26839263 6.0223378,0.23324544 6.8447839,0.19809825 7.1821976,0.35977531 7.2314039,0.78154148 7.5266408,0.24730434 7.8921724,-0.13228525 8.6583828,0.04345071 9.4245933,0.21918654 9.9518018,0.85183599 9.6073593,1.3368669 10.029126,0.91510074 10.703953,0.54957004 11.181956,1.1470722 11.65996,1.7445742 11.561547,2.820078 10.767218,3.1856086"
       id="path4" /><path
       style="fill:none;fill-opacity:1;stroke:#000000;stroke-width:1.59445;stroke-dasharray:none;stroke-opacity:1"
       d="m 18.061747,10.99485 c 0.380884,-0.846156 0.68072,-1.5741057 0.990355,-2.0973993 0.265072,-0.5775801 0.711593,-0.8655359 0.967877,-1.1258787 0.360506,-0.2124953 0.406894,-0.4304434 0.593219,-0.5104802 0.197492,-0.1447761 0.410373,-0.1158741 0.615151,-0.046889 0.186902,0.062962 0.394771,0.2011668 0.582985,0.311341 0.233777,0.1368445 0.35573,0.4418424 0.347659,0.8019679 0.02604,0.3779404 -0.155427,0.7242762 -0.309599,1.1535717 -0.197962,0.3739646 -0.289436,0.9193256 -0.479781,1.2946826 -0.183854,0.362557 -0.426229,0.625819 -0.558126,0.75491 0.401022,-0.513542 0.884635,-0.801166 1.310584,-0.975156 0.452267,-0.151491 0.809565,-0.216465 1.107395,-0.20629 0.309635,0.01061 0.524009,0.08252 0.574386,0.144525 0.165354,0.205268 0.293305,0.346085 0.422002,0.643049 0.09429,0.195538 0.194623,0.621658 0.163689,0.984948 -0.06486,0.23502 -0.07589,0.636928 -0.322079,0.913436 -0.255219,0.286656 -0.714001,0.524554 -1.329098,0.65015"
       id="path5"
       sodipodi:nodetypes="csccc" /><path
       style="fill:none;fill-opacity:1;stroke:#000000;stroke-width:1.59445;stroke-linecap:round;stroke-linejoin:round;stroke-dasharray:none;stroke-opacity:1"
       d="m 8.9063109,13.695136 c -0.038098,0.0679 -0.080716,0.06999 -0.1161021,0.136486 -0.050332,0.0184 -0.038845,0.152582 -0.079065,0.233938 0.010486,0.06219 -0.1444655,0.232881 -0.178315,0.306591 -0.086011,0.114246 -0.048343,0.04285 -0.062179,0.07403 -0.048997,0.04597 -0.065641,0.12997 -0.092115,0.19447 -0.033464,0.05959 -0.087641,0.154004 -0.1101687,0.213549 -0.056302,0.0789 0.019503,-0.03111 0.00356,0.01407 0.0171,-0.01936 -0.090265,0.19817 -0.119448,0.297554 -0.03821,0.05193 -0.030207,0.112884 -0.04491,0.169933 -0.012171,0.05504 -0.1231451,0.124862 -0.1356818,0.181748 -0.1046655,0.05574 -3.793e-4,0.09311 -0.009,0.138893 0.00873,0.05661 -0.033122,0.113908 -0.04129,0.168971 -0.020957,0.05461 -0.015606,0.134468 -0.021234,0.186109 -0.00566,0.07182 -0.071497,0.04267 -0.074664,0.08433 -0.067998,0.02419 0.064643,0.131056 0.063275,0.195094 0.071749,0.05058 -0.083909,0.142728 -0.082831,0.192171 -0.082061,0.07751 -0.015462,0.06516 -0.013559,0.100084 -0.014769,0.04596 0.0083,0.118175 0.013528,0.168376 0.00583,0.05771 0.082549,0.0797 0.088584,0.120815 0.07923,0.03881 -0.00128,0.09237 0.00669,0.134144 -0.00659,0.04976 0.023011,0.08562 0.032848,0.127107 0.015807,0.04282 0.077917,0.09421 0.08952,0.134938 0.06624,0.04275 0.049954,0.065 0.059947,0.09602 0.042729,0.0371 0.01774,0.06322 0.030243,0.09754 0.00922,0.03371 0.029661,0.09536 0.045978,0.134634 0.012814,0.04737 -0.00407,0.128546 0.010413,0.160105 -0.021389,0.08625 0.040348,0.06641 0.05099,0.08807 0.032802,0.04887 0.02917,0.07773 0.04287,0.103494 0.017397,0.0526 0.00612,0.03465 0.021468,0.06131 0.00113,0.02284 0.027029,0.136276 0.05349,0.177033 -0.00753,0.07585 0.037153,0.01267 0.053305,0.03588 0.033052,0.0043 0.051337,0.113716 0.080307,0.151075 0.014126,0.05974 0.072315,0.04365 0.091117,0.06635 0.055466,0.02108 -0.00615,0.05161 0.014306,0.07473 -0.014053,0.0404 0.033193,0.07274 0.066831,0.107014 6.93e-4,0.03434 0.04163,0.152794 0.075497,0.184101 -0.00591,0.104242 0.016151,0.03946 0.034567,0.05556 0.013137,0.03547 0.087706,0.05481 0.1221803,0.08208 0.04727,0.01872 0.00856,0.06714 0.03588,0.0872 -0.00651,0.05383 0.051284,0.05662 0.09119,0.08289 0.013258,0.02723 0.047355,-0.02151 0.08843,0.0027 0.019694,-0.04186 0.159319,0.06861 0.2139532,0.09709 0.070218,0.01686 -0.079571,0.0033 -0.062227,0.01205 -0.047005,0.01919 0.1447668,0.05203 0.2148089,0.08229 0.041413,4.05e-4 0.034145,-0.01949 0.067097,-0.0061 0.016428,-0.02796 0.070122,0.08185 0.1186091,0.100096 0.010727,0.05744 0.042425,0.03227 0.079161,0.04513 0.011932,0.02019 0.080933,0.01824 0.123899,0.032 0.031662,5.94e-4 0.069061,0.09297 0.1050741,0.103772 0.025853,0.07893 0.055899,-0.02554 0.084331,-0.0177 0.03651,-0.03189 0.06525,0.03174 0.102664,0.04126 0.02596,0.02057 0.08262,0.01858 0.117994,0.02687 0.04097,0.0077 0.04655,0.007 0.07545,0.01332 0.02529,0.0017 0.07299,0.02296 0.109534,0.03034 0.03158,0.01369 0.03284,0.0084 0.06454,0.01431 0.01121,0.0036 0.05747,-0.02759 0.09949,-0.02053 0.015,-0.03586 0.0795,0.0031 0.121393,0.01025 0.02817,-0.0054 0.192075,0.0027 0.224337,0.0083 0.127382,-0.0083 -6.19e-4,-0.0047 -6.19e-4,-0.0047 0.01884,-0.0013 -0.05306,0.02006 -0.03447,0.02353 -0.03317,0.02415 0.124273,0.0053 0.180448,0.01584 0.03517,-0.01145 0.09044,0.02406 0.116356,0.02928 0.05203,0.01683 0.11057,0.01276 0.124626,0.01562 0.08151,0.0069 0.06742,0.07064 0.06742,0.07064 0.06742,0.07064 0.124768,0.01446 0.124768,0.01446 0.12477,0.01446 0.01809,0.02596 0.01809,0.02596 0.01809,0.02596 0.04322,-0.01744 0.04322,-0.01744 0.18126,0.01061 0.0178,0.06307 0.02372,0.04979 0.0019,-0.0042 0.0481,-0.06531 0.07865,-0.0624 0.04418,0.0042 0.09141,-0.01825 0.133784,-0.01501 0.04546,-0.02302 0.07611,0.0025 0.115874,0.0047 0.0364,-0.001 -0.01293,-0.0028 0.0275,-0.0016 -0.02454,-0.0048 0.141731,-0.01261 0.208145,-0.01464 0.03586,-0.01604 0.05812,-0.04472 0.09219,-0.04714 0.02385,-0.04447 0.05701,-0.0042 0.09152,-0.0083 0.02087,-0.0025 0.0447,-0.01085 0.07846,-0.01687 0.01036,-0.008 0.07378,0.02641 0.107761,0.01759 0.03112,0.03304 0.09195,-0.0084 0.119152,-0.01795 0.05008,0.0022 0.01073,0.0025 0.02557,-0.0036 0.0098,0.0014 0.06248,-0.04339 0.08943,-0.05841 0.02104,-0.02689 0.0262,0.0042 0.04171,-0.006 0.01661,0.008 0.165297,-0.02159 0.185978,-0.0395 0.120393,0.01037 -0.001,-0.03588 -0.001,-0.03588 0.0082,-0.04384 -0.03886,-0.02787 -0.03029,-0.03631 -0.03389,-0.03441 0.04926,-0.04572 0.06839,-0.07204 0.01861,-0.01709 0.01109,-0.0377 0.02261,-0.0581 -0.0018,-0.02296 0.0043,-0.04527 0.01491,-0.07105 -0.0098,-0.02404 0.04091,0.01773 0.04937,-0.01157 0.03338,0.02675 0.02155,-0.08328 0.0282,-0.137242 0.0028,-0.02251 -0.09064,-0.03496 -0.08902,-0.07271 -0.09588,-0.0088 0.0045,0.02477 0.0045,-0.02466 0.0016,0.04821 -3.7e-5,-0.115789 -0.0043,-0.197147 -6.62e-4,-0.02013 -0.01686,-0.08263 -0.02101,-0.133526 -0.01485,-0.03288 0.07886,-0.08298 0.07388,-0.131753 0.08166,-0.04145 0.01807,-0.0318 0.0094,-0.08628 0.01899,0.0013 0.03024,-0.145825 0.01225,-0.224771 0.04362,-0.05644 -0.08389,-0.131245 -0.101579,-0.190994 -0.06897,-0.06211 -0.02306,-0.06222 -0.0373,-0.108871 -0.01622,-0.03774 0.03951,-0.07058 0.01721,-0.141472 0.05497,-0.01828 -0.02483,-0.176867 -0.06424,-0.272558 0.0089,-0.06833 -0.138909,-0.119501 -0.174683,-0.189405 -0.110136,-0.04641 -0.04259,-0.091 -0.05833,-0.158963 -0.01907,-0.08233 -0.03223,-0.19359 -0.0582,-0.260833 0.03694,0.04104 0.09068,0.09943 0.12837,0.139168 0.04847,0.0518 0.01502,0.08648 0.04758,0.11932 -0.0058,0.06328 0.05066,0.07665 0.09502,0.11885 0.01085,0.03506 0.148886,0.09983 0.197503,0.143223 0.08126,0.0353 0.144625,0.05074 0.173222,0.07535 0.110655,0.02015 0.04441,0.03452 0.06741,0.05377 0.03952,0.0296 0.02652,0.08389 0.06776,0.116717 -0.0061,0.05541 0.02149,0.09701 0.07127,0.134248 -0.02227,0.06076 0.06658,0.103579 0.122238,0.142302 0.0047,0.05623 0.08952,0.116198 0.138619,0.148159 0.02864,0.07332 0.06494,0.08103 0.102073,0.103941 0.03102,0.05824 0.07235,0.0284 0.112643,0.05179 0.04012,0.0075 0.08083,0.03971 0.12909,0.0657 0.03372,0.01133 0.100748,0.04046 0.150152,0.06499 0.04563,0.01 0.08797,0.02918 0.131738,0.04929 0.04428,0.0066 0.08164,0.03813 0.125545,0.0567 0.03762,0.01709 0.07188,0.02905 0.115765,0.04598 0.0311,0.01085 0.02243,-0.01145 0.06947,0.0047 -0.0036,-0.02339 0.129842,0.04718 0.197319,0.06648 0.03529,0.01401 0.09659,0.01529 0.138694,0.0257 0.04782,7.44e-4 0.05072,0.04786 0.08668,0.0555 0.02236,0.03994 0.01564,0.04229 0.05912,0.04952 -0.0098,0.03499 0.135925,0.07635 0.196742,0.08197 0.04361,0.06079 0.12939,0.0071 0.161685,0.0087 0.07771,0.0024 0.08522,0.05978 0.09925,0.06014 0.07223,0.059 -0.01869,-0.02294 -0.0036,-0.02292 0.0058,-0.02349 0.171722,0.02683 0.223256,0.0219 0.07509,0.02809 0.02662,8.69e-4 0.03822,-5.32e-4 0.03622,-7.33e-4 0.03469,0.04432 0.06597,0.03812 0.02132,0.04311 0.105484,-0.04734 0.152236,-0.06406 0.02993,-0.03277 0.04391,-0.03143 0.0681,-0.04259 0.02057,-0.02471 0.06693,-0.03468 0.09221,-0.04985 0.03154,-0.0192 0.02696,-0.02509 0.04433,-0.03764 0.01305,-0.01849 -0.04623,-0.121985 -0.0258,-0.140774 -0.07438,-0.102893 0.02386,-0.03722 0.03889,-0.05354 0.0046,-0.02043 0.0647,-0.06009 0.07655,-0.07502 0.04185,-0.0347 0.03517,-0.0076 0.03757,-0.01073 0.03817,-0.01169 0.0094,0.02549 0.0167,0.01487 0.01181,0.02024 0.03157,-0.05105 0.04573,-0.07958 0.0066,-0.01576 0.06014,-0.04781 0.06754,-0.06669 0.04765,-0.02312 -0.0825,-0.01892 -0.07859,-0.03079 -0.08225,-0.023 -0.0089,-0.06034 -0.0027,-0.08962 -0.02125,-0.02508 0.0081,-0.04152 0.01121,-0.06276 0.0031,-0.02217 -0.01245,-0.03929 -0.01061,-0.06197 -0.01613,-0.02067 0.004,-0.06546 0.0043,-0.09197 0.0011,-0.03597 0.03631,-0.06435 0.03537,-0.08675 0.03545,-0.04351 -0.02521,-0.02647 -0.02759,-0.04997 -0.0262,-0.01603 -0.0071,-0.126963 -0.01389,-0.164371 -0.0016,-0.07221 -0.01061,-0.05439 -0.01437,-0.07174 -0.01061,-0.04987 -0.07919,-0.136613 -0.08767,-0.167045 -0.06825,-0.08739 -0.07198,0.04251 -0.0751,0.03192 -0.0817,0.01048 -0.05669,-0.09761 -0.07546,-0.153295 -0.03871,-0.0334 -0.0023,-0.06715 -0.01901,-0.112498 0.0084,-0.03194 -0.05344,-0.13936 -0.07793,-0.195602 -0.0288,-0.07013 -0.03587,0.0088 -0.05451,-0.02958 -0.03488,0.01679 -0.112077,-0.128786 -0.153383,-0.207052 -0.06925,-0.03794 0.04923,-0.113198 0.02143,-0.167206 0.06922,-0.07504 -0.07088,-0.131191 -0.121123,-0.197736 -0.03521,-0.05559 -0.10176,-0.16645 -0.150206,-0.221089 -0.05668,-0.104905 -0.08274,-0.06353 -0.123268,-0.09826 -0.05481,-0.04699 -0.08128,-0.09347 -0.139479,-0.157771 0.08226,0.05293 0.158765,0.129459 0.237204,0.177157 0.07166,0.07216 0.101133,0.09521 0.173148,0.136398 0.03922,0.05573 0.172145,0.09591 0.254518,0.139129 0.07186,0.03716 0.196717,0.06619 0.264881,0.09896 0.107798,0.01875 0.01205,0.06757 0.06273,0.09014 -0.0018,0.0586 0.07109,0.0893 0.155204,0.120845 -0.01037,0.04931 0.210773,0.05849 0.299259,0.08363 0.07466,0.0067 0.06301,0.116945 0.113475,0.128257 0.0252,0.103688 0.09159,0.02325 0.153991,0.03159 0.03148,0.0061 0.10581,0.01385 0.17159,0.01488 0.03073,-1.2e-5 0.04641,-0.03294 0.1064,-0.04012 -0.009,-0.03968 0.200035,-0.02412 0.265039,-0.04445 0.076,-0.0065 -0.0215,-0.0068 -0.0024,-0.01401 -0.0093,-0.0134 0.09491,-0.02957 0.140423,-0.05614 0.02467,-0.0041 0.01398,-0.05501 0.04135,-0.07528 -0.01693,-0.0391 0.05032,-0.103796 0.07552,-0.126923 0.0063,-0.07069 0.01393,-0.01024 0.02365,-0.01992 0.01272,-0.01024 -0.126771,-0.08797 -0.109413,-0.107967 -0.138106,-0.07938 0.03177,1.85e-4 0.05479,-0.03173 0.0035,0.03059 -0.01566,-0.04544 0.0037,-0.07735 -0.0406,-0.01267 -0.03927,-0.10282 -0.02378,-0.132257 -0.06295,-0.06417 0.0059,-0.03049 0.01491,-0.04897 -0.0016,-0.01725 -0.03903,-0.03343 -0.02852,-0.05713 -0.04761,-0.01752 0.104966,-0.06301 0.117489,-0.0945 0.08434,-0.01648 -0.0057,-0.0585 -1.6e-5,-0.07365 -0.01061,-0.04666 0.06048,-0.05425 0.06686,-0.07264 0.05261,-0.03361 0.100049,-0.02741 0.105183,-0.04335 0.09531,-0.01449 0.06067,-0.03606 0.06612,-0.05501 0.05542,-0.02116 0.05532,-0.06744 0.06093,-0.09039 0.04725,-0.04042 4.36e-4,-0.02539 0.0043,-0.04404 -0.0017,-0.02029 0.01121,-0.06846 0.01591,-0.100723 0.003,-0.0326 0.0096,-0.07916 0.01244,-0.107593 0.0043,-0.04625 -0.009,0.02341 -0.0076,-4.16e-4 -0.01012,0.01831 0.06148,-0.09818 0.05997,-0.151359 0.05682,-0.02777 -0.0014,-0.0533 -0.0048,-0.08889 -0.0019,-0.02088 -0.0084,-0.08465 -0.01483,-0.123389 -0.0048,-0.03827 -0.01169,-0.06898 -0.01851,-0.100048 -0.0074,-0.03781 -0.01048,-0.0623 -0.0191,-0.09324 -0.0051,-0.03321 -0.08113,-0.199984 -0.0923,-0.232803 -0.06153,-0.133097 0.0064,0.0157 0.0064,0.0157 -0.002,-0.0092 0.07527,-0.05666 0.06631,-0.0799 0.07545,-0.05183 -0.127368,-0.08108 -0.149445,-0.119464 -0.100397,-0.01298 -0.125698,-0.05912 -0.135452,-0.07515 -0.109763,-0.03152 0.0036,-0.02349 2.01e-4,-0.02924 -0.0058,-0.03948 -0.02611,-0.0525 -0.03994,-0.07614 -0.01145,-0.0278 0.0096,-0.05725 -0.0057,-0.08099 0.02166,-0.03411 -0.062,-0.04786 -0.09067,-0.07274 -0.03683,-0.0065 -0.0718,-0.08756 -0.09237,-0.104652 -0.04227,-0.0612 -0.01714,-0.05788 -0.02432,-0.06062 -0.02068,-0.008 -0.07205,-0.03317 -0.111377,-0.05345 -0.04769,-0.02459 -0.07176,-0.09371 -0.120558,-0.117874 -0.02538,-0.06929 -0.07609,0.05768 -0.126663,0.03376 -0.04572,0.07369 -0.198354,-0.05179 -0.269077,-0.08409 -0.09447,-0.0027 -0.113282,0.0201 -0.14911,0.0039 -0.0872,0.03214 -0.119429,-0.06889 -0.1647,-0.08939 -0.06729,-0.04533 -0.03805,-0.05401 -0.07646,-0.07136 -0.01892,-0.04532 -0.116403,-0.04438 -0.173825,-0.06999 -0.05024,-0.01435 -0.0807,-0.08592 -0.12983,-0.107653 -0.02937,-0.06295 -0.08196,-0.02576 -0.129336,-0.0462 -0.03899,-0.0064 -0.147126,-0.07799 -0.199021,-0.0999 -0.07112,-0.0452 -0.05994,-0.04793 -0.0893,-0.06012 -0.04186,-0.04011 -0.06978,-0.03361 -0.109871,-0.04966 -0.03385,-0.01833 -0.14625,-0.03257 -0.190713,-0.04956 -0.07866,-0.0055 -0.04157,-0.0064 -0.06554,-0.01549 -0.03459,-0.0036 0.0031,0.04879 -0.03584,0.03408 0.01498,0.05335 -0.201101,-0.08091 -0.265783,-0.10852 -0.07083,-0.03034 -0.0253,0.01085 -0.03578,0.0064 -0.03523,0.0065 -0.157545,-0.04756 -0.184296,-0.0606 -0.09665,-0.02027 -0.0145,0.0401 -0.0145,0.0401 -0.03936,0.02797 -0.180265,-0.03433 -0.196124,-0.04629 -0.218497,-0.0726 0.197221,-0.108545 0.197221,-0.108545 0.117597,-8.6e-5 -0.06581,-0.002 -0.100651,-0.002 -0.01738,-0.002 -0.03693,0.0036 -0.03928,0.0039 -0.0076,5.87e-4 -0.0054,-0.01444 -0.0054,-0.01444"
       id="path6"
       sodipodi:nodetypes="csccsc" /><path
       style="fill:none;fill-opacity:1;stroke:#000000;stroke-width:1.59445;stroke-linecap:round;stroke-linejoin:round;stroke-dasharray:none;stroke-opacity:1"
       d="m 10.078744,22.33444 -0.091696,0.02155 -0.056864,0.09303 -0.022635,0.0072 -0.079209,0.06628 -0.019465,0.06836 -0.010727,0.07611 -0.058792,0.0086 -0.1164396,0.1111 -0.00386,0.03265 -0.028613,0.07522 -0.025033,0.04963 -0.014873,0.06029 0.027866,-0.02301 -0.00856,0.0992 -0.06735,0.116644 -0.015958,0.05819 0.015572,0.06229 0.00591,0.06793 -0.095046,0.067 0.00374,-0.05027 -0.013005,0.165216 -0.010486,0.06295 -0.057382,0.08876 -0.00928,0.01975 -0.013571,0.06688 -0.02196,0.04805 -0.068193,0.0617 -0.00494,0.03401 0.00844,0.103845 -0.031505,0.06831 -0.00699,-0.0049 -0.029529,0.159294 -0.068073,0.05387 -0.04592,0.08017 -0.07716,0.05402 0.0094,0.03258 0.019887,0.116053 0.01609,-0.06176 0.070676,0.165685 -0.022189,0.03915 -0.062324,0.03927 -0.047162,0.127069 0.017331,0.04022 -0.024599,0.06223 0.00916,-0.0086 0.018332,0.101711 0.046246,0.02016 0.00362,0.06361 9.076e-4,0.0094 -0.00844,0.11838 0.022671,0.113305 0.00337,0.03126 0.10047,0.02114 0.08068,-0.119646 0.083922,0.01193 0.024238,0.03257 0.1199951,0.01205 0.083452,0.02394 0.020935,0.002 0.026443,0.02371 0.090358,0.01024 0.083006,-0.02532 -0.040123,0.02568 0.1476678,0.03359 0.057563,0.02521 0.1156561,0.03263 0.05137,0.02515 -0.0286,-0.06917 0.09226,0.02979 0.01881,-0.02295 0.163267,0.04714 0.09659,0.03484 -0.02856,-0.05495 -0.01472,-0.01808 -0.08657,-0.0088 -0.101012,-0.02053 -0.05269,-0.104893 -0.01546,-0.0013 -0.1560762,0.0052 -0.00181,-0.03342 -0.050271,-0.03169 -0.110546,0.02529 -0.050066,-0.02302 -0.029119,-0.0221 -0.1155237,-0.0076 -0.052163,-0.0033 -0.07287,-3.91e-4 -0.074473,-0.06983 -0.048198,-0.04045 -0.051814,0.02683 -0.083729,-0.09521 -0.071496,-0.01358 -0.054514,1.7e-4 -0.1251151,0.03339 -0.01421,-0.01478 -0.1410618,0.03164 -0.024238,-0.0089 -0.015982,-0.112185 -0.057274,-0.03771 -0.1592165,0.01754 -0.00627,0.0225 -0.084826,0.01371 -0.063017,0.01222 2.948e-4,0.01443 -0.081257,0.006 -0.1014969,0.0202 -0.072188,0.02004 0.00236,0.0012 -0.119137,0.01501 -0.022471,0.0212 -0.036608,0.01037 -0.090757,-0.01133 -0.1087055,-0.02576 -0.1496287,0.0243 0.046654,0.0075 -0.09855,-0.06648 -0.04802,-0.0049 -0.068407,0.0012 -0.092931,-0.03401 -0.057504,0.0058 0.00123,0.01366 -0.097223,-0.0034 0.018279,0.02978 -0.159178,0.02802 0.042239,0.02562 -0.1251962,-0.02779 -0.093676,0.0034"
       id="path7"
       sodipodi:nodetypes="cccc" /><path
       style="fill:none;fill-opacity:1;stroke:#000000;stroke-width:1.59445;stroke-linecap:round;stroke-linejoin:round;stroke-dasharray:none;stroke-opacity:1"
       d="m 14.028387,22.552189 -0.009,0.01805 0.04352,0.117561 0.01145,0.0094 0.05532,0.06446 0.04908,0.06737 0.01532,0.06455 0.04597,0.0037 0.02877,0.106387 0.01587,0.04221 -0.01384,0.06969 0.02321,0.05542 0.0121,0.05568 0.0284,-0.02602 0.0053,0.08331 0.08797,0.115306 0.02535,0.0462 0.0168,0.05595 0.0051,0.0605 -0.0029,0.0626 0.01437,-0.04187 0.06899,0.155787 0.01839,0.05263 0.06635,0.08376 0.0078,0.01181 0.0155,0.06276 0.03512,0.0442 0.01133,0.05615 0.01484,0.02934 -0.0075,0.0997 0.0031,0.06761 0.01771,-0.0082 0.04565,0.153248 -0.03147,0.0487 7.16e-4,0.07281 0.0035,0.04445 -0.01802,0.006 0.104218,0.121526 0.02711,-0.06806 -0.09223,0.169339 -0.01223,0.06927 0.07867,0.04475 0.0072,0.0872 -0.08589,0.02127 0.08908,0.100831 0.02683,-0.04158 0.0957,0.08889 0.01592,0.02135 -0.07,-0.0438 -0.05832,-0.09335 -0.09118,-0.02699 -0.103435,0.02213 -0.03703,0.03171 -0.09702,0.02078 -0.0074,-0.124476 -0.109823,0.03012 0.01478,0.03912 -0.110016,0.03023 -0.06741,0.03711 -0.04804,0.01508 -0.121442,0.03201 -0.0019,-0.0031 -0.06841,-0.01737 -0.04318,0.03615 -0.06937,0.03017 -0.02646,0.03372 -0.07166,0.04798 -0.08305,0.03989 -0.01825,-0.06253 -0.170228,0.03428 0.02227,-0.03587 -0.02838,0.03904 -0.193503,0.06159 v -0.0445 l -0.06508,0.004 -0.05797,0.02018 -0.06581,0.006 -0.04133,-0.08109 -0.138744,0.06935 -0.06211,0.03308 -0.0149,-0.01837 -0.07762,0.02586 -0.06338,0.07998 -0.01701,-0.0066 -0.04479,0.02766 -0.04132,0.0481 -0.05786,0.03856 -0.02077,0.03542 -0.0331,-0.03701 0.05966,-0.04629 -0.0403,0.02196 0.155613,-0.11198 0.05421,-0.0188 0.05427,-0.0057 -0.0018,0.02701 0.08033,-0.02748 0.07841,0.02177 0.08851,-0.01795 0.06447,-0.117512 0.06031,-0.04502 0.01109,0.0077 0.07306,0.01656 0.134581,0.0054 -0.03568,0.01013 0.07153,0.0057 0.09455,-0.0036 -0.02917,0.01383 0.08138,0.0078 0.08285,-0.0092 0.08172,0.0069 0.119537,0.01509 -0.06199,0.01169 0.179459,-0.02071 0.03517,-0.02413 0.0075,0.02115 0.07656,-0.0024 0.103507,-0.07068 0.02524,-0.0089 0.04985,-0.0064 0.07101,-0.04233 0.0571,-0.0031 0.09485,0.0036 0.0086,-0.01598 0.148624,0.01472 -0.06138,0.02077 0.01961,0.02132 0.171804,-0.01401 0.104122,0.0096 -0.04076,0.01193 0.15405,-0.02318 0.0087,-0.003 0.04782,-0.0063 0.05325,0.0028 0.05979,-0.01331 0.05841,-0.02419 0.0552,-0.05461 0.08972,-2.89e-4 0.08281,-0.0054 6.11e-4,-0.02969 0.05551,-0.0064 0.06319,0.01458 0.07659,-0.01584 0.07658,0.03243 0.01868,-0.05814 0.115801,0.04386 0.03872,0.0017 0.048,3.68e-4 0.07348,0.0018 0.04368,-9.72e-4 0.128321,0.01329"
       id="path8"
       sodipodi:nodetypes="cccc" /></g></svg>
