<?xml version="1.0" encoding="UTF-8" standalone="no"?>
<!-- Created with Inkscape (http://www.inkscape.org/) -->

<svg
   width="100"
   height="145.43201"
   viewBox="0 0 26.458333 38.478885"
   version="1.1"
   id="svg1"
   xml:space="preserve"
   inkscape:version="1.4.3 (0d15f75042, 2025-12-25)"
   sodipodi:docname="confused chiken.svg"
   xmlns:inkscape="http://www.inkscape.org/namespaces/inkscape"
   xmlns:sodipodi="http://sodipodi.sourceforge.net/DTD/sodipodi-0.dtd"
   xmlns="http://www.w3.org/2000/svg"
   xmlns:svg="http://www.w3.org/2000/svg"><sodipodi:namedview
     id="namedview1"
     pagecolor="#505050"
     bordercolor="#ffffff"
     borderopacity="1"
     inkscape:showpageshadow="0"
     inkscape:pageopacity="0"
     inkscape:pagecheckerboard="1"
     inkscape:deskcolor="#505050"
     inkscape:document-units="px"
     inkscape:zoom="2.3026627"
     inkscape:cx="16.068354"
     inkscape:cy="69.484775"
     inkscape:window-width="1536"
     inkscape:window-height="795"
     inkscape:window-x="0"
     inkscape:window-y="0"
     inkscape:window-maximized="1"
     inkscape:current-layer="layer1" /><defs
     id="defs1"><inkscape:path-effect
       effect="roughen"
       id="path-effect15"
       is_visible="true"
       lpeversion="1.2"
       global_randomize="1;1"
       displace_x="0.12;103146887"
       displace_y="0.12;1"
       method="size"
       max_segment_size="0.0544932"
       segments="2"
       handles="along"
       shift_nodes="true"
       fixed_displacement="false"
       spray_tool_friendly="false" /><inkscape:path-effect
       effect="roughen"
       id="path-effect14"
       is_visible="true"
       lpeversion="1.2"
       global_randomize="1;1"
       displace_x="0.12;293555728"
       displace_y="0.12;1"
       method="size"
       max_segment_size="0.0508798"
       segments="2"
       handles="along"
       shift_nodes="true"
       fixed_displacement="false"
       spray_tool_friendly="false" /><inkscape:path-effect
       effect="roughen"
       id="path-effect13"
       is_visible="true"
       lpeversion="1.2"
       global_randomize="1.4;1"
       displace_x="0.13;1"
       displace_y="0.13;1"
       method="size"
       max_segment_size="1"
       segments="2"
       handles="along"
       shift_nodes="true"
       fixed_displacement="false"
       spray_tool_friendly="false" /><inkscape:path-effect
       effect="roughen"
       id="path-effect11"
       is_visible="true"
       lpeversion="1.2"
       global_randomize="0.1;1"
       displace_x="0.11;1"
       displace_y="0.11;1"
       method="size"
       max_segment_size="4"
       segments="5"
       handles="along"
       shift_nodes="true"
       fixed_displacement="false"
       spray_tool_friendly="false" /><inkscape:path-effect
       effect="roughen"
       id="path-effect10"
       is_visible="true"
       lpeversion="1.2"
       global_randomize="1;1"
       displace_x="0.16;1595247673"
       displace_y="0.13;850744028"
       method="size"
       max_segment_size="0.102814"
       segments="2"
       handles="along"
       shift_nodes="true"
       fixed_displacement="false"
       spray_tool_friendly="false" /><inkscape:path-effect
       effect="roughen"
       id="path-effect9"
       is_visible="true"
       lpeversion="1.2"
       global_randomize="1.4;1"
       displace_x="0.13;1"
       displace_y="0.13;1"
       method="size"
       max_segment_size="1"
       segments="2"
       handles="along"
       shift_nodes="true"
       fixed_displacement="false"
       spray_tool_friendly="false" /><inkscape:path-effect
       effect="roughen"
       id="path-effect8"
       is_visible="true"
       lpeversion="1.2"
       global_randomize="1;1005828747"
       displace_x="0.21;1"
       displace_y="0.21;1"
       method="size"
       max_segment_size="0.323082"
       segments="2"
       handles="along"
       shift_nodes="true"
       fixed_displacement="false"
       spray_tool_friendly="false" /></defs><g
     inkscape:label="Layer 1"
     inkscape:groupmode="layer"
     id="layer1"><path
       style="fill:none;stroke:#262626;stroke-width:1.7626;stroke-dasharray:none;stroke-opacity:1"
       d="m 2.4302087,19.846663 c -0.010568,0.270067 -0.027192,0.382634 -0.034781,0.642449 -0.041917,0.245767 0.013644,0.657774 0.00903,0.914119 0.023955,0.334561 -0.078083,0.384502 -0.07973,0.583062 -0.073782,0.225238 -0.021143,0.450303 -0.019935,0.687956 -0.017413,0.204448 -0.00179,0.478538 0.00296,0.712732 -0.00149,0.217649 0.032965,0.493813 0.040696,0.707751 0.029315,0.245546 -0.00966,0.367521 -3.27e-5,0.553637 -0.014149,0.193115 0.1348942,0.464481 0.1490654,0.664299 0.1238803,0.224108 0.031467,0.346794 0.046193,0.513173 0.021912,0.187164 0.088272,0.362981 0.1074928,0.538231 0.073385,0.174124 0.061018,0.375297 0.082997,0.54137 0.042067,0.187364 0.068067,0.35061 0.091288,0.499854 0.047893,0.185938 0.01457,0.119726 0.039382,0.25756 0.00626,0.04426 -0.021706,0.304694 0.021682,0.500479 -0.058381,0.08019 0.089923,0.461212 0.1370796,0.636997 0.032607,0.198596 0.06232,0.215918 0.093117,0.318577 0.042337,0.132329 0.096346,0.268229 0.1381005,0.389792 0.057638,0.131184 0.1024022,0.253175 0.1453044,0.363384 0.062435,0.129984 0.236438,0.431977 0.2805882,0.532788 0.1639468,0.248737 -0.032747,-0.105605 -0.02083,-0.07921 0.014722,-0.0018 0.1936461,0.325878 0.2711441,0.46938 0.094319,0.103361 0.098861,0.174077 0.1470336,0.25446 0.059204,0.0953 0.1451415,0.304923 0.2012398,0.388335 0.071172,0.180425 0.066298,0.07051 0.1014006,0.119087 0.062725,0.0603 0.098475,0.161023 0.1670809,0.244114 0.038203,0.0712 0.1340714,0.169703 0.2097886,0.249253 0.0597,0.07435 0.096874,0.09068 0.1715498,0.159188 0.044172,0.02819 0.088939,0.03332 0.1859165,0.1086 0.021298,-0.03838 0.226513,0.153088 0.3536892,0.234084 0.075212,0.0323 0.1749765,0.106677 0.2684957,0.1586 0.082323,0.04441 0.075699,0.0096 0.1671566,0.05429 0.023788,-0.02443 0.2602272,0.19329 0.3938217,0.248334 0.088783,0.10849 0.1932567,0.08731 0.2792317,0.11882 0.1127818,0.0522 0.2145301,0.11794 0.3042407,0.14704 0.1228025,0.08276 0.3071348,0.221505 0.3926131,0.245971 0.187238,0.182455 0.0568,-0.06893 0.1047647,-0.05641 0.088917,-0.06234 0.3155954,0.104444 0.4468744,0.131985 0.1496661,0.05999 0.1240349,-0.134474 0.2162069,-0.118275 0.083006,-0.146261 0.2977843,0.06277 0.4440044,0.08542 0.125322,0.0316 0.2385808,0.146561 0.3537385,0.16241 0.125428,0.128079 0.222789,-0.0084 0.338232,0.0034 0.123283,-0.02435 0.2702311,0.04288 0.4011661,0.05327 0.137582,0.02797 0.224944,-0.005 0.35165,0.0022 0.1154495,-0.01518 0.2743595,0.0032 0.4190105,0.0096 0.130066,-0.0057 0.111986,-0.06511 0.254255,-0.05921 0.01485,-0.06992 0.320172,0.01985 0.531192,0.03751 0.09367,0.0099 0.258879,-0.06789 0.429152,-0.05422 0.09793,-0.08242 0.248327,-0.05958 0.422317,-0.02562 0.16108,0.03144 0.292531,0.152634 0.421466,0.154602 0.215351,0.0033 0.29814,-0.10608 0.507664,-0.112211 0.121019,-0.115169 0.503415,-0.01213 0.74604,-0.03194 0.206136,-0.0073 0.438936,-0.01684 0.633476,-0.04118 0.224926,-0.0031 0.371998,0.04237 0.550353,0.01266 0.202221,0.05934 0.248566,-0.114517 0.437023,-0.154678 0.08885,-0.09393 0.429488,-0.103581 0.647452,-0.162018 0.165393,-0.05123 0.400846,-0.09878 0.579098,-0.154887 0.197634,-0.04758 0.317466,-0.115729 0.474559,-0.171912 0.162722,-0.07071 0.379943,-0.01094 0.541194,-0.07602 0.210349,0.0461 0.333484,-0.11986 0.488996,-0.19014 0.16835,-0.05687 0.462134,-0.138933 0.610897,-0.213485 0.26567,-0.05176 0.205605,-0.112464 0.311827,-0.169749 0.137586,-0.082 0.233721,-0.206455 0.376592,-0.291309 0.08666,-0.131211 0.322516,-0.101249 0.464261,-0.193307 0.168009,-0.01319 0.275532,-0.16649 0.408042,-0.260433 0.130704,-0.07608 0.301501,-0.168324 0.425296,-0.263613 0.159408,-0.07068 0.250903,-0.111464 0.360321,-0.202328 0.146214,-0.03491 0.397022,-0.177382 0.51244,-0.281973 0.240894,-0.04968 0.166389,-0.16184 0.24753,-0.240878 0.100862,-0.106655 0.20677,-0.184466 0.303032,-0.286991 0.102499,-0.08739 0.190126,-0.219153 0.281796,-0.326193 0.08333,-0.109529 0.272652,-0.04916 0.353928,-0.152562 0.197627,0.03264 0.330958,-0.10828 0.417389,-0.234994 0.226839,0.01647 0.01681,-0.258108 0.08924,-0.387488 -0.07665,-0.131451 0.116648,-0.270473 0.179721,-0.399328 0.02749,-0.115223 0.144556,-0.155869 0.189762,-0.256989 0.0955,-0.06041 0.05438,-0.259856 0.09615,-0.367386 -0.0057,-0.128987 0.02674,-0.28055 0.05719,-0.364349 -0.01697,-0.169165 0.06697,-0.101327 0.08799,-0.158499 0.05583,-0.07004 0.129786,-0.10901 0.158279,-0.189989 0.100099,-0.03075 -0.03614,-0.275734 -0.0139,-0.365829 -0.08301,-0.142581 0.0073,-0.132969 0.02299,-0.180572 3.91e-4,-0.09284 0.145558,-0.03549 0.170086,-0.0869 0.131543,0.01936 -0.0138,-0.202396 -0.01858,-0.28442 -0.0033,-0.05671 -0.0054,-0.09457 1.58e-4,-0.135511 0.0072,-0.05213 0.0141,-0.113598 0.02211,-0.169449 0.0067,-0.061 0.05828,-0.06701 0.06603,-0.123736 0.05234,-0.02884 0.05506,-0.04931 0.0635,-0.124429 0.04634,0.0025 -0.03194,-0.286386 -0.02581,-0.38436 -0.04893,-0.133551 -0.04228,-0.140859 -0.04083,-0.175648 -0.04438,-0.116568 0.01851,0.05194 0.01916,0.0066 0.01695,0.02697 -0.160727,-0.281773 -0.169478,-0.4011 -0.163248,-0.09912 -0.05928,-0.102609 -0.06476,-0.151939 -0.05849,-0.07009 -0.01694,-0.132943 -0.0279,-0.199041 -0.01213,-0.07061 0.08237,-0.01292 0.06633,-0.0822 0.08082,0.01039 -0.09016,-0.270319 -0.132691,-0.386613 -0.05055,-0.09672 0.04695,-0.05063 0.02204,-0.107308 0.04714,-0.03571 -0.104201,-0.206722 -0.162228,-0.305225 -0.05039,-0.07703 -0.274764,-0.209062 -0.321895,-0.276047 -0.210756,-0.101404 -0.12407,-0.11377 -0.144057,-0.140465 -0.121617,-0.108059 0.07498,-0.02125 0.0356,-0.06847 0.05714,-0.03522 -0.118794,-0.103316 -0.233344,-0.20956 -0.03019,0.01691 -0.181925,-0.186621 -0.309555,-0.281993 -0.0609,-0.06718 -0.176663,-0.09343 -0.291614,-0.16619 -0.08792,-0.01991 -0.218823,-0.144377 -0.354233,-0.217353 -0.09957,-0.06318 -0.251825,-0.132663 -0.393017,-0.198152 -0.128986,-0.06135 -0.131611,-0.01213 -0.282458,-0.07255 -0.04936,0.03389 -0.320713,-0.0488 -0.548157,-0.125615 -0.10975,0.04161 -0.304142,-0.0054 -0.527318,-0.07229 -0.115715,0.06283 -0.380051,0.06883 -0.627338,6.89e-4 -0.161708,0.137607 -0.482641,-0.103615 -0.744163,-0.175955 -0.217064,-0.02913 -0.443375,-0.110693 -0.678546,-0.17361 -0.232778,-0.05043 -0.490196,-0.129491 -0.740453,-0.19135 -0.262539,-0.065 -0.511565,-0.182861 -0.774599,-0.238903 -0.277531,-0.119126 -0.496804,-0.04925 -0.782149,-0.08802 -0.258994,0.01411 -0.642127,-0.0637 -0.985262,-0.100331 -0.334749,-0.03573 -0.709185,-0.211472 -1.041193,-0.216605 -0.159822,0.0064 -0.327176,-0.02179 -0.476469,-0.01186 -0.158347,-0.0281 -0.28784,0.01956 -0.422341,0.02812 -0.138312,0.0078 -0.272087,-0.01953 -0.396145,-0.01805 -0.126587,-0.03337 -0.236962,-0.0011 -0.345531,-0.01083 -0.109651,-0.0098 -0.193433,-0.01017 -0.288998,-0.03783 -0.08509,-0.01332 -0.223753,-0.100077 -0.312158,-0.161292 -0.09884,-0.07859 -0.123069,-0.0756 -0.182911,-0.152741 -0.05175,-0.05321 -0.121112,-0.204406 -0.177146,-0.356259 -0.04901,-0.132822 -0.01785,-0.283948 -0.04686,-0.453728 -0.01173,-0.06828 -0.02209,-0.144542 -0.03053,-0.227764 -0.0091,-0.08329 0.06855,-0.08328 0.06229,-0.179767 0.07603,-0.03368 0.0083,-0.246061 0.0013,-0.389373 0.01783,-0.100439 -0.02182,-0.260284 -0.02794,-0.383084 -0.01625,-0.13893 -0.0134,-0.230032 -0.02009,-0.346112 -0.0092,-0.132392 -0.02686,-0.254219 -0.03633,-0.385273 -0.02121,-0.134499 -0.0018,-0.269595 -0.01459,-0.407911 0.0059,-0.139927 -0.03404,-0.303657 -0.0515,-0.447075 -0.02257,-0.157163 -0.04494,-0.326127 -0.06627,-0.46339 -0.02941,-0.180642 -0.129333,-0.275372 -0.153834,-0.402329 -0.113145,-0.15326 -0.02649,-0.245822 -0.05712,-0.376477 -0.0085,-0.133053 -0.08299,-0.301417 -0.126939,-0.449189 -0.04971,-0.139854 -0.119406,-0.357871 -0.169551,-0.492795 -0.07287,-0.189739 -0.09269,-0.231497 -0.139175,-0.33574 -0.06522,-0.142067 -0.05809,-0.05835 -0.124189,-0.176327 -0.03947,0.01447 -0.279734,-0.428248 -0.4065415,-0.592054 -0.133264,-0.163098 -0.11878,-0.111873 -0.189576,-0.188702 -0.091213,-0.06164 -0.2329,-0.222833 -0.353648,-0.323162 -0.1221991,-0.08983 -0.073433,-0.12272 -0.1921661,-0.198259 -0.01101,-0.05133 -0.335727,-0.17143 -0.5356771,-0.251328 -0.1450409,-0.03895 -0.3055799,-0.117118 -0.4684453,-0.163314 -0.1674273,-0.0514 -0.2936273,-0.06388 -0.4672515,-0.09038 -0.185779,-0.02835 -0.4268772,-0.08079 -0.6224247,-0.08191 -0.1930256,-0.0011 -0.3533228,0.01386 -0.5303546,0.02874 -0.1605748,0.0234 -0.352304,0.04742 -0.5208368,0.07934 -0.1539553,0.03879 -0.4872919,-0.06349 -0.635884,-0.01823 -0.2787894,-0.09907 -0.2142766,0.07866 -0.316705,0.120176 -0.1381054,0.06437 -0.3440647,0.06893 -0.4701501,0.139819 -0.189226,0.01467 -0.2252067,0.144689 -0.3317221,0.223494 -0.1102968,0.09112 -0.2184618,0.226708 -0.3211304,0.326394 -0.084642,0.136908 -0.1891968,0.170767 -0.2712736,0.270739 -0.097208,0.09288 -0.1751048,0.138633 -0.2516384,0.256879 -0.091246,0.05204 -0.2331479,0.270603 -0.3058025,0.418238 -0.1235604,0.110718 -0.1505587,0.217411 -0.1991786,0.341768 -0.091262,0.110646 0.00616,0.315926 -0.035526,0.454751 0.066465,0.173801 -0.052313,0.286129 -0.084043,0.416034 -0.010369,0.156958 -0.039818,0.287601 -0.065534,0.415136 -0.00649,0.161247 0.094043,0.335157 0.072682,0.461662 0.1226772,0.201373 -0.049526,0.176904 -0.068675,0.29392 -0.035443,0.09663 -0.076941,0.294019 -0.1003891,0.449026 -0.048293,0.123735 -0.025023,0.325303 -0.04354,0.465408 -1.255e-4,0.166809 0.044898,0.352875 0.030018,0.472926 0.06371,0.213479 0.113328,0.372051 0.098284,0.470493 0.1256111,0.264197 0.029516,0.294304 0.0058,0.378671 0.030951,0.227186 -0.075553,0.231207 -0.1250449,0.322289 -0.04611,0.107498 -0.062979,0.221013 -0.1071137,0.317298 -0.077771,0.07687 -0.1385319,0.314938 -0.1516028,0.410609 z"
       id="path1"
       sodipodi:nodetypes="csscssccccccccccccccccccccccccccccccccccccccccccsccccccccccccccccccccccccccccccccccccccccccccccccccccccccccccccccccccccccccccccccccccccccccccccccccsscccccccccccccccccccccccc"
       inkscape:label="path1" /><path
       style="fill:none;fill-opacity:1;stroke:#262626;stroke-width:1.7626;stroke-dasharray:none;stroke-opacity:1"
       d="M 2.4837135,17.944241 C 1.9168727,17.589022 0.88129997,17.02566 0.88129997,16.866945 c 0,-0.158716 1.50654273,-0.858072 1.82397363,-0.827841"
       id="path2"
       sodipodi:nodetypes="csc" /><path
       style="fill:#262626;fill-opacity:1;stroke:none;stroke-width:1.7626;stroke-dasharray:none;stroke-opacity:1"
       d="M 6.2358672,16.569275 C 6.1832492,17.606597 6.555333,17.666731 6.7770794,17.678006 6.9988263,17.68928 7.9309143,16.9376 7.6415162,16.137058 7.3521178,15.336517 6.6305014,15.742425 6.4839228,15.937863 6.3373443,16.1333 6.2662736,16.237798 6.2358672,16.569275 Z"
       id="path3"
       sodipodi:nodetypes="csssc" /><path
       style="fill:#262626;fill-opacity:1;stroke:none;stroke-width:1.7626;stroke-dasharray:none;stroke-opacity:1"
       d="M 4.2909472,12.899369 C 4.0267403,9.6123342 4.3531136,9.5268558 5.2622953,9.4880019 6.1714776,9.4491481 6.5444754,9.6278758 6.598871,10.094122 6.9252439,9.5035435 7.329325,9.0839219 8.1763408,9.2781912 9.0233564,9.4724604 9.6061655,10.17183 9.2253974,10.708012 9.6916445,10.241766 10.43764,9.8376865 10.966053,10.498202 c 0.528415,0.660515 0.419624,1.849443 -0.458476,2.253522"
       id="path4" /><path
       style="fill:none;fill-opacity:1;stroke:#262626;stroke-width:1.7626;stroke-dasharray:none;stroke-opacity:1"
       d="m 18.571395,21.384537 c 0.421052,-0.935393 0.752509,-1.740113 1.094799,-2.318594 0.293026,-0.638492 0.786639,-0.956816 1.069951,-1.244614 0.398525,-0.234906 0.449805,-0.475839 0.65578,-0.564316 0.21832,-0.160045 0.453652,-0.128095 0.680026,-0.05183 0.206613,0.0696 0.436404,0.222382 0.644467,0.344175 0.258432,0.151276 0.393246,0.488439 0.384324,0.886544 0.02879,0.417798 -0.171819,0.800659 -0.34225,1.275229 -0.218839,0.413403 -0.31996,1.016278 -0.530379,1.431221 -0.203244,0.400793 -0.47118,0.691818 -0.616987,0.834524 0.443314,-0.567701 0.97793,-0.885658 1.4488,-1.077997 0.499963,-0.167468 0.894942,-0.239294 1.224182,-0.228046 0.342289,0.01173 0.579271,0.09122 0.634961,0.159767 0.182793,0.226916 0.324238,0.382583 0.466507,0.710865 0.104234,0.21616 0.215148,0.687219 0.180952,1.088822 -0.0717,0.259806 -0.08389,0.704099 -0.356046,1.009768 -0.282135,0.316887 -0.7893,0.579874 -1.469266,0.718716"
       id="path5"
       sodipodi:nodetypes="csccc" /><path
       style="fill:none;fill-opacity:1;stroke:#262626;stroke-width:1.7626;stroke-linecap:round;stroke-linejoin:round;stroke-dasharray:none;stroke-opacity:1"
       d="m 8.4504157,24.369598 c -0.042116,0.07506 -0.089228,0.07737 -0.1283464,0.15088 -0.05564,0.02034 -0.042942,0.168673 -0.087403,0.258609 0.011592,0.06875 -0.159701,0.257441 -0.1971203,0.338925 -0.095082,0.126294 -0.053441,0.04737 -0.068736,0.08184 -0.054164,0.05082 -0.072563,0.143677 -0.1018295,0.214979 -0.036993,0.06587 -0.096884,0.170245 -0.1217872,0.23607 -0.06224,0.08722 0.02156,-0.03439 0.00394,0.01555 0.018903,-0.0214 -0.099784,0.219069 -0.1320451,0.328934 -0.04224,0.05741 -0.033393,0.124789 -0.049646,0.187855 -0.013455,0.06084 -0.1361322,0.13803 -0.149991,0.200915 -0.1157037,0.06162 -4.193e-4,0.102929 -0.00995,0.153541 0.00965,0.06258 -0.036615,0.125921 -0.045644,0.186791 -0.023167,0.06037 -0.017252,0.148649 -0.023473,0.205736 -0.00626,0.07939 -0.079037,0.04717 -0.082538,0.09322 -0.075169,0.02674 0.07146,0.144878 0.069948,0.215669 0.079316,0.05591 -0.092758,0.15778 -0.091566,0.212438 -0.090715,0.08568 -0.017093,0.07203 -0.014989,0.110639 -0.016326,0.05081 0.00918,0.130638 0.014955,0.186133 0.00644,0.0638 0.091255,0.0881 0.097926,0.133556 0.087586,0.0429 -0.00141,0.102112 0.0074,0.148291 -0.00728,0.05501 0.025438,0.09465 0.036312,0.140512 0.017474,0.04734 0.086134,0.104145 0.098961,0.149169 0.073226,0.04726 0.055222,0.07185 0.066269,0.106146 0.047235,0.04101 0.019611,0.06989 0.033432,0.107827 0.010192,0.03726 0.032789,0.105416 0.050827,0.148832 0.014165,0.05237 -0.0045,0.142103 0.011511,0.17699 -0.023645,0.09535 0.044603,0.07341 0.056367,0.09736 0.036261,0.05402 0.032246,0.08593 0.047391,0.114409 0.019232,0.05815 0.00677,0.0383 0.023732,0.06778 0.00125,0.02525 0.029879,0.150647 0.059131,0.195703 -0.00832,0.08385 0.041071,0.01401 0.058927,0.03966 0.036538,0.0048 0.056751,0.125708 0.088776,0.167007 0.015616,0.06604 0.079942,0.04825 0.1007263,0.07335 0.061316,0.0233 -0.0068,0.05705 0.015815,0.08261 -0.015535,0.04466 0.036694,0.08041 0.073879,0.118299 7.661e-4,0.03796 0.04602,0.168908 0.083459,0.203517 -0.00653,0.115235 0.017854,0.04362 0.038213,0.06142 0.014522,0.03921 0.096956,0.06059 0.1350657,0.09074 0.052255,0.02069 0.00946,0.07422 0.039664,0.0964 -0.0072,0.05951 0.056693,0.06259 0.100807,0.09163 0.014656,0.0301 0.052349,-0.02378 0.097756,0.003 0.021771,-0.04627 0.1761202,0.07585 0.2365162,0.107329 0.07762,0.01864 -0.08796,0.0036 -0.06879,0.01332 -0.05196,0.02121 0.160034,0.05752 0.237463,0.09097 0.04578,4.47e-4 0.03775,-0.02155 0.07417,-0.0067 0.01816,-0.03091 0.07752,0.09048 0.131118,0.110652 0.01186,0.0635 0.0469,0.03567 0.08751,0.04989 0.01319,0.02232 0.08947,0.02016 0.136966,0.03537 0.035,6.56e-4 0.07634,0.102774 0.116155,0.114716 0.02858,0.08725 0.06179,-0.02823 0.09322,-0.01957 0.04036,-0.03525 0.07213,0.03509 0.113492,0.04561 0.0287,0.02274 0.09133,0.02054 0.130437,0.0297 0.04529,0.0085 0.05146,0.0077 0.083411,0.01473 0.02796,0.0019 0.08069,0.02538 0.121086,0.03354 0.03491,0.01513 0.0363,0.0093 0.07135,0.01582 0.01239,0.004 0.06353,-0.0305 0.109983,-0.0227 0.01658,-0.03964 0.08788,0.0034 0.134195,0.01133 0.03114,-0.006 0.212331,0.003 0.247996,0.0092 0.140816,-0.0092 -6.85e-4,-0.0052 -6.85e-4,-0.0052 0.02083,-0.0014 -0.05866,0.02218 -0.03811,0.02601 -0.03667,0.0267 0.137379,0.0059 0.199478,0.01751 0.03888,-0.01266 0.09998,0.0266 0.128628,0.03237 0.05752,0.01861 0.12223,0.01411 0.137769,0.01727 0.09011,0.0076 0.07453,0.07809 0.07453,0.07809 0.07453,0.07809 0.137926,0.01599 0.137926,0.01599 0.137928,0.01599 0.02,0.0287 0.02,0.0287 0.02,0.0287 0.04778,-0.01928 0.04778,-0.01928 0.200376,0.01173 0.01968,0.06972 0.02622,0.05504 0.0021,-0.0046 0.05317,-0.0722 0.08695,-0.06898 0.04884,0.0046 0.10105,-0.02017 0.147893,-0.01659 0.05025,-0.02545 0.08414,0.0028 0.128094,0.0052 0.04024,-0.0011 -0.01429,-0.0031 0.0304,-0.0018 -0.02713,-0.0053 0.156678,-0.01394 0.230097,-0.01618 0.03964,-0.01773 0.06425,-0.04944 0.101912,-0.05211 0.02637,-0.04916 0.06302,-0.0046 0.101172,-0.0092 0.02307,-0.0028 0.04941,-0.01199 0.08673,-0.01865 0.01145,-0.0088 0.08156,0.02919 0.119126,0.01944 0.0344,0.03652 0.101647,-0.0093 0.131718,-0.01984 0.05536,0.0024 0.01186,0.0028 0.02827,-0.004 0.01083,0.0015 0.06907,-0.04797 0.09886,-0.06457 0.02326,-0.02973 0.02896,0.0046 0.04611,-0.0066 0.01836,0.0088 0.182729,-0.02387 0.205591,-0.04367 0.13309,0.01146 -0.0011,-0.03966 -0.0011,-0.03966 0.0091,-0.04846 -0.04296,-0.03081 -0.03348,-0.04014 -0.03746,-0.03804 0.05445,-0.05054 0.0756,-0.07964 0.02057,-0.01889 0.01226,-0.04168 0.02499,-0.06423 -0.002,-0.02538 0.0048,-0.05004 0.01648,-0.07854 -0.01083,-0.02658 0.04523,0.0196 0.05458,-0.01279 0.0369,0.02957 0.02382,-0.09206 0.03117,-0.151716 0.0031,-0.02488 -0.100199,-0.03865 -0.09841,-0.08038 -0.105992,-0.0097 0.005,0.02738 0.005,-0.02726 0.0018,0.05329 -4.1e-5,-0.128 -0.0048,-0.217938 -7.32e-4,-0.02225 -0.01864,-0.09134 -0.02323,-0.147608 -0.01642,-0.03635 0.08718,-0.09173 0.08167,-0.145648 0.09027,-0.04582 0.01998,-0.03515 0.01039,-0.09538 0.02099,0.0014 0.03343,-0.161204 0.01354,-0.248476 0.04822,-0.06239 -0.09274,-0.145086 -0.112292,-0.211136 -0.07624,-0.06866 -0.02549,-0.06878 -0.04123,-0.120353 -0.01793,-0.04172 0.04368,-0.07802 0.01903,-0.156391 0.06077,-0.02021 -0.02745,-0.19552 -0.07102,-0.301303 0.0098,-0.07554 -0.153559,-0.132103 -0.193105,-0.20938 -0.121751,-0.0513 -0.04708,-0.100597 -0.06448,-0.175727 -0.02108,-0.09101 -0.03563,-0.214006 -0.06434,-0.288341 0.04084,0.04537 0.100243,0.109916 0.141908,0.153845 0.05358,0.05726 0.0166,0.0956 0.0526,0.131904 -0.0064,0.06995 0.056,0.08473 0.105041,0.131384 0.01199,0.03876 0.164588,0.110358 0.218332,0.158327 0.08983,0.03902 0.159877,0.05609 0.19149,0.0833 0.122325,0.02227 0.04909,0.03816 0.07452,0.05944 0.04369,0.03272 0.02932,0.09274 0.07491,0.129026 -0.0067,0.06125 0.02376,0.107241 0.07879,0.148406 -0.02462,0.06717 0.0736,0.114503 0.13513,0.15731 0.0052,0.06216 0.09896,0.128452 0.153238,0.163784 0.03166,0.08105 0.07179,0.08957 0.112837,0.114902 0.03429,0.06438 0.07998,0.0314 0.124523,0.05725 0.04435,0.0083 0.08935,0.0439 0.142704,0.07263 0.03728,0.01253 0.111373,0.04473 0.165987,0.07184 0.05044,0.01105 0.09725,0.03226 0.145631,0.05449 0.04895,0.0073 0.09025,0.04215 0.138785,0.06268 0.04159,0.01889 0.07946,0.03211 0.127974,0.05083 0.03438,0.01199 0.0248,-0.01266 0.0768,0.0052 -0.004,-0.02586 0.143536,0.05215 0.218129,0.07349 0.03901,0.01549 0.106776,0.0169 0.153321,0.02841 0.05286,8.22e-4 0.05607,0.05291 0.09582,0.06135 0.02472,0.04415 0.01729,0.04675 0.06536,0.05474 -0.01083,0.03868 0.15026,0.0844 0.217491,0.09061 0.04821,0.0672 0.143035,0.0078 0.178736,0.0096 0.08591,0.0027 0.09421,0.06608 0.109717,0.06648 0.07985,0.06522 -0.02066,-0.02536 -0.004,-0.02534 0.0064,-0.02597 0.189832,0.02966 0.246801,0.02421 0.08301,0.03105 0.02943,9.6e-4 0.04225,-5.89e-4 0.04004,-8.1e-4 0.03835,0.04899 0.07293,0.04214 0.02357,0.04766 0.116609,-0.05233 0.168291,-0.07082 0.03309,-0.03623 0.04854,-0.03474 0.07528,-0.04708 0.02274,-0.02732 0.07399,-0.03834 0.101935,-0.05511 0.03487,-0.02123 0.0298,-0.02774 0.04901,-0.04161 0.01443,-0.02044 -0.05111,-0.134849 -0.02852,-0.15562 -0.08222,-0.113744 0.02638,-0.04115 0.04299,-0.05919 0.0051,-0.02258 0.07152,-0.06643 0.08462,-0.08293 0.04626,-0.03836 0.03888,-0.0084 0.04153,-0.01186 0.04219,-0.01292 0.01039,0.02818 0.01846,0.01644 0.01306,0.02237 0.0349,-0.05643 0.05055,-0.08797 0.0073,-0.01742 0.06648,-0.05285 0.07466,-0.07372 0.05268,-0.02556 -0.0912,-0.02092 -0.08688,-0.03404 -0.09092,-0.02543 -0.0098,-0.0667 -0.003,-0.09907 -0.02349,-0.02773 0.009,-0.0459 0.01239,-0.06938 0.0034,-0.02451 -0.01376,-0.04343 -0.01173,-0.06851 -0.01783,-0.02285 0.0044,-0.07236 0.0048,-0.101669 0.0012,-0.03976 0.04014,-0.07114 0.0391,-0.0959 0.03919,-0.0481 -0.02787,-0.02926 -0.0305,-0.05524 -0.02896,-0.01772 -0.0078,-0.140352 -0.01535,-0.181705 -0.0018,-0.07983 -0.01173,-0.06013 -0.01589,-0.07931 -0.01173,-0.05513 -0.08754,-0.151021 -0.09692,-0.184662 -0.07545,-0.09661 -0.07957,0.04699 -0.08302,0.03529 -0.09032,0.01159 -0.06267,-0.107904 -0.08342,-0.169461 -0.04279,-0.03692 -0.0025,-0.07423 -0.02102,-0.124362 0.0093,-0.03531 -0.05907,-0.154058 -0.08615,-0.216231 -0.03184,-0.07753 -0.03965,0.0097 -0.06026,-0.0327 -0.03856,0.01856 -0.123897,-0.142368 -0.169559,-0.228888 -0.07655,-0.04194 0.05442,-0.125136 0.02369,-0.18484 0.07652,-0.08295 -0.07835,-0.145027 -0.133896,-0.21859 -0.03892,-0.06145 -0.112492,-0.184004 -0.166047,-0.244405 -0.06266,-0.115968 -0.09147,-0.07023 -0.136268,-0.108622 -0.06059,-0.05195 -0.08985,-0.103328 -0.154189,-0.17441 0.09094,0.05851 0.175509,0.143112 0.26222,0.19584 0.07922,0.07977 0.111798,0.105251 0.191408,0.150783 0.04336,0.06161 0.1903,0.106025 0.28136,0.153801 0.07944,0.04108 0.217463,0.07317 0.292816,0.109397 0.119166,0.02073 0.01332,0.0747 0.06935,0.09965 -0.002,0.06478 0.07859,0.09872 0.171572,0.13359 -0.01146,0.05451 0.233002,0.06466 0.330819,0.09245 0.08253,0.0074 0.06966,0.129278 0.125443,0.141783 0.02786,0.114623 0.101249,0.0257 0.170231,0.03492 0.0348,0.0067 0.116968,0.01531 0.189686,0.01645 0.03397,-1.3e-5 0.0513,-0.03641 0.117621,-0.04435 -0.0099,-0.04387 0.221131,-0.02666 0.29299,-0.04914 0.08402,-0.0072 -0.02377,-0.0075 -0.0027,-0.01549 -0.01028,-0.01481 0.104919,-0.03269 0.155232,-0.06206 0.02727,-0.0045 0.01545,-0.06081 0.04571,-0.08322 -0.01872,-0.04322 0.05563,-0.114742 0.08348,-0.140308 0.007,-0.07815 0.0154,-0.01132 0.02614,-0.02202 0.01406,-0.01132 -0.14014,-0.09725 -0.120951,-0.119353 -0.152671,-0.08775 0.03512,2.04e-4 0.06057,-0.03508 0.0039,0.03382 -0.01731,-0.05023 0.0041,-0.08551 -0.04488,-0.01401 -0.04341,-0.113664 -0.02629,-0.146205 -0.06959,-0.07094 0.0065,-0.03371 0.01648,-0.05413 -0.0018,-0.01907 -0.04315,-0.03696 -0.03153,-0.06316 -0.05263,-0.01937 0.116036,-0.06966 0.129879,-0.104467 0.09323,-0.01822 -0.0063,-0.06467 -1.7e-5,-0.08142 -0.01173,-0.05158 0.06686,-0.05997 0.07391,-0.0803 0.05816,-0.03716 0.1106,-0.0303 0.116276,-0.04792 0.105361,-0.01602 0.06707,-0.03986 0.07309,-0.06081 0.06126,-0.02339 0.06115,-0.07455 0.06735,-0.09992 0.05223,-0.04468 4.82e-4,-0.02807 0.0048,-0.04868 -0.0019,-0.02243 0.01239,-0.07568 0.01759,-0.111345 0.0033,-0.03604 0.01061,-0.08751 0.01375,-0.11894 0.0048,-0.05113 -0.0099,0.02588 -0.0084,-4.6e-4 -0.01119,0.02024 0.06796,-0.108534 0.0663,-0.167321 0.06281,-0.0307 -0.0015,-0.05892 -0.0053,-0.09827 -0.0021,-0.02308 -0.0093,-0.09358 -0.01639,-0.136402 -0.0053,-0.04231 -0.01292,-0.07625 -0.02046,-0.110599 -0.0082,-0.0418 -0.01159,-0.06887 -0.02111,-0.103073 -0.0056,-0.03671 -0.08969,-0.221074 -0.102034,-0.257355 -0.06802,-0.147133 0.0071,0.01736 0.0071,0.01736 -0.0022,-0.01017 0.08321,-0.06264 0.0733,-0.08833 0.08341,-0.0573 -0.1408,-0.08963 -0.165206,-0.132063 -0.110984,-0.01435 -0.138954,-0.06536 -0.149736,-0.08308 -0.121339,-0.03484 0.004,-0.02597 2.22e-4,-0.03232 -0.0064,-0.04364 -0.02886,-0.05804 -0.04415,-0.08417 -0.01266,-0.03073 0.01061,-0.06329 -0.0063,-0.08953 0.02394,-0.03771 -0.06854,-0.05291 -0.100233,-0.08041 -0.04071,-0.0072 -0.07937,-0.0968 -0.102111,-0.115689 -0.04673,-0.06765 -0.01895,-0.06398 -0.02689,-0.06701 -0.02286,-0.0088 -0.07965,-0.03667 -0.123123,-0.05909 -0.05272,-0.02718 -0.07933,-0.103593 -0.133272,-0.130305 -0.02806,-0.0766 -0.08412,0.06376 -0.140021,0.03732 -0.05054,0.08146 -0.219273,-0.05725 -0.297454,-0.09296 -0.104433,-0.003 -0.125229,0.02222 -0.164835,0.0043 -0.0964,0.03553 -0.132025,-0.07615 -0.18207,-0.09882 -0.07439,-0.05011 -0.04206,-0.05971 -0.08452,-0.07889 -0.02092,-0.0501 -0.128679,-0.04906 -0.192157,-0.07737 -0.05554,-0.01586 -0.08921,-0.09498 -0.143522,-0.119006 -0.03247,-0.06959 -0.0906,-0.02848 -0.142976,-0.05107 -0.0431,-0.0071 -0.162642,-0.08622 -0.22001,-0.110436 -0.07862,-0.04997 -0.06626,-0.05298 -0.09872,-0.06646 -0.04627,-0.04434 -0.07714,-0.03715 -0.121458,-0.0549 -0.03742,-0.02026 -0.161674,-0.03601 -0.210826,-0.05479 -0.08695,-0.0061 -0.04595,-0.0071 -0.07245,-0.01712 -0.03824,-0.004 0.0034,0.05394 -0.03962,0.03768 0.01656,0.05898 -0.22231,-0.08944 -0.293813,-0.119965 -0.0783,-0.03354 -0.02797,0.01199 -0.03955,0.0071 -0.03895,0.0072 -0.174159,-0.05258 -0.203732,-0.06699 -0.106842,-0.02241 -0.01603,0.04433 -0.01603,0.04433 -0.04351,0.03092 -0.199276,-0.03795 -0.216807,-0.05117 -0.24154,-0.08026 0.21802,-0.119992 0.21802,-0.119992 0.129999,-9.5e-5 -0.07275,-0.0022 -0.111266,-0.0022 -0.01921,-0.0022 -0.04082,0.004 -0.04342,0.0043 -0.0084,6.49e-4 -0.006,-0.01596 -0.006,-0.01596"
       id="path6"
       sodipodi:nodetypes="csccsc" /><path
       style="fill:none;fill-opacity:1;stroke:#262626;stroke-width:1.7626;stroke-linecap:round;stroke-linejoin:round;stroke-dasharray:none;stroke-opacity:1"
       d="m 9.7464955,33.920012 -0.101367,0.02382 -0.06286,0.102841 -0.02502,0.008 -0.08756,0.07327 -0.02152,0.07557 -0.01186,0.08414 -0.06499,0.0095 -0.1287191,0.122817 -0.0043,0.03609 -0.03163,0.08315 -0.02767,0.05486 -0.01644,0.06665 0.0308,-0.02544 -0.0095,0.109661 -0.07445,0.128946 -0.01764,0.06433 0.01721,0.06886 0.0065,0.07509 -0.105069,0.07407 0.0041,-0.05557 -0.01438,0.18264 -0.01159,0.06959 -0.06343,0.09812 -0.01026,0.02183 -0.015,0.07393 -0.02428,0.05312 -0.07538,0.06821 -0.0055,0.0376 0.0093,0.114796 -0.03483,0.07551 -0.0077,-0.0054 -0.032643,0.176094 -0.075252,0.05955 -0.050763,0.08862 -0.085297,0.05972 0.010391,0.03602 0.021984,0.128292 0.017787,-0.06827 0.07813,0.183158 -0.024529,0.04328 -0.068897,0.04341 -0.052136,0.14047 0.019159,0.04446 -0.027193,0.06879 0.010126,-0.0095 0.020265,0.112438 0.051123,0.02229 0.004,0.07032 10e-4,0.01039 -0.00933,0.130864 0.025062,0.125255 0.00373,0.03456 0.1110656,0.02337 0.089189,-0.132264 0.09277,0.01319 0.02679,0.036 0.132649,0.01332 0.09225,0.02646 0.02314,0.0022 0.02923,0.02621 0.09989,0.01132 0.09176,-0.02799 -0.04435,0.02839 0.1632411,0.03713 0.06363,0.02787 0.127854,0.03607 0.05679,0.0278 -0.03162,-0.07647 0.10199,0.03293 0.02079,-0.02537 0.1804849,0.05211 0.106776,0.03852 -0.03157,-0.06075 -0.01627,-0.01999 -0.0957,-0.0097 -0.111665,-0.02269 -0.05825,-0.115956 -0.01709,-0.0014 -0.172536,0.0057 -0.002,-0.03695 -0.05557,-0.03503 -0.122205,0.02796 -0.05535,-0.02545 -0.03219,-0.02443 -0.1277071,-0.0084 -0.05766,-0.0036 -0.08056,-4.32e-4 -0.08233,-0.07719 -0.05328,-0.04472 -0.05728,0.02966 -0.09256,-0.105251 -0.079036,-0.01501 -0.060263,1.88e-4 -0.1383098,0.03691 -0.015709,-0.01634 -0.1559384,0.03498 -0.026794,-0.0098 -0.017667,-0.124016 -0.063314,-0.04169 -0.1760076,0.01939 -0.00693,0.02487 -0.093772,0.01516 -0.069663,0.01351 3.259e-4,0.01595 -0.089826,0.0066 -0.1122009,0.02233 -0.079801,0.02215 0.00261,0.0013 -0.1317014,0.01659 -0.024841,0.02344 -0.040469,0.01146 -0.1003283,-0.01252 -0.1201698,-0.02848 -0.1654087,0.02686 0.051574,0.0083 -0.1089432,-0.07349 -0.053084,-0.0054 -0.075621,0.0013 -0.1027316,-0.0376 -0.063568,0.0064 0.00136,0.0151 -0.1074762,-0.0038 0.020207,0.03292 -0.1759651,0.03098 0.046694,0.02832 -0.1383995,-0.03072 -0.1035553,0.0038"
       id="path7"
       sodipodi:nodetypes="cccc" /><path
       style="fill:none;fill-opacity:1;stroke:#262626;stroke-width:1.7626;stroke-linecap:round;stroke-linejoin:round;stroke-dasharray:none;stroke-opacity:1"
       d="m 14.112672,34.160725 -0.0099,0.01995 0.04811,0.129959 0.01266,0.01039 0.06115,0.07126 0.05426,0.07447 0.01694,0.07136 0.05082,0.0041 0.0318,0.117607 0.01754,0.04666 -0.0153,0.07704 0.02566,0.06126 0.01338,0.06155 0.03139,-0.02876 0.0059,0.0921 0.09725,0.127467 0.02802,0.05107 0.01857,0.06185 0.0056,0.06688 -0.0032,0.0692 0.01588,-0.04629 0.07627,0.172217 0.02033,0.05818 0.07335,0.09259 0.0086,0.01306 0.01713,0.06938 0.03882,0.04886 0.01253,0.06207 0.0164,0.03243 -0.0083,0.110214 0.0034,0.07474 0.01958,-0.0091 0.05046,0.169409 -0.03479,0.05384 7.91e-4,0.08049 0.0039,0.04914 -0.01992,0.0066 0.115209,0.134342 0.02997,-0.07524 -0.101957,0.187198 -0.01352,0.07658 0.08697,0.04947 0.008,0.0964 -0.09495,0.02351 0.09848,0.111465 0.02966,-0.04596 0.105793,0.09826 0.0176,0.0236 -0.07738,-0.04842 -0.06447,-0.103194 -0.100796,-0.02984 -0.114343,0.02446 -0.04094,0.03505 -0.107252,0.02297 -0.0082,-0.137604 -0.121405,0.0333 0.01634,0.04324 -0.121618,0.03342 -0.07452,0.04102 -0.05311,0.01667 -0.134249,0.03539 -0.0021,-0.0034 -0.07562,-0.0192 -0.04773,0.03996 -0.07669,0.03335 -0.02925,0.03728 -0.07922,0.05304 -0.09181,0.0441 -0.02018,-0.06913 -0.18818,0.0379 0.02462,-0.03965 -0.03137,0.04316 -0.21391,0.06808 v -0.04919 l -0.07194,0.0044 -0.06408,0.02231 -0.07275,0.0066 -0.04569,-0.08964 -0.153376,0.07666 -0.06866,0.03657 -0.01647,-0.02031 -0.08581,0.02859 -0.07006,0.08841 -0.0188,-0.0073 -0.04951,0.03058 -0.04568,0.05317 -0.06396,0.04263 -0.02296,0.03916 -0.03659,-0.04091 0.06595,-0.05117 -0.04455,0.02428 0.172024,-0.12379 0.05993,-0.02078 0.05999,-0.0063 -0.002,0.02986 0.0888,-0.03038 0.08668,0.02407 0.09784,-0.01984 0.07127,-0.129905 0.06667,-0.04977 0.01226,0.0085 0.08076,0.01831 0.148774,0.006 -0.03944,0.0112 0.07907,0.0063 0.104521,-0.004 -0.03225,0.01529 0.08996,0.0086 0.09159,-0.01017 0.09034,0.0076 0.132143,0.01668 -0.06853,0.01292 0.198385,-0.02289 0.03888,-0.02667 0.0083,0.02338 0.08463,-0.0027 0.114423,-0.07813 0.0279,-0.0098 0.05511,-0.0071 0.0785,-0.0468 0.06312,-0.0034 0.104853,0.004 0.0095,-0.01766 0.164298,0.01627 -0.06785,0.02296 0.02168,0.02357 0.189922,-0.01549 0.115103,0.01061 -0.04506,0.01319 0.170297,-0.02562 0.0096,-0.0033 0.05286,-0.007 0.05887,0.0031 0.0661,-0.01471 0.06457,-0.02674 0.06102,-0.06037 0.09918,-3.19e-4 0.09154,-0.006 6.76e-4,-0.03282 0.06136,-0.0071 0.06985,0.01612 0.08467,-0.01751 0.08466,0.03585 0.02065,-0.06427 0.128014,0.04848 0.0428,0.0019 0.05306,4.06e-4 0.08123,0.002 0.04829,-0.0011 0.141854,0.01469"
       id="path8"
       sodipodi:nodetypes="cccc" /><path
       d="m 16.515771,11.642823 -0.485581,-0.114342 0.0183,-0.07769 -0.233079,-0.05488 -0.07312,-0.03772 0.02287,-0.09711 -0.291348,-0.06861 0.0183,-0.07769 -0.116539,-0.02745 0.0183,-0.07769 -0.07769,-0.0183 0.228682,-0.971161 -0.116538,-0.027442 0.02286,-0.097117 0.0629,-0.3541921 0.06861,-0.2913478 -0.07769,-0.018295 0.0869,-0.3690411 -0.08226,0.00112 0.06861,-0.2913478 -0.116539,-0.027442 0.146357,-0.621543 -0.07769,-0.018294 0.0092,-0.038847 -0.01031,-0.043421 0.09711,0.022869 0.06403,-0.2719251 0.116539,0.027442 0.02287,-0.097116 0.07769,0.018294 0.02287,-0.097117 0.213654,0.05031 0.02287,-0.097116 0.07769,0.018295 0.0183,-0.077693 0.116539,0.027442 0.0183,-0.077693 0.07769,0.018294 0.06059,-0.1702346 0.198806,0.026314 0.02287,-0.097117 0.388464,0.091473 -0.02287,0.097117 0.291348,0.068605 -0.0183,0.077693 0.407889,0.096047 0.0183,-0.077693 0.407888,0.096046 0.02286,-0.097117 0.330196,0.077752 0.06284,-0.0057 0.01372,-0.058269 0.194232,0.045737 0.0092,-0.038847 0.02857,-0.034272 0.07769,0.018294 0.02745,-0.1165393 0.09712,0.022869 0.05601,-0.1508114 0.07769,0.018294 0.06059,-0.1702347 0.08226,-0.00112 0.03201,-0.1359635 0.04687,-0.111965 0.08227,-0.00112 0.03201,-0.135963 0.05144,-0.1313883 0.09712,0.022869 0.03201,-0.1359625 0.04342,-0.010272 0.024,-0.014849 0.05257,-0.04912 0.228683,-0.9711609 -0.0297,-0.047995 -0.05369,-0.033143 0.0869,-0.3690421 -0.09711,-0.022869 -0.0011,-0.082267 0.0183,-0.077693 -0.07313,-0.037718 0.05946,-0.2525019 -0.03885,-0.00915 -0.06854,-0.057141 0.01372,-0.058269 -0.07769,-0.018294 0.04573,-0.1942323 -0.116538,-0.027442 0.0183,-0.077693 -0.07769,-0.018294 -0.01031,-0.043421 0.0092,-0.038847 -0.116539,-0.027442 0.02286,-0.097116 -0.07769,-0.018294 0.03659,-0.1553858 -0.06855,-0.057141 0.0092,-0.038847 -0.01031,-0.043421 -0.194232,-0.045736 0.0183,-0.077693 -0.194233,-0.045737 0.02286,-0.097116 -0.209082,-0.069733 0.01372,-0.058269 -0.09254,-0.042292 0.0183,-0.077693 -0.07769,-0.018294 0.04573,-0.1942322 -0.116539,-0.027442 0.0092,-0.038847 -0.0057,-0.062844 -0.07769,-0.018294 0.01372,-0.058269 -0.189658,-0.06516 0.0183,-0.077693 -0.286774,-0.088027 0.0183,-0.077693 -0.796352,-0.1875201 -0.02287,0.097116 -0.291347,-0.068605 -0.0183,0.077693 -0.194232,-0.045736 -0.0092,0.038847 -0.02857,0.034272 -0.07769,-0.018294 -0.02286,0.097116 -0.09711,-0.022869 -0.02857,0.034272 -0.0092,0.038847 -0.101694,-0.00344 -0.02287,0.097116 -0.09712,-0.022868 -0.0092,0.038847 -0.02857,0.034273 -0.08226,0.00112 -0.04116,0.1748089 -0.09713,-0.022869 -0.08232,0.3496179 -0.116538,-0.027442 -0.04116,0.174809 -0.07769,-0.018295 -0.04116,0.174809 -0.116539,-0.027442 -0.02287,0.097116 -0.0423,0.092542 -0.155385,-0.036589 -0.0183,0.077693 -0.330195,-0.077753 -0.0183,0.077693 -0.174809,-0.041163 0.0183,-0.077693 -0.233079,-0.054883 -0.05369,-0.033144 0.01372,-0.058269 -0.194231,-0.045736 -0.0057,-0.062844 0.0092,-0.038847 -0.116539,-0.027442 0.0183,-0.077693 -0.07769,-0.018295 0.33845,-1.437318 0.07769,0.018294 0.04573,-0.1942321 0.135962,0.032016 0.02286,-0.097117 0.07769,0.018294 0.0183,-0.077693 0.116539,0.027442 0.04574,-0.19423225 0.07769,0.0182947 0.0183,-0.0776928 0.09711,0.0228689 0.0183,-0.0776928 0.116539,0.027442 0.04116,-0.17480834 0.101693,0.003445 0.02286,-0.0971156 0.07769,0.0182946 0.03659,-0.15538573 0.116539,0.027442 0.04687,-0.11196505 0.0183,-0.0776928 0.07769,0.0182947 0.02287,-0.0971166 0.194233,0.0457366 0.0183,-0.0776928 0.194232,0.0457366 0.02857,-0.0342721 0.0092,-0.0388465 0.198806,0.0263139 0.02287,-0.0971166 0.194231,0.0457366 0.0183,-0.07769286 0.194232,0.0457366 0.03772,-0.07311861 0.174681,0.04115944 0.01372,-0.05826914 L 17.391832,0 l 0.07769,0.01829465 0.373614,0.06747571 0.228504,0.07430764 -0.0034,0.10168983 0.174808,0.0411628 0.106266,-0.0159776 0.01372,-0.0582691 0.07769,0.0182947 0.159959,0.0171656 0.07769,0.0182947 0.0183,-0.0776928 0.563272,0.13263603 -0.0183,0.0776928 0.07769,0.0182947 0.131389,0.0514395 0.09711,0.0228689 -0.02286,0.0971156 0.310771,0.0731786 -0.0183,0.0776928 0.194232,0.0457366 -0.0183,0.0776928 0.194232,0.0457366 -0.02287,0.0971166 0.209083,0.069733 -0.0183,0.077693 0.07769,0.018295 -0.0183,0.077693 0.11654,0.027442 -0.02287,0.097117 0.07769,0.018295 -0.0183,0.077693 0.09255,0.042291 -0.0092,0.038847 0.0057,0.062844 0.09712,0.022869 -0.0183,0.077693 0.09712,0.022869 -0.0183,0.077693 0.194232,0.045736 -0.0183,0.077693 0.01031,0.043421 0.07769,0.018294 -0.0183,0.077693 0.11654,0.027442 -0.02287,0.097116 0.07769,0.018294 -0.02286,0.097117 0.07769,0.018295 0.04912,0.052567 -0.0045,0.019424 0.05369,0.033144 0.0057,0.062844 -0.0045,0.019423 0.189658,0.06516 -0.0183,0.077693 0.07769,0.018295 -0.0183,0.077693 0.09712,0.022869 0.0057,0.062843 -0.0092,0.038847 0.07769,0.018294 0.0011,0.082267 0.09255,0.042292 -0.02287,0.097116 0.09711,0.022869 -0.03659,0.1553856 0.09712,0.022869 -0.02174,0.1793832 0.07312,0.037718 -0.04574,0.1942322 0.116539,0.027442 -0.0183,0.077693 0.07769,0.018294 -0.03201,0.1359625 -0.008,0.1211136 0.04912,0.052567 -0.164652,0.6992358 0.135963,0.032016 -0.0183,0.077693 0.07312,0.037718 -0.04116,0.1748091 0.116539,0.027442 -0.08232,0.3496189 0.07769,0.018294 -0.169226,0.718659 -0.03885,-0.00915 -0.024,0.01485 -0.09718,0.3256204 -0.06403,0.271925 -0.05827,-0.01372 -0.06284,0.0057 -0.05946,0.2525017 -0.07769,-0.018294 -0.02286,0.097117 -0.140537,-0.012593 -0.03659,0.1553858 -0.05826,-0.01372 -0.05145,0.1313883 -0.03659,0.1553858 -0.07769,-0.018294 -0.05946,0.2525018 -0.121113,-0.00801 -0.03659,0.1553857 -0.07769,-0.018294 -0.05144,0.1313884 -0.03201,0.1359625 -0.08226,0.00112 -0.04687,0.1119649 -0.03201,0.1359626 -0.09712,-0.022869 -0.02287,0.097117 -0.116539,-0.027442 -0.04116,0.1748089 -0.09712,-0.022868 -0.04573,0.1942322 -0.07769,-0.018294 -0.03772,0.073119 -0.07769,-0.018294 -0.0183,0.077693 -0.11654,-0.027442 -0.02286,0.097116 -0.09712,-0.022869 -0.02287,0.097116 -0.116538,-0.027442 -0.02287,0.097117 -0.07769,-0.018294 -0.0183,0.077693 -0.07769,-0.018294 -0.02857,0.034273 -0.0092,0.038847 -0.101693,-0.00344 -0.0045,0.019423 -0.03315,0.053695 -0.09711,-0.022869 -0.198806,-0.026312 -0.07769,-0.018294 -0.03772,0.073119 -0.388465,-0.091473 -0.0183,0.077693 -0.213655,-0.05031 -0.02287,0.097117 -0.07769,-0.018294 -0.04573,0.1942322 -0.07769,-0.018294 -0.07318,0.3107714 -0.08803,0.2867738 -0.101693,-0.0034 -0.03201,0.135963 -0.04687,0.111964 -0.08684,0.02055 -0.03659,0.155386 -0.09712,-0.02287 -0.105195,0.446734 -0.09711,-0.02286 -0.0423,0.09254 -0.0183,0.07769 -0.07769,-0.0183 -0.06516,0.189658 -0.09711,-0.02287 -0.0183,0.07769 -0.09711,-0.02286 -0.0183,0.07769 -0.07769,-0.0183 -0.02744,0.116538 -0.213657,-0.05031 z m -0.998305,4.848973 -0.388465,-0.09147 0.02745,-0.116538 -0.407888,-0.09605 0.03659,-0.155385 -0.116538,-0.02745 0.02745,-0.116538 -0.11654,-0.02745 0.02744,-0.116539 -0.155386,-0.03659 0.03201,-0.135962 -0.11654,-0.02745 0.06403,-0.271925 -0.135963,-0.03201 0.214963,-0.912891 0.135962,0.03201 0.05946,-0.252502 0.116538,0.02745 0.02745,-0.11654 0.0663,-0.10739 0.125688,-0.01141 0.0183,-0.07769 0.125688,-0.01141 0.05946,-0.252502 0.271925,0.06403 0.05488,-0.233069 0.145111,-0.0068 0.02744,-0.116539 0.233079,0.05488 0.02744,-0.116538 0.757506,0.178372 0.02514,0.06742 -0.01372,0.05827 0.243355,0.0983 -0.0183,0.07769 0.262777,0.102879 -0.02744,0.11654 0.116538,0.02745 -0.02744,0.11654 0.116539,0.02744 -0.03201,0.135962 0.155385,0.03659 -0.02745,0.116538 0.11654,0.02745 -0.09147,0.388464 0.135961,0.03201 -0.123489,0.524427 -0.135962,-0.03201 -0.05946,0.252502 -0.11654,-0.02745 -0.05601,0.150813 -0.02744,0.116538 -0.140537,-0.01259 -0.02286,0.09712 -0.11654,-0.02744 -0.02745,0.116538 -0.11654,-0.02744 -0.0183,0.07769 -0.05714,0.06855 -0.09712,-0.02287 -0.05946,0.252502 -0.135961,-0.03201 -0.02745,0.116538 -0.26165,-0.02061 -0.02744,0.116539 -0.524427,-0.123488 z"
       id="text1"
       style="font-size:19.3475px;font-family:Comico;-inkscape-font-specification:Comico;stroke-width:1.66286;stroke:none;stroke-opacity:1;fill:#262626;fill-opacity:1"
       aria-label="?" /><path
       style="fill:#262626;fill-opacity:1;stroke-width:0.292486"
       id="path9"
       d="m 5.6068667,15.996743 c 0.1311156,-0.04299 0.2617182,-0.08667 0.3907517,-0.135834 0.1904553,-0.07114 0.374058,-0.158874 0.5591245,-0.242677 0.1393965,-0.06052 0.2753618,-0.129487 0.4179925,-0.182266 0.142169,-0.05633 0.2858423,-0.107421 0.4316107,-0.15349 0.1045589,-0.0364 0.210094,-0.06951 0.3198136,-0.08521 0.097881,-0.0168 0.1971553,-0.02065 0.2961138,-0.02624 0.013915,-4.76e-4 0.05685,-0.0021 0.072351,-0.0021 0.00234,1.5e-5 0.0094,6.51e-4 0.00704,8.47e-4 -0.00499,4.24e-4 -0.038785,-0.005 -0.023195,0.0032 0.031075,0.01897 0.0066,-0.0018 0.00653,0.0096 -2.87e-5,0.0039 0.011726,0.01002 0.00816,0.0084 -0.012975,-0.0058 -0.035806,-0.02274 -0.048376,-0.03169 -0.00232,2.73e-4 -0.00602,-0.0014 -0.00701,7.72e-4 -0.00229,0.0049 -0.00168,0.01092 -8.682e-4,0.01632 0.0029,0.0195 0.00815,0.03857 0.011871,0.05793 0.013943,0.07263 0.02506,0.144204 0.029818,0.217985 0.00395,0.159389 0.018649,0.318181 0.026122,0.477394 0.039748,0.826322 1.2083431,0.77011 1.1685951,-0.05621 v 0 c -0.0049,-0.09949 -0.01469,-0.19874 -0.01912,-0.298212 -0.0016,-0.03623 -0.0017,-0.07252 -0.0033,-0.108757 -0.0017,-0.03796 -0.0044,-0.07587 -0.0066,-0.113798 -0.0043,-0.04527 -0.0073,-0.09069 -0.01286,-0.135823 -0.02276,-0.184565 -0.06726,-0.400874 -0.142356,-0.570221 -0.02343,-0.05284 -0.05466,-0.101861 -0.082,-0.152791 -0.0352,-0.04602 -0.06672,-0.0951 -0.105586,-0.138063 -0.137379,-0.151835 -0.3216132,-0.252182 -0.5153433,-0.311575 -0.068401,-0.01747 -0.096254,-0.02682 -0.1657128,-0.03596 -0.08796,-0.01157 -0.1763027,-0.01018 -0.2646499,-0.0054 -0.136993,0.0078 -0.2742397,0.01525 -0.4097354,0.0383 -0.1677594,0.0271 -0.3322822,0.06838 -0.4924406,0.125703 -0.1666468,0.05272 -0.3310762,0.110997 -0.4937177,0.175067 -0.1648405,0.06334 -0.3248901,0.137697 -0.4857535,0.210423 -0.1635964,0.07408 -0.3256788,0.152216 -0.4938831,0.215479 -0.010137,0.0039 -0.1145614,0.04409 -0.1322603,0.05011 -0.088703,0.03018 -0.1798127,0.05355 -0.2667492,0.08891 -0.7705902,0.300962 -0.3449662,1.390741 0.425624,1.089779 z" /></g></svg>
