<?xml version="1.0" encoding="UTF-8" standalone="no"?>
<!-- Created with Inkscape (http://www.inkscape.org/) -->

<svg
   width="100"
   height="100"
   viewBox="0 0 26.458333 26.458333"
   version="1.1"
   id="svg1"
   inkscape:version="1.4.3 (0d15f75, 2025-12-25)"
   sodipodi:docname="macerator.svg"
   xmlns:inkscape="http://www.inkscape.org/namespaces/inkscape"
   xmlns:sodipodi="http://sodipodi.sourceforge.net/DTD/sodipodi-0.dtd"
   xmlns="http://www.w3.org/2000/svg"
   xmlns:svg="http://www.w3.org/2000/svg">
  <sodipodi:namedview
     id="namedview1"
     pagecolor="#262626"
     bordercolor="#000000"
     borderopacity="0.25"
     inkscape:showpageshadow="2"
     inkscape:pageopacity="0.0"
     inkscape:pagecheckerboard="0"
     inkscape:deskcolor="#d1d1d1"
     inkscape:document-units="px"
     inkscape:zoom="11.260382"
     inkscape:cx="54.971494"
     inkscape:cy="62.875311"
     inkscape:window-width="1920"
     inkscape:window-height="992"
     inkscape:window-x="-8"
     inkscape:window-y="-8"
     inkscape:window-maximized="1"
     inkscape:current-layer="layer1" />
  <defs
     id="defs1">
    <inkscape:path-effect
       effect="ruler"
       id="path-effect29"
       is_visible="true"
       lpeversion="1.3.1"
       unit="px"
       mark_distance="0.8"
       mark_angle="0"
       mark_length="5"
       minor_mark_length="5"
       minor_mark_gap="0"
       major_mark_gap="0"
       major_mark_steps="5"
       shift="0"
       offset="0"
       mark_dir="left"
       border_marks="both" />
    <inkscape:path-effect
       effect="ruler"
       id="path-effect27"
       is_visible="true"
       lpeversion="1.3.1"
       unit="px"
       mark_distance="0.8"
       mark_angle="0"
       mark_length="5"
       minor_mark_length="5"
       minor_mark_gap="0"
       major_mark_gap="0"
       major_mark_steps="5"
       shift="0"
       offset="0"
       mark_dir="left"
       border_marks="both" />
    <inkscape:path-effect
       effect="ruler"
       id="path-effect25"
       is_visible="true"
       lpeversion="1.3.1"
       unit="px"
       mark_distance="0.8"
       mark_angle="0"
       mark_length="5"
       minor_mark_length="5"
       minor_mark_gap="0"
       major_mark_gap="0"
       major_mark_steps="5"
       shift="0"
       offset="0"
       mark_dir="left"
       border_marks="both" />
    <inkscape:path-effect
       effect="ruler"
       id="path-effect23"
       is_visible="true"
       lpeversion="1.3.1"
       unit="px"
       mark_distance="0.8"
       mark_angle="0"
       mark_length="5"
       minor_mark_length="5"
       minor_mark_gap="0"
       major_mark_gap="0"
       major_mark_steps="5"
       shift="0"
       offset="0"
       mark_dir="left"
       border_marks="both" />
    <inkscape:path-effect
       effect="ruler"
       id="path-effect21"
       is_visible="true"
       lpeversion="1.3.1"
       unit="px"
       mark_distance="0.8"
       mark_angle="0"
       mark_length="5"
       minor_mark_length="5"
       minor_mark_gap="0"
       major_mark_gap="0"
       major_mark_steps="5"
       shift="0"
       offset="0"
       mark_dir="left"
       border_marks="both" />
    <inkscape:path-effect
       effect="ruler"
       id="path-effect19"
       is_visible="true"
       lpeversion="1.3.1"
       unit="px"
       mark_distance="0.8"
       mark_angle="0"
       mark_length="5"
       minor_mark_length="5"
       minor_mark_gap="0"
       major_mark_gap="0"
       major_mark_steps="5"
       shift="0"
       offset="0"
       mark_dir="left"
       border_marks="both" />
    <inkscape:path-effect
       effect="ruler"
       id="path-effect17"
       is_visible="true"
       lpeversion="1.3.1"
       unit="px"
       mark_distance="0.8"
       mark_angle="0"
       mark_length="5"
       minor_mark_length="5"
       minor_mark_gap="0"
       major_mark_gap="0"
       major_mark_steps="5"
       shift="0"
       offset="0"
       mark_dir="left"
       border_marks="both" />
    <inkscape:path-effect
       effect="ruler"
       id="path-effect15"
       is_visible="true"
       lpeversion="1.3.1"
       unit="px"
       mark_distance="0.8"
       mark_angle="0"
       mark_length="5"
       minor_mark_length="5"
       minor_mark_gap="0"
       major_mark_gap="0"
       major_mark_steps="5"
       shift="0"
       offset="0"
       mark_dir="left"
       border_marks="both" />
    <inkscape:path-effect
       effect="ruler"
       id="path-effect13"
       is_visible="true"
       lpeversion="1.3.1"
       unit="px"
       mark_distance="0.8"
       mark_angle="0"
       mark_length="5"
       minor_mark_length="5"
       minor_mark_gap="0"
       major_mark_gap="0"
       major_mark_steps="5"
       shift="0"
       offset="0"
       mark_dir="left"
       border_marks="both" />
    <inkscape:path-effect
       effect="ruler"
       id="path-effect11"
       is_visible="true"
       lpeversion="1.3.1"
       unit="px"
       mark_distance="0.8"
       mark_angle="0"
       mark_length="5"
       minor_mark_length="5"
       minor_mark_gap="0"
       major_mark_gap="0"
       major_mark_steps="5"
       shift="0"
       offset="0"
       mark_dir="left"
       border_marks="both" />
    <inkscape:path-effect
       effect="ruler"
       id="path-effect9"
       is_visible="true"
       lpeversion="1.3.1"
       unit="px"
       mark_distance="0.8"
       mark_angle="0"
       mark_length="5"
       minor_mark_length="5"
       minor_mark_gap="0"
       major_mark_gap="0"
       major_mark_steps="5"
       shift="0"
       offset="0"
       mark_dir="left"
       border_marks="both" />
    <inkscape:path-effect
       effect="ruler"
       id="path-effect7"
       is_visible="true"
       lpeversion="1.3.1"
       unit="px"
       mark_distance="0.8"
       mark_angle="0"
       mark_length="5"
       minor_mark_length="5"
       minor_mark_gap="0"
       major_mark_gap="0"
       major_mark_steps="5"
       shift="0"
       offset="0"
       mark_dir="left"
       border_marks="both" />
    <inkscape:path-effect
       effect="ruler"
       id="path-effect6"
       is_visible="true"
       lpeversion="1.3.1"
       unit="px"
       mark_distance="20"
       mark_angle="0"
       mark_length="14"
       minor_mark_length="7"
       minor_mark_gap="0"
       major_mark_gap="0"
       major_mark_steps="5"
       shift="0"
       offset="0"
       mark_dir="left"
       border_marks="both" />
    <inkscape:path-effect
       effect="gears"
       id="path-effect5"
       is_visible="true"
       lpeversion="1"
       teeth="5"
       phi="4.8"
       min_radius="3.7" />
    <inkscape:path-effect
       effect="gears"
       id="path-effect4"
       is_visible="true"
       lpeversion="1"
       teeth="10"
       phi="5.2"
       min_radius="0.4" />
    <inkscape:path-effect
       effect="gears"
       id="path-effect3"
       is_visible="true"
       lpeversion="1"
       teeth="6"
       phi="5"
       min_radius="5" />
    <inkscape:path-effect
       effect="roughen"
       id="path-effect2"
       is_visible="true"
       lpeversion="1.2"
       global_randomize="1;1"
       displace_x="0.64;-1698859633"
       displace_y="0.64;1762695821"
       method="size"
       max_segment_size="0.5"
       segments="4"
       handles="along"
       shift_nodes="true"
       fixed_displacement="false"
       spray_tool_friendly="false" />
    <inkscape:path-effect
       effect="roughen"
       id="path-effect1"
       is_visible="true"
       lpeversion="1.2"
       global_randomize="0.9;1"
       displace_x="0.27;-1983957913"
       displace_y="0.2;-984100374"
       method="size"
       max_segment_size="0.288107"
       segments="2"
       handles="along"
       shift_nodes="true"
       fixed_displacement="false"
       spray_tool_friendly="false" />
    <inkscape:path-effect
       effect="ruler"
       id="path-effect7-4"
       is_visible="true"
       lpeversion="1.3.1"
       unit="px"
       mark_distance="0.8"
       mark_angle="0"
       mark_length="5"
       minor_mark_length="5"
       minor_mark_gap="0"
       major_mark_gap="0"
       major_mark_steps="5"
       shift="0"
       offset="0"
       mark_dir="left"
       border_marks="both" />
    <inkscape:path-effect
       effect="ruler"
       id="path-effect7-4-6"
       is_visible="true"
       lpeversion="1.3.1"
       unit="px"
       mark_distance="0.8"
       mark_angle="0"
       mark_length="5"
       minor_mark_length="5"
       minor_mark_gap="0"
       major_mark_gap="0"
       major_mark_steps="5"
       shift="0"
       offset="0"
       mark_dir="left"
       border_marks="both" />
    <inkscape:path-effect
       effect="roughen"
       id="path-effect3-8"
       is_visible="true"
       lpeversion="1.2"
       global_randomize="1.3;1"
       displace_x="0.36;1466644229"
       displace_y="0.34;1"
       method="size"
       max_segment_size="1"
       segments="2"
       handles="along"
       shift_nodes="true"
       fixed_displacement="false"
       spray_tool_friendly="false" />
    <inkscape:path-effect
       effect="roughen"
       id="path-effect9-9"
       is_visible="true"
       lpeversion="1.2"
       global_randomize="0.5;1"
       displace_x="0.3;85671466"
       displace_y="0.32;56221272"
       method="size"
       max_segment_size="0.4"
       segments="2"
       handles="along"
       shift_nodes="true"
       fixed_displacement="false"
       spray_tool_friendly="false" />
    <inkscape:path-effect
       effect="roughen"
       id="path-effect2-2"
       is_visible="true"
       lpeversion="1.2"
       global_randomize="1;1"
       displace_x="0.33;971983429"
       displace_y="0.31;1"
       method="size"
       max_segment_size="0.543"
       segments="2"
       handles="along"
       shift_nodes="true"
       fixed_displacement="false"
       spray_tool_friendly="false" />
    <inkscape:path-effect
       effect="roughen"
       id="path-effect3-4"
       is_visible="true"
       lpeversion="1.2"
       global_randomize="1.3;1"
       displace_x="0.36;1466644229"
       displace_y="0.34;1"
       method="size"
       max_segment_size="1"
       segments="2"
       handles="along"
       shift_nodes="true"
       fixed_displacement="false"
       spray_tool_friendly="false" />
    <inkscape:path-effect
       effect="roughen"
       id="path-effect9-2"
       is_visible="true"
       lpeversion="1.2"
       global_randomize="0.5;1"
       displace_x="0.3;85671466"
       displace_y="0.32;56221272"
       method="size"
       max_segment_size="0.4"
       segments="2"
       handles="along"
       shift_nodes="true"
       fixed_displacement="false"
       spray_tool_friendly="false" />
    <inkscape:path-effect
       effect="roughen"
       id="path-effect2-7"
       is_visible="true"
       lpeversion="1.2"
       global_randomize="1;1"
       displace_x="0.33;971983429"
       displace_y="0.31;1"
       method="size"
       max_segment_size="0.543"
       segments="2"
       handles="along"
       shift_nodes="true"
       fixed_displacement="false"
       spray_tool_friendly="false" />
  </defs>
  <g
     inkscape:label="Layer 1"
     inkscape:groupmode="layer"
     id="layer1">
    <g
       id="g29"
       transform="matrix(1.0052675,0,0,0.68742858,-0.02699567,10.316958)"
       style="fill:#d8d8d8;fill-opacity:1">
      <path
         id="rect1"
         style="baseline-shift:baseline;display:inline;overflow:visible;opacity:1;vector-effect:none;fill:#d8d8d8;fill-opacity:1;stroke-linecap:round;stroke-linejoin:round;enable-background:accumulate;stop-color:#000000;stop-opacity:1"
         d="M 5.9554681 5.20687 A 0.73488848 0.73488848 0 0 0 5.7755483 5.2399463 L 5.4979578 5.3301546 A 0.73488848 0.73488848 0 0 0 4.9982949 6.1487943 L 4.9962386 6.1367665 L 4.962825 6.1916432 A 0.73488848 0.73488848 0 0 0 4.8574434 6.496096 L 4.8322546 6.7283822 L 4.7556602 6.9884826 A 0.73488848 0.73488848 0 0 0 4.7638851 7.4004335 A 0.73488848 0.73488848 0 0 0 4.7638851 7.4026887 A 0.73488848 0.73488848 0 0 0 4.7638851 7.4199786 L 4.7597726 7.4102061 L 4.6482224 7.6267058 A 0.73488848 0.73488848 0 0 0 4.5839653 7.8161431 L 4.5233066 8.1213477 L 4.4821821 8.3243162 L 4.3927363 8.549085 L 4.2852985 8.7437845 A 0.73488848 0.73488848 0 0 0 4.199451 9.1775357 L 4.2030494 9.2226398 L 4.1680936 9.2850339 A 0.73488848 0.73488848 0 0 0 4.1130895 9.418091 L 4.0236437 9.7052539 L 3.9552742 9.8946912 A 0.73488848 0.73488848 0 0 0 3.9239167 10.003693 L 3.8771376 10.238234 L 3.8457801 10.310401 L 3.6972178 10.441203 A 0.73488848 0.73488848 0 0 0 3.4592096 10.849395 L 3.4139726 11.076419 L 3.3435469 11.298933 L 3.2541011 11.560537 A 0.73488848 0.73488848 0 0 0 3.2499886 11.576323 L 3.1579725 11.859727 A 0.73488848 0.73488848 0 0 0 3.1502617 11.889045 L 3.0782937 12.150649 A 0.73488848 0.73488848 0 0 0 3.0782937 12.154407 L 3.0176351 12.373162 L 2.9276752 12.705429 L 2.8418277 12.980565 A 0.73488848 0.73488848 0 0 0 2.8341169 13.011386 L 2.7559803 13.306818 A 0.73488848 0.73488848 0 0 0 2.744157 13.359439 L 2.7266791 13.454909 L 2.6367192 13.656375 A 0.73488848 0.73488848 0 0 0 2.6094742 13.730796 L 2.5097472 14.039008 L 2.4197873 14.296853 A 0.73488848 0.73488848 0 0 0 2.4023094 14.357744 L 2.3611849 14.517863 L 2.2403816 14.730604 A 0.73488848 0.73488848 0 0 0 2.1797229 14.871179 L 2.1113534 15.086175 L 1.998261 15.319965 A 0.73488848 0.73488848 0 0 0 1.9314336 15.544734 L 1.9021324 15.773261 L 1.8615219 15.916091 L 1.7540841 16.14086 A 0.73488848 0.73488848 0 0 0 1.7150158 16.243847 L 1.6307106 16.525748 L 1.5839314 16.628736 L 1.470839 16.821932 L 1.3397546 16.980548 A 0.73488848 0.73488848 0 0 0 1.1994171 17.239897 L 1.1310476 17.468424 L 1.0683327 17.541342 A 0.73488848 0.73488848 0 0 0 0.92953747 17.781146 L 0.83597918 18.051019 L 0.75218797 18.287064 A 0.73488848 0.73488848 0 0 0 0.74036467 18.322395 L 0.66017185 18.597531 L 0.57432441 18.890707 L 0.46894283 19.162084 A 0.73488848 0.73488848 0 0 0 0.43758538 19.269582 L 0.38103916 19.525172 L 0.32243672 19.636429 A 0.73488848 0.73488848 0 0 0 0.29313549 19.697319 L 0.19546476 19.931861 L 0.090083168 20.171664 A 0.73488848 0.73488848 0 0 0 0.93570615 21.1835 L 0.98813991 21.169969 L 1.1408147 21.177486 L 1.3788229 21.24439 A 0.73488848 0.73488848 0 0 0 1.5664535 21.273708 L 1.7597388 21.275212 L 2.0095702 21.304529 A 0.73488848 0.73488848 0 0 0 2.0332168 21.306784 L 2.3632411 21.333847 L 2.5195143 21.371434 A 0.73488848 0.73488848 0 0 0 2.6541971 21.390979 L 2.9472093 21.406014 A 0.73488848 0.73488848 0 0 0 3.0448801 21.40451 L 3.3106473 21.38271 L 3.5877238 21.408269 L 3.7306315 21.4436 A 0.73488848 0.73488848 0 0 0 3.8360131 21.459387 L 4.126969 21.484194 L 4.4025033 21.512008 A 0.73488848 0.73488848 0 0 0 4.5978448 21.503739 L 4.8517887 21.46089 A 0.73488848 0.73488848 0 0 0 4.9160458 21.447359 L 5.1797568 21.376696 L 5.2810259 21.359406 L 5.5920301 21.369179 L 5.8475162 21.381206 L 6.0449139 21.424055 A 0.73488848 0.73488848 0 0 0 6.1893638 21.439842 L 6.5409785 21.4436 A 0.73488848 0.73488848 0 0 0 6.5507456 21.4436 L 6.7712758 21.4436 A 0.73488848 0.73488848 0 0 0 6.8165128 21.4436 L 7.037043 21.427814 A 0.73488848 0.73488848 0 0 0 7.13677 21.415786 L 7.236497 21.394738 L 7.5588104 21.40451 A 0.73488848 0.73488848 0 0 0 7.6564811 21.402255 L 7.7752282 21.388724 L 8.1756782 21.398496 A 0.73488848 0.73488848 0 0 0 8.2209152 21.398496 L 8.4316784 21.390979 L 8.7169797 21.406765 A 0.73488848 0.73488848 0 0 0 8.7539918 21.406765 L 9.1230844 21.408269 A 0.73488848 0.73488848 0 0 0 9.228466 21.402255 L 9.4356308 21.372937 L 9.3261367 21.323323 A 0.73488848 0.73488848 0 0 0 9.6073256 21.388724 L 9.9044503 21.396993 A 0.73488848 0.73488848 0 0 0 9.9568841 21.394738 L 10.17176 21.386468 L 10.519776 21.375192 A 0.73488848 0.73488848 0 0 0 10.581977 21.371434 L 10.892467 21.333847 A 0.73488848 0.73488848 0 0 0 11.02715 21.306784 L 11.150523 21.267694 L 11.308853 21.279722 A 0.73488848 0.73488848 0 0 0 11.324274 21.279722 L 11.509849 21.289495 A 0.73488848 0.73488848 0 0 0 11.57205 21.289495 L 11.922122 21.275212 L 12.148307 21.267694 L 12.499922 21.260177 L 12.757978 21.273708 A 0.73488848 0.73488848 0 0 0 13.099826 21.209059 L 13.134782 21.193272 L 13.291055 21.203045 A 0.73488848 0.73488848 0 0 0 13.371248 21.203045 L 13.683794 21.191769 L 13.962927 21.179741 L 14.220469 21.1835 A 0.73488848 0.73488848 0 0 0 14.222525 21.1835 L 14.529417 21.18801 L 14.849674 21.191769 L 15.117498 21.199286 A 0.73488848 0.73488848 0 0 0 15.204887 21.197031 L 15.338028 21.1835 L 15.648518 21.195528 A 0.73488848 0.73488848 0 0 0 15.863394 21.172224 L 15.910173 21.160196 L 16.296743 21.157941 L 16.525498 21.16621 L 16.875057 21.179741 A 0.73488848 0.73488848 0 0 0 16.97684 21.177486 L 17.17578 21.157941 L 17.359298 21.156437 L 17.544872 21.189514 A 0.73488848 0.73488848 0 0 0 17.654366 21.199286 L 17.929901 21.206804 L 18.077949 21.212818 A 0.73488848 0.73488848 0 0 0 18.086174 21.212818 L 18.511813 21.22259 A 0.73488848 0.73488848 0 0 0 18.554479 21.22259 L 18.798656 21.212818 L 19.152327 21.215073 L 19.339958 21.221087 L 19.704938 21.267694 A 0.73488848 0.73488848 0 0 0 19.808777 21.273708 L 20.009773 21.269949 A 0.73488848 0.73488848 0 0 0 20.060665 21.267694 L 20.306898 21.248149 L 20.554673 21.263936 A 0.73488848 0.73488848 0 0 0 20.667766 21.26168 L 21.037372 21.228604 A 0.73488848 0.73488848 0 0 0 21.138642 21.212818 L 21.281549 21.179741 A 0.73488848 0.73488848 0 0 0 21.302626 21.173727 L 21.417774 21.142906 L 21.75808 21.115092 L 22.052634 21.101561 A 0.73488848 0.73488848 0 0 0 22.19914 21.078257 L 22.404249 21.027139 L 22.550755 21.009849 L 22.740442 21.025635 L 22.988217 21.082016 A 0.73488848 0.73488848 0 0 0 23.095655 21.099306 L 23.443157 21.124865 A 0.73488848 0.73488848 0 0 0 23.552651 21.124865 L 23.783462 21.107575 A 0.73488848 0.73488848 0 0 0 23.980346 21.066229 L 24.271302 21.089533 A 0.73488848 0.73488848 0 0 0 24.394676 21.089533 L 24.474868 21.084271 L 24.543238 21.107575 A 0.73488848 0.73488848 0 0 0 24.7576 21.14441 L 25.14674 21.154182 A 0.73488848 0.73488848 0 0 0 25.166274 21.154182 L 25.535367 21.154182 L 25.707062 21.156437 A 0.73488848 0.73488848 0 0 0 26.302853 20.177678 L 26.249906 20.287431 A 0.73488848 0.73488848 0 0 0 26.275608 20.005531 A 0.73488848 0.73488848 0 0 0 26.263785 19.929605 L 26.281263 19.949151 A 0.73488848 0.73488848 0 0 0 26.296685 19.777003 L 26.195416 19.400384 A 0.73488848 0.73488848 0 0 0 26.175881 19.334231 L 26.074098 19.064358 A 0.73488848 0.73488848 0 0 0 25.914227 18.808768 L 25.847913 18.741864 L 25.841745 18.720815 L 25.853568 18.597531 A 0.73488848 0.73488848 0 0 0 25.726596 18.114916 L 25.515833 17.80896 L 25.445407 17.669889 A 0.73488848 0.73488848 0 0 0 25.250066 17.431589 L 25.155993 17.357167 L 25.066547 17.173744 L 25.039302 17.11135 L 25.04907 17.019638 A 0.73488848 0.73488848 0 0 0 24.984298 16.630991 L 24.896395 16.439299 L 24.765824 16.095756 A 0.73488848 0.73488848 0 0 0 24.719045 15.992016 L 24.681519 15.929622 L 24.67021 15.753716 A 0.73488848 0.73488848 0 0 0 24.595672 15.486098 L 24.50417 15.298916 L 24.478467 15.174128 A 0.73488848 0.73488848 0 0 0 24.4687 15.132783 L 24.398274 14.86742 A 0.73488848 0.73488848 0 0 0 24.361262 14.761425 L 24.25588 14.519367 L 24.142788 14.24799 A 0.73488848 0.73488848 0 0 0 24.136619 14.232204 L 24.060539 14.062312 L 24.031238 13.881143 L 24.03535 13.673664 A 0.73488848 0.73488848 0 0 0 23.992169 13.408302 L 23.884732 13.115125 A 0.73488848 0.73488848 0 0 0 23.877021 13.094077 L 23.763414 12.808417 L 23.699157 12.631008 L 23.658033 12.470888 L 23.588121 12.177711 A 0.73488848 0.73488848 0 0 0 23.570129 12.115317 L 23.488394 11.873258 L 23.496105 11.695097 A 0.73488848 0.73488848 0 0 0 23.496105 11.658262 L 23.494049 11.455294 A 0.73488848 0.73488848 0 0 0 23.46886 11.265856 L 23.384555 10.960652 A 0.73488848 0.73488848 0 0 0 23.353197 10.872699 L 23.273518 10.677999 L 23.235992 10.39685 A 0.73488848 0.73488848 0 0 0 22.992329 9.9367884 L 22.991815 9.9367884 L 22.95686 9.6819501 A 0.73488848 0.73488848 0 0 0 22.914193 9.5173201 L 22.800586 9.2263985 A 0.73488848 0.73488848 0 0 0 22.709084 9.0565063 L 22.675671 9.0114022 L 22.665904 8.935477 A 0.73488848 0.73488848 0 0 0 22.575944 8.6603419 L 22.41196 8.3709238 A 0.73488848 0.73488848 0 0 0 22.377004 8.3145436 L 22.333823 8.2521496 L 22.298867 8.0566984 A 0.73488848 0.73488848 0 0 0 22.279333 7.9807732 L 22.193486 7.6815825 A 0.73488848 0.73488848 0 0 0 22.191429 7.6778238 L 22.10918 7.4064474 A 0.73488848 0.73488848 0 0 0 22.10918 7.4026887 L 22.035156 7.1643886 A 0.73488848 0.73488848 0 0 0 22.019734 7.1155259 L 21.920008 6.8576806 L 21.816168 6.5765317 A 0.73488848 0.73488848 0 0 0 21.560682 6.2344921 L 21.435766 6.1442839 L 21.370995 5.8751626 A 0.73488848 0.73488848 0 0 0 20.755669 5.3166233 L 20.394288 5.2677605 A 0.73488848 0.73488848 0 0 0 20.209227 5.2677605 L 20.134689 5.2752779 L 19.90799 5.2655053 A 0.73488848 0.73488848 0 0 0 19.83191 5.2655053 L 19.554833 5.283547 A 0.73488848 0.73488848 0 0 0 19.332247 5.331658 L 19.079845 5.4316388 L 18.99811 5.4549426 L 18.66603 5.3609757 A 0.73488848 0.73488848 0 0 0 18.439331 5.3339132 L 18.074351 5.3474445 A 0.73488848 0.73488848 0 0 0 17.918077 5.3699965 L 17.943266 5.3632309 L 17.699089 5.3339132 A 0.73488848 0.73488848 0 0 0 17.657965 5.3301546 L 17.394768 5.3128646 L 17.036985 5.2873056 A 0.73488848 0.73488848 0 0 0 16.990205 5.2850504 L 16.855523 5.283547 L 16.484374 5.2752779 A 0.73488848 0.73488848 0 0 0 16.195474 5.3263959 L 16.16206 5.3399271 L 16.0721 5.3278994 A 0.73488848 0.73488848 0 0 0 15.980598 5.3226372 L 15.490189 5.3166233 A 0.73488848 0.73488848 0 0 0 15.449064 5.3181268 L 15.160164 5.3324098 L 15.056839 5.3324098 L 14.990012 5.3226372 A 0.73488848 0.73488848 0 0 0 14.859441 5.3143681 L 14.482638 5.3263959 L 14.207103 5.3324098 L 13.984517 5.3301546 L 13.831842 5.2910643 A 0.73488848 0.73488848 0 0 0 13.523408 5.2775331 L 13.283344 5.3181268 L 13.199039 5.3143681 L 12.929673 5.269264 A 0.73488848 0.73488848 0 0 0 12.790878 5.257988 L 12.513801 5.2640019 L 12.115407 5.2594914 A 0.73488848 0.73488848 0 0 0 12.025448 5.2655053 L 11.843986 5.2850504 A 0.73488848 0.73488848 0 0 0 11.527327 5.3985625 L 11.525271 5.4000659 L 11.441479 5.4023211 L 11.038973 5.3557136 A 0.73488848 0.73488848 0 0 0 10.935648 5.3512031 L 10.818443 5.3557136 A 0.73488848 0.73488848 0 0 0 10.755728 5.3594722 L 10.459117 5.3925486 A 0.73488848 0.73488848 0 0 0 10.429816 5.3963073 L 10.232418 5.4278801 L 9.9805307 5.4587013 L 9.6952293 5.4632117 L 9.5019441 5.4571978 L 9.3477271 5.4023211 A 0.73488848 0.73488848 0 0 0 9.0994378 5.3594722 L 8.8496063 5.3594722 L 8.5565941 5.3594722 L 8.3067626 5.3436858 A 0.73488848 0.73488848 0 0 0 8.2712927 5.3414306 L 8.0759513 5.3414306 A 0.73488848 0.73488848 0 0 0 8.0682404 5.3399271 L 7.7068587 5.3414306 L 7.4200151 5.3376719 A 0.73488848 0.73488848 0 0 0 7.2616857 5.3512031 L 7.1388262 5.3767621 L 7.0565772 5.3654861 L 6.845814 5.3128646 A 0.73488848 0.73488848 0 0 0 6.8067457 5.3045956 L 6.4767214 5.2399463 A 0.73488848 0.73488848 0 0 0 6.3826491 5.2286703 L 6.0469702 5.20687 A 0.73488848 0.73488848 0 0 0 5.9554681 5.20687 z M 6.6114042 6.163829 A 0.66821923 0.64864032 0 0 1 6.6946814 6.163829 L 7.000031 6.1826224 A 0.66821923 0.64864032 0 0 1 7.0853643 6.1931467 L 7.3855734 6.2502785 A 0.66821923 0.64864032 0 0 1 7.4210433 6.2570442 L 7.6127863 6.3036517 L 7.6873245 6.314176 L 7.7993889 6.291624 A 0.66821923 0.64864032 0 0 1 7.9433247 6.2795962 L 8.2039513 6.2826032 L 8.5329475 6.2810997 A 0.66821923 0.64864032 0 0 1 8.5396302 6.2826032 L 8.7174938 6.2826032 A 0.66821923 0.64864032 0 0 1 8.7493653 6.2848584 L 8.9765783 6.2983896 L 9.2428596 6.2983896 L 9.4705866 6.2983896 A 0.66821923 0.64864032 0 0 1 9.6957434 6.3359764 L 9.8360808 6.3848392 L 10.011888 6.3901013 L 10.271487 6.3863426 L 10.500242 6.3585284 L 10.679648 6.331466 A 0.66821923 0.64864032 0 0 1 10.706378 6.3277073 L 10.976258 6.2983896 A 0.66821923 0.64864032 0 0 1 11.033318 6.2946309 L 11.139728 6.291624 A 0.66821923 0.64864032 0 0 1 11.2338 6.2946309 L 11.599809 6.3359764 L 11.675889 6.3344729 L 11.677945 6.3329694 A 0.66821923 0.64864032 0 0 1 11.965817 6.2329886 L 12.130829 6.2156987 A 0.66821923 0.64864032 0 0 1 12.212564 6.2104366 L 12.574974 6.2141952 L 12.826862 6.2089331 A 0.66821923 0.64864032 0 0 1 12.952806 6.2194574 L 13.19801 6.2585476 L 13.274605 6.2623063 L 13.493079 6.226223 A 0.66821923 0.64864032 0 0 1 13.77324 6.2382508 L 13.912035 6.2728306 L 14.114573 6.2743341 L 14.364919 6.2690719 L 14.707794 6.2585476 A 0.66821923 0.64864032 0 0 1 14.826542 6.2653132 L 14.8872 6.2743341 L 14.981273 6.2743341 L 15.243955 6.2623063 A 0.66821923 0.64864032 0 0 1 15.281482 6.2608028 L 15.727169 6.2653132 A 0.66821923 0.64864032 0 0 1 15.810446 6.2705754 L 15.892181 6.2810997 L 15.92251 6.2690719 A 0.66821923 0.64864032 0 0 1 16.185193 6.2239678 L 16.522414 6.2314852 L 16.645274 6.2329886 A 0.66821923 0.64864032 0 0 1 16.68794 6.2344921 L 17.012824 6.2570442 L 17.252374 6.2728306 A 0.66821923 0.64864032 0 0 1 17.2899 6.2758375 L 17.511973 6.3021483 L 17.494495 6.3066587 A 0.66821923 0.64864032 0 0 1 17.63072 6.2878653 L 17.9628 6.2758375 A 0.66821923 0.64864032 0 0 1 18.168937 6.2998931 L 18.470688 6.382584 L 18.545226 6.3622871 L 18.774496 6.2743341 A 0.66821923 0.64864032 0 0 1 18.977034 6.2314852 L 19.228922 6.2156987 A 0.66821923 0.64864032 0 0 1 19.298319 6.2156987 L 19.504456 6.2239678 L 19.571797 6.2172022 A 0.66821923 0.64864032 0 0 1 19.740408 6.2172022 L 20.069404 6.2608028 A 0.66821923 0.64864032 0 0 1 20.628698 6.7531894 L 20.6873 6.9914895 L 20.800906 7.0704217 A 0.66821923 0.64864032 0 0 1 21.03326 7.3726193 L 21.127332 7.620692 L 21.21832 7.8484677 A 0.66821923 0.64864032 0 0 1 21.2322 7.8913167 L 21.300055 8.1018025 A 0.66821923 0.64864032 0 0 1 21.300055 8.1048095 L 21.374594 8.344613 A 0.66821923 0.64864032 0 0 1 21.376136 8.3483717 L 21.454272 8.6114791 A 0.66821923 0.64864032 0 0 1 21.472264 8.6791352 L 21.504136 8.8512826 L 21.543204 8.906911 A 0.66821923 0.64864032 0 0 1 21.575076 8.9565256 L 21.724152 9.2121155 A 0.66821923 0.64864032 0 0 1 21.805887 9.454926 L 21.81514 9.5218305 L 21.844955 9.5616725 A 0.66821923 0.64864032 0 0 1 21.928746 9.7120195 L 22.031558 9.9683612 A 0.66821923 0.64864032 0 0 1 22.070626 10.113446 L 22.101984 10.338967 A 0.66821923 0.64864032 0 0 1 22.32457 10.744152 L 22.357984 10.992225 L 22.43098 11.165124 A 0.66821923 0.64864032 0 0 1 22.459253 11.242553 L 22.535847 11.511674 A 0.66821923 0.64864032 0 0 1 22.55898 11.678559 L 22.560522 11.858224 A 0.66821923 0.64864032 0 0 1 22.560522 11.890548 L 22.553325 12.047661 L 22.628377 12.261154 A 0.66821923 0.64864032 0 0 1 22.644313 12.316782 L 22.708056 12.575379 L 22.745582 12.716705 L 22.804185 12.873066 L 22.906996 13.124898 A 0.66821923 0.64864032 0 0 1 22.914193 13.143691 L 23.011864 13.402288 A 0.66821923 0.64864032 0 0 1 23.050932 13.636829 L 23.047333 13.819501 L 23.074064 13.980372 L 23.143462 14.129968 A 0.66821923 0.64864032 0 0 1 23.148603 14.143499 L 23.251414 14.383303 L 23.347542 14.597547 A 0.66821923 0.64864032 0 0 1 23.38147 14.690011 L 23.445213 14.924552 A 0.66821923 0.64864032 0 0 1 23.453952 14.960635 L 23.477085 15.07114 L 23.560876 15.236522 A 0.66821923 0.64864032 0 0 1 23.628217 15.473319 L 23.639013 15.628176 L 23.672426 15.683053 A 0.66821923 0.64864032 0 0 1 23.715093 15.774765 L 23.834354 16.077714 L 23.914033 16.246854 A 0.66821923 0.64864032 0 0 1 23.972635 16.590397 L 23.963896 16.670833 L 23.988571 16.726461 L 24.070306 16.888084 L 24.155639 16.953485 A 0.66821923 0.64864032 0 0 1 24.332989 17.163971 L 24.397246 17.286504 L 24.588989 17.557129 A 0.66821923 0.64864032 0 0 1 24.704652 17.982611 L 24.693857 18.091613 L 24.698997 18.110406 L 24.759656 18.169041 A 0.66821923 0.64864032 0 0 1 24.905134 18.394562 L 24.997664 18.632862 A 0.66821923 0.64864032 0 0 1 25.015142 18.691497 L 25.107672 19.023764 A 0.66821923 0.64864032 0 0 1 25.093278 19.175615 L 25.077343 19.158325 A 0.66821923 0.64864032 0 0 1 25.088138 19.225229 A 0.66821923 0.64864032 0 0 1 25.065005 19.474054 L 25.112813 19.37708 A 0.66821923 0.64864032 0 0 1 24.571511 20.240824 L 24.415238 20.23932 L 24.079559 20.23932 A 0.66821923 0.64864032 0 0 1 24.061567 20.23932 L 23.70841 20.2303 A 0.66821923 0.64864032 0 0 1 23.513069 20.197975 L 23.450868 20.176926 L 23.377872 20.182188 A 0.66821923 0.64864032 0 0 1 23.265807 20.182188 L 23.001582 20.161892 A 0.66821923 0.64864032 0 0 1 22.822177 20.197975 L 22.612442 20.21301 A 0.66821923 0.64864032 0 0 1 22.513229 20.21301 L 22.197084 20.191209 A 0.66821923 0.64864032 0 0 1 22.099413 20.175423 L 21.873742 20.125808 L 21.701533 20.111525 L 21.568393 20.127312 L 21.38179 20.171664 A 0.66821923 0.64864032 0 0 1 21.24865 20.192713 L 20.980312 20.204741 L 20.671364 20.228796 L 20.566497 20.25661 A 0.66821923 0.64864032 0 0 1 20.546963 20.261872 L 20.41742 20.29119 A 0.66821923 0.64864032 0 0 1 20.32489 20.304721 L 19.989211 20.334039 A 0.66821923 0.64864032 0 0 1 19.8864 20.335542 L 19.660729 20.322011 L 19.437114 20.339301 A 0.66821923 0.64864032 0 0 1 19.390849 20.340805 L 19.207845 20.344563 A 0.66821923 0.64864032 0 0 1 19.113773 20.339301 L 18.781692 20.297956 L 18.611026 20.292694 L 18.28974 20.29119 L 18.067668 20.299459 A 0.66821923 0.64864032 0 0 1 18.0286 20.299459 L 17.641515 20.29119 A 0.66821923 0.64864032 0 0 1 17.634318 20.29119 L 17.499635 20.285928 L 17.24929 20.279162 A 0.66821923 0.64864032 0 0 1 17.149563 20.270142 L 16.980952 20.240824 L 16.813884 20.242327 L 16.632936 20.259617 A 0.66821923 0.64864032 0 0 1 16.540406 20.261872 L 16.222719 20.249845 L 16.01504 20.243079 L 15.663426 20.244583 L 15.620759 20.255107 A 0.66821923 0.64864032 0 0 1 15.425417 20.275404 L 15.142686 20.265631 L 15.021883 20.277659 A 0.66821923 0.64864032 0 0 1 14.942204 20.279162 L 14.699056 20.272397 L 14.407585 20.268638 L 14.128967 20.265631 A 0.66821923 0.64864032 0 0 1 14.126911 20.265631 L 13.892501 20.261872 L 13.638557 20.272397 L 13.354284 20.282921 A 0.66821923 0.64864032 0 0 1 13.281802 20.282921 L 13.139408 20.2739 L 13.107537 20.288183 A 0.66821923 0.64864032 0 0 1 12.796532 20.344563 L 12.562123 20.332536 L 12.242893 20.339301 L 12.036757 20.346819 L 11.718556 20.358846 A 0.66821923 0.64864032 0 0 1 11.66201 20.358846 L 11.493399 20.349825 A 0.66821923 0.64864032 0 0 1 11.479005 20.349825 L 11.33507 20.339301 L 11.223005 20.373881 A 0.66821923 0.64864032 0 0 1 11.10066 20.397937 L 10.818443 20.431013 A 0.66821923 0.64864032 0 0 1 10.761383 20.434772 L 10.445238 20.444544 L 10.249896 20.45131 A 0.66821923 0.64864032 0 0 1 10.202089 20.453565 L 9.9322094 20.446799 A 0.66821923 0.64864032 0 0 1 9.6767233 20.388916 L 9.7759362 20.432516 L 9.5877915 20.458827 A 0.66821923 0.64864032 0 0 1 9.4916629 20.464089 L 9.155984 20.461834 A 0.66821923 0.64864032 0 0 1 9.1220563 20.461834 L 8.8629718 20.448303 L 8.6712287 20.455068 A 0.66821923 0.64864032 0 0 1 8.6306183 20.455068 L 8.2661522 20.446048 L 8.1582003 20.458827 A 0.66821923 0.64864032 0 0 1 8.0692685 20.460331 L 7.7762563 20.45131 L 7.6857824 20.470855 A 0.66821923 0.64864032 0 0 1 7.5947944 20.480627 L 7.3943123 20.49491 A 0.66821923 0.64864032 0 0 1 7.3537018 20.49491 L 7.1527057 20.49491 A 0.66821923 0.64864032 0 0 1 7.1439668 20.49491 L 6.8242236 20.491152 A 0.66821923 0.64864032 0 0 1 6.6926252 20.47762 L 6.5132194 20.439282 L 6.2808659 20.429509 L 5.9986489 20.420489 L 5.9061187 20.436275 L 5.6665683 20.497917 A 0.66821923 0.64864032 0 0 1 5.6079659 20.509945 L 5.3766405 20.548284 A 0.66821923 0.64864032 0 0 1 5.199291 20.555049 L 4.9489454 20.530994 L 4.6842063 20.508442 A 0.66821923 0.64864032 0 0 1 4.5885918 20.49491 L 4.4585355 20.464089 L 4.2066478 20.441537 L 3.9650412 20.460331 A 0.66821923 0.64864032 0 0 1 3.8761095 20.461834 L 3.6098282 20.448303 A 0.66821923 0.64864032 0 0 1 3.4874827 20.431013 L 3.3450891 20.397937 L 3.0448801 20.373881 A 0.66821923 0.64864032 0 0 1 3.0238037 20.372378 L 2.7965908 20.346819 L 2.6207834 20.344563 A 0.66821923 0.64864032 0 0 1 2.4501167 20.319004 L 2.2336989 20.260369 L 2.0949036 20.253603 L 2.0470964 20.265631 A 0.66821923 0.64864032 0 0 1 1.2780678 19.37257 L 1.3736823 19.16058 L 1.4626141 18.953853 A 0.66821923 0.64864032 0 0 1 1.489345 18.899728 L 1.5428069 18.802003 L 1.5942126 18.57573 A 0.66821923 0.64864032 0 0 1 1.6224857 18.481012 L 1.7186142 18.241208 L 1.7967508 17.982611 L 1.8692328 17.739801 A 0.66821923 0.64864032 0 0 1 1.880028 17.708979 L 1.9566224 17.499997 L 2.0414417 17.262449 A 0.66821923 0.64864032 0 0 1 2.1678996 17.050459 L 2.2244459 16.986562 L 2.2866467 16.785097 A 0.66821923 0.64864032 0 0 1 2.4146468 16.555818 L 2.5333938 16.415995 L 2.6367192 16.245351 L 2.6793859 16.153639 L 2.7554662 15.905566 A 0.66821923 0.64864032 0 0 1 2.7909361 15.814607 L 2.8886069 15.616148 L 2.926133 15.489857 L 2.9528639 15.288392 A 0.66821923 0.64864032 0 0 1 3.0130086 15.089934 L 3.1163339 14.883207 L 3.1780207 14.693769 A 0.66821923 0.64864032 0 0 1 3.2335388 14.569733 L 3.3435469 14.381799 L 3.380559 14.240473 A 0.66821923 0.64864032 0 0 1 3.3964947 14.1871 L 3.4782297 13.959324 L 3.5687037 13.687196 A 0.66821923 0.64864032 0 0 1 3.5938924 13.621795 L 3.6756274 13.443633 L 3.6915632 13.359439 A 0.66821923 0.64864032 0 0 1 3.7023584 13.312832 L 3.7732982 13.052731 A 0.66821923 0.64864032 0 0 1 3.780495 13.024917 L 3.8586315 12.782106 L 3.9403665 12.48893 L 3.9953706 12.295734 A 0.66821923 0.64864032 0 0 1 3.9953706 12.292727 L 4.0606558 12.061192 A 0.66821923 0.64864032 0 0 1 4.0678525 12.035633 L 4.1516438 11.785305 A 0.66821923 0.64864032 0 0 1 4.1552422 11.771774 L 4.2364631 11.540991 L 4.3007202 11.344037 L 4.3413306 11.144075 A 0.66821923 0.64864032 0 0 1 4.5582625 10.783994 L 4.6929453 10.668227 L 4.7217324 10.604329 L 4.7643991 10.397602 A 0.66821923 0.64864032 0 0 1 4.7926722 10.30138 L 4.8548731 10.133743 L 4.9366081 9.8804082 A 0.66821923 0.64864032 0 0 1 4.9859575 9.7631375 L 5.0183431 9.7082608 L 5.0147447 9.6684189 A 0.66821923 0.64864032 0 0 1 5.0928813 9.2857856 L 5.190552 9.1136382 L 5.272287 8.9151801 L 5.3092991 8.7362671 L 5.3643031 8.4671459 A 0.66821923 0.64864032 0 0 1 5.4229055 8.2995089 L 5.5241747 8.1085682 L 5.5277731 8.1168372 A 0.66821923 0.64864032 0 0 1 5.5277731 8.1018025 A 0.66821923 0.64864032 0 0 1 5.5277731 8.0995473 A 0.66821923 0.64864032 0 0 1 5.5205763 7.7364592 L 5.5899739 7.5071799 L 5.6131065 7.3019562 A 0.66821923 0.64864032 0 0 1 5.708721 7.032835 L 5.7390503 6.9847239 L 5.7411065 6.9944965 A 0.66821923 0.64864032 0 0 1 6.1955325 6.2728306 L 6.4479343 6.1931467 A 0.66821923 0.64864032 0 0 1 6.6114042 6.163829 z M 22.878723 9.8556009 L 22.982562 9.9142363 L 22.988217 9.9337814 A 0.73488848 0.73488848 0 0 0 22.878723 9.8556009 z M 21.999686 10.2668 A 0.66821923 0.64864032 0 0 1 22.098899 10.33596 L 22.093759 10.31867 L 21.999686 10.2668 z " />
      <path
         style="baseline-shift:baseline;display:inline;overflow:visible;opacity:1;fill:#d8d8d8;fill-opacity:1;stroke-width:1.00012;stroke-linecap:square;stroke-linejoin:round;stroke-dasharray:none;enable-background:accumulate;stop-color:#000000;stop-opacity:1"
         d="M 10.328125,7.1542969 10.205078,7.6679687 10.162109,7.8496094 10.076172,7.6835937 9.8339844,7.2128906 8.8925781,7.6953125 9.1347656,8.1660156 9.2207031,8.3339844 9.046875,8.2617188 8.5566406,8.0605469 8.1542969,9.0390625 8.6425781,9.2402344 8.8144531,9.3105469 8.6386719,9.3691406 8.1347656,9.5332031 8.4628906,10.539063 8.9667969,10.375 l 0.1796875,-0.05859 -0.099609,0.16211 -0.2753906,0.451172 0.9023437,0.550781 0.2753907,-0.451172 0.097656,-0.160156 0.0293,0.185547 0.08398,0.523437 1.044922,-0.166016 -0.08398,-0.523437 -0.0293,-0.185547 0.142578,0.121094 0.402344,0.34375 0.6875,-0.804688 -0.402344,-0.34375 -0.142578,-0.1210935 h 0.1875 0.529297 V 8.8398438 h -0.529297 l 0.427734,-0.3125 -0.625,-0.8554688 -0.427734,0.3125 -0.150391,0.109375 0.04297,-0.1796875 0.123047,-0.515625 z"
         id="path6"
         transform="translate(-1.9593797,-0.36788653)" />
      <path
         style="baseline-shift:baseline;display:inline;overflow:visible;opacity:1;fill:#d8d8d8;fill-opacity:1;stroke-width:1.00012;stroke-linecap:square;stroke-linejoin:round;stroke-dasharray:none;enable-background:accumulate;stop-color:#000000;stop-opacity:1"
         d="M 10.328125,7.1542969 10.205078,7.6679687 10.162109,7.8496094 10.076172,7.6835937 9.8339844,7.2128906 8.8925781,7.6953125 9.1347656,8.1660156 9.2207031,8.3339844 9.046875,8.2617188 8.5566406,8.0605469 8.1542969,9.0390625 8.6425781,9.2402344 8.8144531,9.3105469 8.6386719,9.3691406 8.1347656,9.5332031 8.4628906,10.539063 8.9667969,10.375 l 0.1796875,-0.05859 -0.099609,0.16211 -0.2753906,0.451172 0.9023437,0.550781 0.2753907,-0.451172 0.097656,-0.160156 0.0293,0.185547 0.08398,0.523437 1.044922,-0.166016 -0.08398,-0.523437 -0.0293,-0.185547 0.142578,0.121094 0.402344,0.34375 0.6875,-0.804688 -0.402344,-0.34375 -0.142578,-0.1210935 h 0.1875 0.529297 V 8.8398438 h -0.529297 l 0.427734,-0.3125 -0.625,-0.8554688 -0.427734,0.3125 -0.150391,0.109375 0.04297,-0.1796875 0.123047,-0.515625 z"
         id="path6-2"
         transform="translate(-4.0876797,4.17577)" />
      <path
         style="baseline-shift:baseline;display:inline;overflow:visible;opacity:1;fill:#d8d8d8;fill-opacity:1;stroke-width:1.00012;stroke-linecap:square;stroke-linejoin:round;stroke-dasharray:none;enable-background:accumulate;stop-color:#000000;stop-opacity:1"
         d="M 10.328125,7.1542969 10.205078,7.6679687 10.162109,7.8496094 10.076172,7.6835937 9.8339844,7.2128906 8.8925781,7.6953125 9.1347656,8.1660156 9.2207031,8.3339844 9.046875,8.2617188 8.5566406,8.0605469 8.1542969,9.0390625 8.6425781,9.2402344 8.8144531,9.3105469 8.6386719,9.3691406 8.1347656,9.5332031 8.4628906,10.539063 8.9667969,10.375 l 0.1796875,-0.05859 -0.099609,0.16211 -0.2753906,0.451172 0.9023437,0.550781 0.2753907,-0.451172 0.097656,-0.160156 0.0293,0.185547 0.08398,0.523437 1.044922,-0.166016 -0.08398,-0.523437 -0.0293,-0.185547 0.142578,0.121094 0.402344,0.34375 0.6875,-0.804688 -0.402344,-0.34375 -0.142578,-0.1210935 h 0.1875 0.529297 V 8.8398438 h -0.529297 l 0.427734,-0.3125 -0.625,-0.8554688 -0.427734,0.3125 -0.150391,0.109375 0.04297,-0.1796875 0.123047,-0.515625 z"
         id="path6-2-7"
         transform="translate(-5.8218809,8.5250808)" />
      <path
         style="baseline-shift:baseline;display:inline;overflow:visible;opacity:1;fill:#d8d8d8;fill-opacity:1;stroke-width:1.00012;stroke-linecap:square;stroke-linejoin:round;stroke-dasharray:none;enable-background:accumulate;stop-color:#000000;stop-opacity:1"
         d="M 10.328125,7.1542969 10.205078,7.6679687 10.162109,7.8496094 10.076172,7.6835937 9.8339844,7.2128906 8.8925781,7.6953125 9.1347656,8.1660156 9.2207031,8.3339844 9.046875,8.2617188 8.5566406,8.0605469 8.1542969,9.0390625 8.6425781,9.2402344 8.8144531,9.3105469 8.6386719,9.3691406 8.1347656,9.5332031 8.4628906,10.539063 8.9667969,10.375 l 0.1796875,-0.05859 -0.099609,0.16211 -0.2753906,0.451172 0.9023437,0.550781 0.2753907,-0.451172 0.097656,-0.160156 0.0293,0.185547 0.08398,0.523437 1.044922,-0.166016 -0.08398,-0.523437 -0.0293,-0.185547 0.142578,0.121094 0.402344,0.34375 0.6875,-0.804688 -0.402344,-0.34375 -0.142578,-0.1210935 h 0.1875 0.529297 V 8.8398438 h -0.529297 l 0.427734,-0.3125 -0.625,-0.8554688 -0.427734,0.3125 -0.150391,0.109375 0.04297,-0.1796875 0.123047,-0.515625 z"
         id="path11"
         transform="translate(2.9507185,-0.31397761)" />
      <path
         style="baseline-shift:baseline;display:inline;overflow:visible;opacity:1;fill:#d8d8d8;fill-opacity:1;stroke-width:1.00012;stroke-linecap:square;stroke-linejoin:round;stroke-dasharray:none;enable-background:accumulate;stop-color:#000000;stop-opacity:1"
         d="M 10.328125,7.1542969 10.205078,7.6679687 10.162109,7.8496094 10.076172,7.6835937 9.8339844,7.2128906 8.8925781,7.6953125 9.1347656,8.1660156 9.2207031,8.3339844 9.046875,8.2617188 8.5566406,8.0605469 8.1542969,9.0390625 8.6425781,9.2402344 8.8144531,9.3105469 8.6386719,9.3691406 8.1347656,9.5332031 8.4628906,10.539063 8.9667969,10.375 l 0.1796875,-0.05859 -0.099609,0.16211 -0.2753906,0.451172 0.9023437,0.550781 0.2753907,-0.451172 0.097656,-0.160156 0.0293,0.185547 0.08398,0.523437 1.044922,-0.166016 -0.08398,-0.523437 -0.0293,-0.185547 0.142578,0.121094 0.402344,0.34375 0.6875,-0.804688 -0.402344,-0.34375 -0.142578,-0.1210935 h 0.1875 0.529297 V 8.8398438 h -0.529297 l 0.427734,-0.3125 -0.625,-0.8554688 -0.427734,0.3125 -0.150391,0.109375 0.04297,-0.1796875 0.123047,-0.515625 z"
         id="path13"
         transform="translate(7.6028545,-0.48012532)" />
      <path
         style="baseline-shift:baseline;display:inline;overflow:visible;opacity:1;fill:#d8d8d8;fill-opacity:1;stroke-width:1.00012;stroke-linecap:square;stroke-linejoin:round;stroke-dasharray:none;enable-background:accumulate;stop-color:#000000;stop-opacity:1"
         d="M 10.328125,7.1542969 10.205078,7.6679687 10.162109,7.8496094 10.076172,7.6835937 9.8339844,7.2128906 8.8925781,7.6953125 9.1347656,8.1660156 9.2207031,8.3339844 9.046875,8.2617188 8.5566406,8.0605469 8.1542969,9.0390625 8.6425781,9.2402344 8.8144531,9.3105469 8.6386719,9.3691406 8.1347656,9.5332031 8.4628906,10.539063 8.9667969,10.375 l 0.1796875,-0.05859 -0.099609,0.16211 -0.2753906,0.451172 0.9023437,0.550781 0.2753907,-0.451172 0.097656,-0.160156 0.0293,0.185547 0.08398,0.523437 1.044922,-0.166016 -0.08398,-0.523437 -0.0293,-0.185547 0.142578,0.121094 0.402344,0.34375 0.6875,-0.804688 -0.402344,-0.34375 -0.142578,-0.1210935 h 0.1875 0.529297 V 8.8398438 h -0.529297 l 0.427734,-0.3125 -0.625,-0.8554688 -0.427734,0.3125 -0.150391,0.109375 0.04297,-0.1796875 0.123047,-0.515625 z"
         id="path15"
         transform="translate(0.62465045,4.1387812)" />
      <path
         style="baseline-shift:baseline;display:inline;overflow:visible;opacity:1;fill:#d8d8d8;fill-opacity:1;stroke-width:1.00012;stroke-linecap:square;stroke-linejoin:round;stroke-dasharray:none;enable-background:accumulate;stop-color:#000000;stop-opacity:1"
         d="M 10.328125,7.1542969 10.205078,7.6679687 10.162109,7.8496094 10.076172,7.6835937 9.8339844,7.2128906 8.8925781,7.6953125 9.1347656,8.1660156 9.2207031,8.3339844 9.046875,8.2617188 8.5566406,8.0605469 8.1542969,9.0390625 8.6425781,9.2402344 8.8144531,9.3105469 8.6386719,9.3691406 8.1347656,9.5332031 8.4628906,10.539063 8.9667969,10.375 l 0.1796875,-0.05859 -0.099609,0.16211 -0.2753906,0.451172 0.9023437,0.550781 0.2753907,-0.451172 0.097656,-0.160156 0.0293,0.185547 0.08398,0.523437 1.044922,-0.166016 -0.08398,-0.523437 -0.0293,-0.185547 0.142578,0.121094 0.402344,0.34375 0.6875,-0.804688 -0.402344,-0.34375 -0.142578,-0.1210935 h 0.1875 0.529297 V 8.8398438 h -0.529297 l 0.427734,-0.3125 -0.625,-0.8554688 -0.427734,0.3125 -0.150391,0.109375 0.04297,-0.1796875 0.123047,-0.515625 z"
         id="path17"
         transform="translate(5.1770979,4.0723221)" />
      <path
         style="baseline-shift:baseline;display:inline;overflow:visible;opacity:1;fill:#d8d8d8;fill-opacity:1;stroke-width:1.00012;stroke-linecap:square;stroke-linejoin:round;stroke-dasharray:none;enable-background:accumulate;stop-color:#000000;stop-opacity:1"
         d="M 10.328125,7.1542969 10.205078,7.6679687 10.162109,7.8496094 10.076172,7.6835937 9.8339844,7.2128906 8.8925781,7.6953125 9.1347656,8.1660156 9.2207031,8.3339844 9.046875,8.2617188 8.5566406,8.0605469 8.1542969,9.0390625 8.6425781,9.2402344 8.8144531,9.3105469 8.6386719,9.3691406 8.1347656,9.5332031 8.4628906,10.539063 8.9667969,10.375 l 0.1796875,-0.05859 -0.099609,0.16211 -0.2753906,0.451172 0.9023437,0.550781 0.2753907,-0.451172 0.097656,-0.160156 0.0293,0.185547 0.08398,0.523437 1.044922,-0.166016 -0.08398,-0.523437 -0.0293,-0.185547 0.142578,0.121094 0.402344,0.34375 0.6875,-0.804688 -0.402344,-0.34375 -0.142578,-0.1210935 h 0.1875 0.529297 V 8.8398438 h -0.529297 l 0.427734,-0.3125 -0.625,-0.8554688 -0.427734,0.3125 -0.150391,0.109375 0.04297,-0.1796875 0.123047,-0.515625 z"
         id="path19"
         transform="translate(9.6298571,4.1055516)" />
      <path
         style="baseline-shift:baseline;display:inline;overflow:visible;opacity:1;fill:#d8d8d8;fill-opacity:1;stroke-width:1.00012;stroke-linecap:square;stroke-linejoin:round;stroke-dasharray:none;enable-background:accumulate;stop-color:#000000;stop-opacity:1"
         d="M 10.328125,7.1542969 10.205078,7.6679687 10.162109,7.8496094 10.076172,7.6835937 9.8339844,7.2128906 8.8925781,7.6953125 9.1347656,8.1660156 9.2207031,8.3339844 9.046875,8.2617188 8.5566406,8.0605469 8.1542969,9.0390625 8.6425781,9.2402344 8.8144531,9.3105469 8.6386719,9.3691406 8.1347656,9.5332031 8.4628906,10.539063 8.9667969,10.375 l 0.1796875,-0.05859 -0.099609,0.16211 -0.2753906,0.451172 0.9023437,0.550781 0.2753907,-0.451172 0.097656,-0.160156 0.0293,0.185547 0.08398,0.523437 1.044922,-0.166016 -0.08398,-0.523437 -0.0293,-0.185547 0.142578,0.121094 0.402344,0.34375 0.6875,-0.804688 -0.402344,-0.34375 -0.142578,-0.1210935 h 0.1875 0.529297 V 8.8398438 h -0.529297 l 0.427734,-0.3125 -0.625,-0.8554688 -0.427734,0.3125 -0.150391,0.109375 0.04297,-0.1796875 0.123047,-0.515625 z"
         id="path21"
         transform="translate(-1.269433,8.5250808)"
         inkscape:label="path21" />
      <path
         style="baseline-shift:baseline;display:inline;overflow:visible;opacity:1;fill:#d8d8d8;fill-opacity:1;stroke-width:1.00012;stroke-linecap:square;stroke-linejoin:round;stroke-dasharray:none;enable-background:accumulate;stop-color:#000000;stop-opacity:1"
         d="M 10.328125,7.1542969 10.205078,7.6679687 10.162109,7.8496094 10.076172,7.6835937 9.8339844,7.2128906 8.8925781,7.6953125 9.1347656,8.1660156 9.2207031,8.3339844 9.046875,8.2617188 8.5566406,8.0605469 8.1542969,9.0390625 8.6425781,9.2402344 8.8144531,9.3105469 8.6386719,9.3691406 8.1347656,9.5332031 8.4628906,10.539063 8.9667969,10.375 l 0.1796875,-0.05859 -0.099609,0.16211 -0.2753906,0.451172 0.9023437,0.550781 0.2753907,-0.451172 0.097656,-0.160156 0.0293,0.185547 0.08398,0.523437 1.044922,-0.166016 -0.08398,-0.523437 -0.0293,-0.185547 0.142578,0.121094 0.402344,0.34375 0.6875,-0.804688 -0.402344,-0.34375 -0.142578,-0.1210935 h 0.1875 0.529297 V 8.8398438 h -0.529297 l 0.427734,-0.3125 -0.625,-0.8554688 -0.427734,0.3125 -0.150391,0.109375 0.04297,-0.1796875 0.123047,-0.515625 z"
         id="path23"
         transform="translate(3.3494734,8.4918514)" />
      <path
         style="baseline-shift:baseline;display:inline;overflow:visible;opacity:1;fill:#d8d8d8;fill-opacity:1;stroke-width:1.00012;stroke-linecap:square;stroke-linejoin:round;stroke-dasharray:none;enable-background:accumulate;stop-color:#000000;stop-opacity:1"
         d="M 10.328125,7.1542969 10.205078,7.6679687 10.162109,7.8496094 10.076172,7.6835937 9.8339844,7.2128906 8.8925781,7.6953125 9.1347656,8.1660156 9.2207031,8.3339844 9.046875,8.2617188 8.5566406,8.0605469 8.1542969,9.0390625 8.6425781,9.2402344 8.8144531,9.3105469 8.6386719,9.3691406 8.1347656,9.5332031 8.4628906,10.539063 8.9667969,10.375 l 0.1796875,-0.05859 -0.099609,0.16211 -0.2753906,0.451172 0.9023437,0.550781 0.2753907,-0.451172 0.097656,-0.160156 0.0293,0.185547 0.08398,0.523437 1.044922,-0.166016 -0.08398,-0.523437 -0.0293,-0.185547 0.142578,0.121094 0.402344,0.34375 0.6875,-0.804688 -0.402344,-0.34375 -0.142578,-0.1210935 h 0.1875 0.529297 V 8.8398438 h -0.529297 l 0.427734,-0.3125 -0.625,-0.8554688 -0.427734,0.3125 -0.150391,0.109375 0.04297,-0.1796875 0.123047,-0.515625 z"
         id="path25"
         transform="translate(7.8354617,8.3921626)" />
      <path
         style="baseline-shift:baseline;display:inline;overflow:visible;opacity:1;fill:#d8d8d8;fill-opacity:1;stroke-width:1.00003234;stroke-linecap:butt;stroke-linejoin:round;stroke-dasharray:none;enable-background:accumulate;stop-color:#000000;stop-opacity:1;stroke:none;stroke-opacity:1"
         d="M 10.328125,7.1542969 10.205078,7.6679687 10.162109,7.8496094 10.076172,7.6835937 9.8339844,7.2128906 8.8925781,7.6953125 9.1347656,8.1660156 9.2207031,8.3339844 9.046875,8.2617188 8.5566406,8.0605469 8.1542969,9.0390625 8.6425781,9.2402344 8.8144531,9.3105469 8.6386719,9.3691406 8.1347656,9.5332031 8.4628906,10.539063 8.9667969,10.375 l 0.1796875,-0.05859 -0.099609,0.16211 -0.2753906,0.451172 0.9023437,0.550781 0.2753907,-0.451172 0.097656,-0.160156 0.0293,0.185547 0.08398,0.523437 1.044922,-0.166016 -0.08398,-0.523437 -0.0293,-0.185547 0.142578,0.121094 0.402344,0.34375 0.6875,-0.804688 -0.402344,-0.34375 -0.142578,-0.1210935 h 0.1875 0.529297 V 8.8398438 h -0.529297 l 0.427734,-0.3125 -0.625,-0.8554688 -0.427734,0.3125 -0.150391,0.109375 0.04297,-0.1796875 0.123047,-0.515625 z"
         id="path27"
         transform="translate(12.32145,8.1927853)"
         inkscape:label="path27" />
    </g>
    <g
       id="g32"
       transform="matrix(1.0709786,0,0,1.0709791,-0.94413766,-3.1943485)">
      <g
         id="g30"
         transform="matrix(0.21801398,-0.17124736,0.17124736,0.21801398,12.227154,8.5265757)">
        <path
           style="fill:none;fill-opacity:1;stroke:#d8d8d8;stroke-width:1.8361;stroke-linecap:round;stroke-linejoin:round;stroke-dasharray:none;stroke-opacity:1"
           d="m 15.978266,14.820759 -0.105598,0.02481 -0.06547,0.10713 -0.02607,0.0083 -0.09122,0.07632 -0.02242,0.07872 -0.01235,0.08764 -0.0677,0.0099 -0.134087,0.127938 -0.0045,0.0376 -0.03294,0.08662 -0.02882,0.05715 -0.01713,0.06942 0.0321,-0.0265 -0.0099,0.114233 -0.07755,0.134322 -0.01838,0.06701 0.01793,0.07174 0.0068,0.07822 -0.109455,0.07716 0.0042,-0.05789 -0.01497,0.190254 -0.01208,0.07249 -0.06608,0.102212 -0.01071,0.02275 -0.01563,0.07701 -0.02529,0.05534 -0.07853,0.07106 -0.0056,0.03917 0.0096,0.119582 -0.03627,0.07867 -0.0081,-0.0056 -0.03401,0.183435 -0.07839,0.06203 -0.05288,0.09232 -0.08885,0.06221 0.01083,0.03752 0.0229,0.13364 0.01852,-0.07112 0.08139,0.190794 -0.02555,0.04508 -0.07177,0.04522 -0.0543,0.146325 0.01995,0.04632 -0.02833,0.07166 0.01059,-0.0099 0.0211,0.117125 0.05326,0.02322 0.0041,0.07325 0.0011,0.01083 -0.0096,0.136321 0.0261,0.130476 0.0039,0.03599 0.115697,0.02434 0.09291,-0.137779 0.09664,0.01374 0.02791,0.0375 0.138181,0.01388 0.0961,0.02757 0.02412,0.0023 0.03044,0.0273 0.104055,0.01179 0.0956,-0.02915 -0.0462,0.02957 0.170047,0.03868 0.06628,0.02903 0.133185,0.03757 0.05916,0.02896 -0.03294,-0.07965 0.106243,0.0343 0.02166,-0.02643 0.188011,0.05428 0.111229,0.04012 -0.03289,-0.06328 -0.01695,-0.02082 -0.09969,-0.01013 -0.116321,-0.02364 -0.06067,-0.120789 -0.0178,-0.0015 -0.17973,0.006 -0.0021,-0.03849 -0.05789,-0.03649 -0.127298,0.02913 -0.05766,-0.02651 -0.03353,-0.02545 -0.133033,-0.0088 -0.06006,-0.0038 -0.08391,-4.5e-4 -0.08575,-0.08042 -0.0555,-0.04658 -0.05966,0.0309 -0.09642,-0.10964 -0.08234,-0.01564 -0.06277,1.96e-4 -0.144077,0.03845 -0.01636,-0.01702 -0.16244,0.03644 -0.02791,-0.01025 -0.01841,-0.129187 -0.06595,-0.04343 -0.183347,0.0202 -0.0073,0.02591 -0.09768,0.01579 -0.07257,0.01407 3.4e-4,0.01662 -0.09358,0.0069 -0.116879,0.02326 -0.08313,0.02307 0.0028,0.0014 -0.137193,0.01728 -0.02588,0.02441 -0.04216,0.01194 -0.104516,-0.01305 -0.12518,-0.02967 -0.172306,0.02798 0.05372,0.0087 -0.113486,-0.07656 -0.0553,-0.0056 -0.07877,0.0014 -0.107015,-0.03917 -0.06621,0.0067 0.0014,0.01573 -0.111953,-0.0039 0.02105,0.03429 -0.183302,0.03226 0.04864,0.0295 -0.144171,-0.032 -0.107877,0.0039"
           id="path7"
           sodipodi:nodetypes="cccc" />
        <path
           style="fill:none;fill-opacity:1;stroke:#d8d8d8;stroke-width:1.8361;stroke-linecap:round;stroke-linejoin:round;stroke-dasharray:none;stroke-opacity:1"
           d="m 20.526497,15.071507 -0.01036,0.02079 0.05012,0.135378 0.01318,0.01083 0.0637,0.07422 0.05652,0.07758 0.01764,0.07433 0.05294,0.0042 0.03313,0.122509 0.01828,0.0486 -0.01594,0.08025 0.02672,0.06382 0.01394,0.06412 0.03271,-0.02996 0.0061,0.09594 0.101304,0.132782 0.02919,0.0532 0.01935,0.06443 0.0059,0.06967 -0.0033,0.07209 0.01655,-0.04822 0.07944,0.179397 0.02118,0.0606 0.07641,0.09645 0.009,0.0136 0.01785,0.07228 0.04044,0.0509 0.01305,0.06466 0.01709,0.03379 -0.0087,0.11481 0.0035,0.07786 0.02039,-0.0095 0.05257,0.176472 -0.03624,0.05609 8.25e-4,0.08384 0.004,0.05118 -0.02075,0.0069 0.120013,0.139943 0.03122,-0.07837 -0.106208,0.195004 -0.01409,0.07977 0.09059,0.05153 0.0083,0.100416 -0.09891,0.02449 0.102581,0.116111 0.0309,-0.04789 0.110204,0.102361 0.01834,0.02459 -0.0806,-0.05044 -0.06716,-0.107496 -0.104998,-0.03108 -0.119112,0.02548 -0.04264,0.03652 -0.111725,0.02393 -0.0086,-0.143339 -0.126467,0.03469 0.01702,0.04505 -0.126691,0.03481 -0.07763,0.04274 -0.05532,0.01736 -0.139848,0.03686 -0.0022,-0.0035 -0.07878,-0.02 -0.04973,0.04163 -0.07989,0.03475 -0.03047,0.03883 -0.08252,0.05525 -0.09563,0.04594 -0.02101,-0.07201 -0.196027,0.03948 0.02565,-0.04131 -0.03268,0.04495 -0.222829,0.07093 v -0.05124 l -0.07494,0.0046 -0.06676,0.02324 -0.07578,0.0069 -0.04759,-0.09338 -0.159772,0.07985 -0.07152,0.03809 -0.01716,-0.02115 -0.08938,0.02978 -0.07298,0.0921 -0.01959,-0.0076 -0.05158,0.03185 -0.04758,0.05539 -0.06663,0.0444 -0.02392,0.04079 -0.03811,-0.04262 0.0687,-0.05331 -0.04641,0.02529 0.179196,-0.128951 0.06242,-0.02165 0.06249,-0.0066 -0.0021,0.0311 0.0925,-0.03164 0.09029,0.02507 0.101925,-0.02067 0.07423,-0.135321 0.06945,-0.05184 0.01277,0.0089 0.08413,0.01907 0.154978,0.0062 -0.04108,0.01166 0.08238,0.0066 0.108879,-0.0041 -0.03359,0.01593 0.09372,0.009 0.09541,-0.01059 0.09411,0.008 0.137653,0.01737 -0.07138,0.01347 0.206657,-0.02385 0.0405,-0.02779 0.0087,0.02435 0.08816,-0.0028 0.119194,-0.08139 0.02907,-0.01025 0.0574,-0.0074 0.08178,-0.04874 0.06575,-0.0035 0.109225,0.0041 0.0099,-0.01841 0.171149,0.01695 -0.07068,0.02392 0.02258,0.02455 0.197841,-0.01613 0.119903,0.01105 -0.04694,0.01374 0.177396,-0.02669 0.01002,-0.0034 0.05507,-0.0073 0.06132,0.0032 0.06885,-0.01533 0.06727,-0.02786 0.06357,-0.06289 0.103318,-3.32e-4 0.09536,-0.0062 7.04e-4,-0.0342 0.06392,-0.0074 0.07277,0.01679 0.08819,-0.01824 0.08818,0.03734 0.02151,-0.06695 0.133352,0.0505 0.04459,0.002 0.05528,4.25e-4 0.08462,0.0021 0.0503,-0.0011 0.147769,0.01531"
           id="path8"
           sodipodi:nodetypes="cccc" />
        <path
           style="display:inline;fill:none;stroke:#d8d8d8;stroke-width:1.5875;stroke-linecap:round;stroke-linejoin:round;stroke-dasharray:none;stroke-opacity:1"
           d="m 9.0195659,2.8236801 c 0.3360519,0.012502 0.6610532,-0.046232 0.9505567,-0.00441 0.2630124,-0.038467 0.5215524,0.1434593 0.7891664,0.2201174 0.184287,0.1125963 0.480481,0.1034149 0.707569,0.2060674 0.187215,0.03616 0.352054,0.1705989 0.540231,0.292704 0.114267,0.080717 0.396128,0.2585667 0.557445,0.4001032 0.156869,0.1123827 0.306624,0.2628638 0.419014,0.3845564 0.154176,0.1366935 0.164989,0.1286926 0.251328,0.2392345 0.08626,0.056414 0.372502,0.3350132 0.467952,0.4830404 0.211494,0.1280306 0.110644,0.1825128 0.159395,0.2703933 0.06459,0.1202539 0.02878,0.2621027 0.08153,0.370679 -0.04012,0.141369 0.138177,0.2218309 0.195242,0.3158951 0.0781,0.087461 0.130779,0.161806 0.180584,0.2272601 0.08012,0.067527 0.120617,-0.059713 0.166606,-0.015968 0.05199,0.049449 -0.03427,0.1573144 0.03391,0.1749024 0.386495,0.099698 0.712691,0.2059065 1.066947,0.309756 0.324292,0.1121849 0.723174,0.2227157 1.058236,0.3343719 0.325065,0.1118753 0.639547,0.2206876 0.93176,0.3304864 0.301164,0.1137325 0.573878,0.2286588 0.835952,0.3393743 0.270775,0.120577 0.354212,0.2358394 0.589901,0.3476351 0.12609,0.1476634 0.546738,0.057584 0.795022,0.1919726 0.247166,-0.076838 0.406896,0.2786011 0.622526,0.4138757 0.134419,0.1388131 0.580838,0.2653221 0.760088,0.3939562 0.306295,0.0954 0.127464,0.2379668 0.236679,0.3246031 0.04894,0.1892046 0.30527,0.226699 0.441097,0.3494634 0.130286,0.094094 0.248121,0.2190872 0.358799,0.3331044 0.109279,0.09992 0.207699,0.18022 0.30069,0.289994 0.09631,0.07281 0.236768,0.186881 0.318684,0.300317 0.125463,0.06221 0.132879,0.104993 0.195444,0.209541 0.06453,0.02308 0.171305,0.243589 0.229933,0.373582 0.06948,0.07962 0.187872,0.193001 0.221559,0.290283 0.13383,0.08045 0.07022,0.01926 0.08779,0.102266 0.04533,-0.01965 -0.136974,0.329144 -0.132898,0.467291 -0.175732,0.116039 -0.03364,0.155459 -0.02222,0.211305 -0.0292,0.103012 0.07861,0.183996 0.105067,0.23723 0.05631,0.08684 0.01882,0.07519 0.02971,0.09604 0.0252,0.04823 -0.04881,-0.04216 -0.0464,0.003 0.0023,0.04303 0.122957,0.122155 0.121231,0.179903 0.118609,0.08144 -0.02526,-0.107967 -0.0311,-0.04366 -0.03184,-0.09054 -0.02878,0.298208 -0.06071,0.469216 -0.01119,0.09637 -0.09795,0.167555 -0.117977,0.255119 -0.08591,0.09221 -0.0176,0.129055 -0.04332,0.224481 -0.0068,0.06804 -0.100091,0.300803 -0.141906,0.430012 -0.06076,0.148064 -0.164911,0.151346 -0.19978,0.247077 -0.144932,0.08074 -0.05804,0.221223 -0.107536,0.341164 -0.02337,0.116262 -0.113051,0.07063 -0.17541,0.202863 -0.08351,-0.01677 -0.11593,0.266129 -0.214002,0.44347 -0.0304,0.07208 -0.243117,0.151645 -0.341703,0.306877 -0.163078,-0.0048 -0.182038,0.185085 -0.291094,0.337382 -0.09296,0.03432 -0.225834,0.07685 -0.348692,0.229196 -0.134995,-0.06208 -0.276675,0.225997 -0.427553,0.392284 -0.128455,0.03397 -0.256453,0.284028 -0.395887,0.423083 -0.118621,0.125996 -0.201851,0.290487 -0.333204,0.409377 -0.0877,0.16999 -0.262974,0.257164 -0.407381,0.373423 -0.136811,0.135262 -0.295412,-0.04194 -0.452653,0.06918 -0.198025,-0.132555 -0.462488,0.270138 -0.681269,0.406686 -0.219763,0.0927 -0.393573,0.246717 -0.56845,0.344883 -0.230684,0.139187 -0.402549,0.179126 -0.582541,0.267739 -0.252261,0.0869 -0.274208,0.225709 -0.479841,0.311671 -0.132198,0.143749 -0.526337,0.202867 -0.807249,0.2865 -0.258168,0.07653 -0.401437,0.171897 -0.675626,0.226623 -0.189305,0.09174 -0.606311,0.09759 -0.955689,0.124968 -0.281361,0.01771 -0.651323,-0.03594 -0.991163,-0.0346 -0.341087,0.0013 -0.81912,0.09887 -1.155106,0.07539 -0.186876,-0.01355 -0.502263,-0.01272 -0.683003,-0.03614 -0.269714,0.0015 -0.29452,-0.0016 -0.428902,-0.02518 -0.192532,0.0068 -0.449474,-0.0095 -0.61566,-0.04898 -0.249625,0.02196 -0.332564,-0.01684 -0.469708,-0.0572 -0.209023,0.0075 -0.270281,-0.245784 -0.421753,-0.300998 C 9.9057308,19.264067 9.7642552,19.365955 9.6145964,19.300319 9.4972456,19.240123 9.3665278,19.067826 9.2039071,18.981751 9.1361516,18.821511 9.0399773,18.83574 8.8899775,18.742594 8.8614743,18.65909 8.5674408,18.584082 8.4010822,18.46172 8.2802081,18.421418 8.1141487,18.147556 7.976065,18.030654 7.8699611,17.845446 7.6572208,17.826097 7.5553948,17.730815 7.3519779,17.620103 7.3681242,17.560454 7.2775428,17.467344 7.1632056,17.358888 7.0908663,17.207358 6.983026,17.082718 6.9136609,16.936433 6.7772688,16.617803 6.6754636,16.486018 6.6160411,16.188071 6.5485122,16.319792 6.4844648,16.231128 6.3916974,16.103222 6.2519468,15.98759 6.160307,15.846638 6.0287395,15.73576 6.0029051,15.493463 5.9178013,15.346616 5.8635584,15.145636 5.7469142,15.023927 5.6751216,14.886762 5.5846698,14.69631 5.4404518,14.68108 5.3747189,14.541509 5.2013941,14.443331 5.1983442,14.165241 5.1291092,13.992803 5.0433305,13.79917 5.0224725,13.647467 4.9683196,13.490117 4.9245693,13.28939 4.896977,13.158792 4.8480921,12.991033 4.8328993,12.808082 4.7417693,12.62716 4.6965579,12.441221 4.6473593,12.258399 4.5816425,12.080554 4.5444747,11.892154 4.4775728,11.710991 4.4559617,11.368994 4.4270679,11.173708 4.3868513,10.882979 4.3886081,10.793479 4.3717865,10.644959 4.3549647,10.387654 4.2332938,10.359064 4.2200639,10.187463 4.1007385,10.027801 4.1996977,9.5440554 4.2042459,9.3136804 4.2075323,8.9655627 4.2133358,8.9940901 4.2218226,8.857811 4.2342743,8.6232438 4.3153373,8.4626231 4.3325785,8.2564115 4.3485025,8.0659528 4.2859782,7.9320636 4.297562,7.686962 4.3101013,7.3369105 4.3424074,6.9805368 4.3969416,6.6790363 4.4467008,6.3565073 4.3269039,6.1867453 4.4126592,5.9379605 4.3270195,5.6932675 4.6271215,5.3250761 4.7800518,5.0720919 4.8845555,4.8358063 5.0438659,4.4190701 5.2002344,4.2418384 5.3070389,3.8660081 5.4620995,3.8924681 5.5929141,3.7807422 5.7664209,3.5557599 5.8730457,3.5504542 6.0405724,3.4490478 6.1986296,3.3494992 6.4681076,3.2751747 6.6735013,3.1939167 6.8756295,3.1691957 7.0567601,3.086306 7.2321962,3.0385317 c 0.1890949,-0.022985 0.2553084,-0.059431 0.4094101,-0.088435 0.1098017,-0.012219 0.31099,-0.03229 0.4733013,-0.050971 0.1052154,0.00985 0.422174,-0.025172 0.5507499,-0.036055 0.189697,8.055e-4 0.2606457,0.027741 0.3081243,0.023322 0.1632985,0.036043 0.1798283,0.036879 0.1953661,0.034125 0.1181323,-0.020942 -0.149582,-0.096837 -0.149582,-0.096837 z"
           id="path1"
           sodipodi:nodetypes="cssccc"
           inkscape:path-effect="#path-effect2-2"
           inkscape:original-d="m 9.0874935,2.8210264 c 4.7047255,0.1750258 4.6429785,3.4422516 5.5473625,3.6755412 8.502878,2.193352 8.919289,5.3622744 8.96619,6.2396674 0.0621,1.161716 -1.312232,7.832403 -10.827013,7.167305 C 6.9808993,19.483479 3.9965584,14.302716 4.3125474,7.6167324 4.4880968,2.7160108 9.0874935,2.8210264 9.0874935,2.8210264 Z"
           transform="matrix(1.151555,0,0,1.1515504,1.9920433,-8.1286234)" />
        <path
           style="fill:#1a73e8;fill-opacity:1;stroke:none;stroke-width:3.28098;stroke-linecap:round;stroke-linejoin:round;stroke-dasharray:none;stroke-opacity:1"
           d="m 8.6823795,7.6287927 c 0,0.1768023 0.01655,0.2956268 0.015417,0.4576307 -0.01997,0.1320471 -0.00194,0.3412926 -0.00102,0.5025052 8.42e-4,0.1419379 -0.020759,0.2495437 -0.016366,0.3825339 -0.019093,0.1035357 -0.044587,0.3083067 -0.031193,0.4361179 -0.046929,0.1380045 0.026592,0.2002197 0.052626,0.2905594 0.022043,0.087563 0.036437,0.1991551 0.072647,0.2768127 0.035037,0.075139 0.1139945,0.098574 0.1457874,0.1536415 0.1023654,0.177302 0.2665713,0.318635 0.3822603,0.407332 0.1544332,0.09189 0.2118229,0.129881 0.3097681,0.15322 0.127879,0.03319 0.2101208,0.04392 0.3168767,0.01659 0.105161,-0.02692 0.225471,-0.105997 0.320044,-0.156944 0.07197,-0.03877 0.166293,-0.09174 0.242436,-0.153792 0.08968,-0.06244 0.175744,-0.0854 0.235773,-0.166218 0.09965,-0.04667 0.129847,-0.197166 0.154034,-0.3226128 0.03222,-0.1036702 -0.0023,-0.2355868 -0.02967,-0.3654176 C 10.824774,9.412451 10.799763,9.2159821 10.720074,9.0779564 10.689163,9.0244172 10.657707,8.961726 10.606459,8.9041906 10.564634,8.8389123 10.511736,8.8080775 10.439934,8.7460142 10.382608,8.7018839 10.409855,8.6103658 10.310828,8.5377243 10.335146,8.456639 10.061368,8.3328317 9.9086048,8.2442476 9.7983504,8.1429427 9.6728042,8.1309353 9.5528103,8.070329 9.4096789,8.0139861 9.3057615,7.9285658 9.1717491,7.8573469 9.0274237,7.7806474 8.8298548,7.7139376 8.6823795,7.6287927 Z"
           id="path6-5"
           sodipodi:nodetypes="csssc"
           inkscape:path-effect="#path-effect9-9"
           inkscape:original-d="m 8.7187236,7.6233459 c 0,1.2376165 -0.052152,2.1211632 0.1848897,2.5317321 0.4094618,0.709209 0.9859708,0.597324 1.3458267,0.403466 0.359857,-0.193857 0.881713,-0.6953198 0.465381,-1.4164274 C 10.498445,8.7673421 9.7761016,8.2338234 8.7187236,7.6233459 Z"
           transform="matrix(0.98429386,0,0,0.98429313,4.1898248,-6.2637255)" />
        <path
           style="fill:none;stroke:#d8d8d8;stroke-width:1.5875;stroke-linecap:round;stroke-linejoin:round;stroke-dasharray:none;stroke-opacity:1"
           d="m 10.550079,11.278481 c 0.0793,0.566861 0.172094,0.954701 0.271176,1.410044 0.112021,0.37809 0.295253,0.986029 0.427129,1.37074 0.177797,0.373861 0.170528,0.515021 0.295554,0.765547 0.09132,0.205762 0.301998,0.490205 0.477729,0.705959 0.150638,0.133106 0.228149,0.362457 0.411849,0.505229 0.07921,0.138921 0.555013,0.300125 0.779128,0.392876 0.321869,0.105582 0.330935,-0.01605 0.47297,0.01821 0.209385,0.0505 0.317443,0.254241 0.574595,0.263884 -0.202073,-0.531028 -0.380776,-0.957353 -0.485026,-1.291292 -0.127538,-0.334195 -0.03649,-0.537685 -0.03023,-0.696467 0.124394,-0.08808 0.0025,-0.200028 0.07056,-0.231282 0.06463,-0.0426 0.311759,0.0073 0.594578,0.145119 0.244831,0.119336 0.586352,0.04227 0.982984,0.282482 0.417069,0.252591 0.648304,0.302347 0.863199,0.437911 0.164835,-0.0047 0.471316,0.242821 0.53686,0.22425 0.145696,-0.0082 0.124667,-0.08565 0.07878,-0.246255 -0.05624,-0.196811 -0.328608,-0.516989 -0.432822,-0.995145 -0.105106,-0.482252 -0.158118,-0.822403 -0.175955,-1.051866 0.0026,-0.204364 -0.255162,-0.305132 -0.155937,-0.300456 -0.15291,0.02563 0.379384,-0.142626 0.788251,0.15955 0.341205,0.252169 0.789022,0.924089 1.264887,1.388738 0.162667,0.158833 0.541951,0.231845 0.663986,0.213888 0.332479,-0.0025 0.163472,0.0095 0.218634,-0.100285 0.07372,-0.08541 0.115305,-0.501813 0.06764,-0.863758 -0.03524,-0.288408 -0.103488,-0.56412 -0.218076,-0.87046 -0.11595,-0.333325 -0.311517,-0.708854 -0.526179,-1.040059 -0.244159,-0.392886 -0.594362,-0.710364 -0.90818,-1.009806 -0.333104,-0.317844 -0.578522,-0.708112 -1.052591,-0.9877788"
           id="path2"
           sodipodi:nodetypes="ccsssc"
           inkscape:path-effect="#path-effect3-8"
           inkscape:original-d="m 10.550079,11.278481 c 0.634415,4.534889 1.903244,5.310285 3.782991,5.380775 -1.010365,-2.655142 -0.934498,-2.658176 1.010363,-1.480301 1.668276,1.010365 1.574289,0.986868 1.174842,-0.845885 -0.420426,-1.929009 -0.400038,-1.808647 1.644779,0.187974 1.138664,1.111826 1.4803,-2.561155 -1.78576,-4.487896"
           transform="matrix(1.151555,0,0,1.1515504,1.6054242,-7.5100355)" />
        <path
           style="fill:none;fill-opacity:1;stroke:#d8d8d8;stroke-width:1.56257;stroke-linecap:round;stroke-linejoin:round;stroke-dasharray:none;stroke-opacity:1"
           d="m 11.590991,-1.6569049 c 1.405309,0.9159901 1.633189,1.0252801 2.644668,1.1413794"
           id="path4" />
        <path
           style="fill:#d8d8d8;fill-opacity:1;stroke:none;stroke-width:2.98224;stroke-dasharray:none;stroke-opacity:1"
           d="m 12.723085,0.8396827 c 0.08903,-1.755094 -0.540521,-1.8568394 -0.915707,-1.8759149 -0.375186,-0.019076 -1.9522383,1.2527294 -1.46259,2.6072055 0.489649,1.3544769 1.710593,0.6676991 1.958597,0.3370288 0.248005,-0.3306694 0.368254,-0.507475 0.4197,-1.0683194 z"
           id="path3"
           sodipodi:nodetypes="csssc" />
        <path
           style="fill:none;fill-opacity:1;stroke:#d8d8d8;stroke-width:2.08343;stroke-linecap:round;stroke-linejoin:round;stroke-dasharray:none;stroke-opacity:1"
           d="M 6.9428361,-1.1169344 5.4227046,-1.6291523 6.8271738,-0.4229619 Z"
           id="path9"
           sodipodi:nodetypes="cccc" />
        <path
           style="fill:none;fill-opacity:1;stroke:#d8d8d8;stroke-width:2.08343;stroke-linecap:round;stroke-linejoin:round;stroke-dasharray:none;stroke-opacity:1"
           d="M 6.321406,1.3591028 4.7454415,1.0599319 6.5609711,0.6976014 Z"
           id="path10"
           sodipodi:nodetypes="cccc" />
      </g>
      <g
         id="g31"
         transform="matrix(0.19508874,0.11499295,-0.11499295,0.19508874,8.3630209,7.3821231)">
        <path
           style="fill:none;fill-opacity:1;stroke:#d8d8d8;stroke-width:1.8654;stroke-linecap:round;stroke-linejoin:round;stroke-dasharray:none;stroke-opacity:1"
           d="m 5.5375509,18.325148 -0.107283,0.02521 -0.06652,0.108839 -0.02649,0.0084 -0.09267,0.07754 -0.02278,0.07998 -0.01255,0.08904 -0.06878,0.01006 -0.136226,0.129979 -0.0046,0.0382 -0.03347,0.088 -0.02928,0.05806 -0.0174,0.07053 0.03261,-0.02692 -0.01006,0.116056 -0.07879,0.136465 -0.01867,0.06808 0.01822,0.07288 0.0069,0.07947 -0.111202,0.07839 0.0043,-0.05881 -0.01521,0.19329 -0.01227,0.07365 -0.06713,0.103843 -0.01088,0.02311 -0.01588,0.07824 -0.02569,0.05622 -0.07978,0.07219 -0.0057,0.03979 0.0098,0.12149 -0.03685,0.07992 -0.0082,-0.0057 -0.03455,0.186362 -0.07964,0.06302 -0.05372,0.09379 -0.09027,0.0632 0.011,0.03812 0.02327,0.135773 0.01882,-0.07225 0.08269,0.193839 -0.02596,0.0458 -0.07291,0.04594 -0.05517,0.14866 0.02027,0.04706 -0.02878,0.0728 0.01076,-0.01006 0.02144,0.118994 0.05411,0.02359 0.0042,0.07442 0.0011,0.011 -0.0098,0.138496 0.02652,0.132558 0.004,0.03657 0.117543,0.02473 0.09439,-0.139977 0.09818,0.01396 0.02836,0.0381 0.140386,0.0141 0.09763,0.02801 0.0245,0.0023 0.03093,0.02774 0.105715,0.01198 0.09712,-0.02962 -0.04694,0.03004 0.172761,0.0393 0.06734,0.02949 0.13531,0.03817 0.0601,0.02942 -0.03346,-0.08092 0.107938,0.03485 0.02201,-0.02685 0.191011,0.05515 0.113004,0.04076 -0.03341,-0.06429 -0.01722,-0.02115 -0.101281,-0.01029 -0.118177,-0.02402 -0.06164,-0.122717 -0.01809,-0.0015 -0.182598,0.0061 -0.0021,-0.0391 -0.05881,-0.03707 -0.129329,0.02959 -0.05858,-0.02693 -0.03407,-0.02586 -0.135155,-0.0089 -0.06102,-0.0039 -0.08525,-4.57e-4 -0.08712,-0.0817 -0.05639,-0.04732 -0.06061,0.03139 -0.09796,-0.111389 -0.08365,-0.01589 -0.06377,1.99e-4 -0.146376,0.03906 -0.01662,-0.01729 -0.165032,0.03702 -0.02836,-0.01041 -0.0187,-0.131248 -0.067,-0.04412 -0.186273,0.02052 -0.0074,0.02632 -0.09924,0.01604 -0.07373,0.0143 3.45e-4,0.01688 -0.09507,0.007 -0.1187439,0.02363 -0.08446,0.02344 0.0028,0.0014 -0.1393819,0.01756 -0.02629,0.0248 -0.04283,0.01213 -0.106184,-0.01326 -0.127177,-0.03014 -0.1750556,0.02843 0.05458,0.0088 -0.115297,-0.07778 -0.05618,-0.0057 -0.08003,0.0014 -0.108722,-0.03979 -0.06727,0.0068 0.0014,0.01598 -0.11374,-0.004 0.02139,0.03484 -0.186227,0.03278 0.04942,0.02997 -0.146471,-0.03251 -0.109599,0.004"
           id="path7-3"
           sodipodi:nodetypes="cccc" />
        <path
           style="fill:none;fill-opacity:1;stroke:#d8d8d8;stroke-width:1.8654;stroke-linecap:round;stroke-linejoin:round;stroke-dasharray:none;stroke-opacity:1"
           d="m 10.158357,18.579898 -0.01053,0.02112 0.05092,0.137538 0.01339,0.011 0.06472,0.07541 0.05742,0.07882 0.01792,0.07552 0.05378,0.0043 0.03366,0.124464 0.01857,0.04938 -0.01619,0.08153 0.02715,0.06484 0.01416,0.06514 0.03323,-0.03044 0.0062,0.09747 0.10292,0.1349 0.02966,0.05405 0.01966,0.06546 0.006,0.07078 -0.0034,0.07324 0.01681,-0.04899 0.08071,0.18226 0.02152,0.06157 0.07763,0.09799 0.0091,0.01382 0.01813,0.07343 0.04109,0.05171 0.01326,0.06569 0.01736,0.03433 -0.0088,0.116642 0.0036,0.0791 0.02072,-0.0096 0.05341,0.179288 -0.03682,0.05698 8.38e-4,0.08518 0.0041,0.052 -0.02108,0.007 0.121928,0.142177 0.03172,-0.07962 -0.107903,0.198115 -0.01431,0.08104 0.09204,0.05235 0.0084,0.102018 -0.100485,0.02488 0.104217,0.117964 0.03139,-0.04865 0.111963,0.103994 0.01863,0.02498 -0.08189,-0.05124 -0.06823,-0.109212 -0.106674,-0.03158 -0.121012,0.02589 -0.04332,0.0371 -0.113507,0.02431 -0.0087,-0.145627 -0.128485,0.03524 0.01729,0.04577 -0.128712,0.03537 -0.07887,0.04342 -0.0562,0.01764 -0.142079,0.03745 -0.0022,-0.0036 -0.08004,-0.02032 -0.05052,0.04229 -0.08116,0.0353 -0.03096,0.03945 -0.08384,0.05613 -0.09716,0.04667 -0.02135,-0.07316 -0.199155,0.04011 0.02606,-0.04197 -0.0332,0.04567 -0.226385,0.07206 v -0.05206 l -0.07614,0.0047 -0.06782,0.02361 -0.07699,0.007 -0.04835,-0.09487 -0.162321,0.08113 -0.07266,0.0387 -0.01743,-0.02149 -0.09081,0.03025 -0.07415,0.09357 -0.0199,-0.0077 -0.0524,0.03236 -0.04834,0.05627 -0.06769,0.04511 -0.0243,0.04144 -0.03872,-0.0433 0.0698,-0.05416 -0.04715,0.02569 0.182056,-0.131009 0.06342,-0.022 0.06349,-0.0067 -0.0021,0.0316 0.09398,-0.03215 0.09173,0.02547 0.103551,-0.021 0.07542,-0.13748 0.07056,-0.05267 0.01297,0.009 0.08547,0.01937 0.157451,0.0063 -0.04174,0.01185 0.08369,0.0067 0.110616,-0.0042 -0.03413,0.01618 0.09521,0.0091 0.09693,-0.01076 0.09561,0.0081 0.13985,0.01765 -0.07252,0.01368 0.209954,-0.02423 0.04115,-0.02823 0.0088,0.02474 0.08957,-0.0028 0.121096,-0.08269 0.02953,-0.01041 0.05832,-0.0075 0.08308,-0.04952 0.0668,-0.0036 0.110968,0.0042 0.01006,-0.0187 0.17388,0.01722 -0.07181,0.0243 0.02294,0.02494 0.200998,-0.01639 0.121816,0.01123 -0.04769,0.01396 0.180227,-0.02712 0.01018,-0.0035 0.05595,-0.0074 0.0623,0.0033 0.06995,-0.01557 0.06834,-0.0283 0.06458,-0.06389 0.104967,-3.38e-4 0.09688,-0.0063 7.15e-4,-0.03474 0.06494,-0.0075 0.07393,0.01706 0.0896,-0.01853 0.08959,0.03794 0.02185,-0.06802 0.13548,0.05131 0.0453,0.002 0.05616,4.31e-4 0.08597,0.0021 0.0511,-0.0011 0.150127,0.01555"
           id="path8-1"
           sodipodi:nodetypes="cccc" />
        <path
           style="fill:none;fill-opacity:1;stroke:#d8d8d8;stroke-width:1.8654;stroke-dasharray:none;stroke-opacity:1"
           d="m -3.1195457,8.2753678 c -0.7027107,-0.086028 -1.9480902,-0.161161 -2.019328,-0.313278 -0.071238,-0.152115 1.0587735,-1.4985907 1.3765765,-1.6120927"
           id="path2-7"
           sodipodi:nodetypes="csc" />
        <path
           style="display:inline;fill:none;stroke:#d8d8d8;stroke-width:1.5875;stroke-linecap:round;stroke-linejoin:round;stroke-dasharray:none;stroke-opacity:1"
           d="m 9.0195659,2.8236801 c 0.3360519,0.012502 0.6610532,-0.046232 0.9505567,-0.00441 0.2630124,-0.038467 0.5215524,0.1434593 0.7891664,0.2201174 0.184287,0.1125963 0.480481,0.1034149 0.707569,0.2060674 0.187215,0.03616 0.352054,0.1705989 0.540231,0.292704 0.114267,0.080717 0.396128,0.2585667 0.557445,0.4001032 0.156869,0.1123827 0.306624,0.2628638 0.419014,0.3845564 0.154176,0.1366935 0.164989,0.1286926 0.251328,0.2392345 0.08626,0.056414 0.372502,0.3350132 0.467952,0.4830404 0.211494,0.1280306 0.110644,0.1825128 0.159395,0.2703933 0.06459,0.1202539 0.02878,0.2621027 0.08153,0.370679 -0.04012,0.141369 0.138177,0.2218309 0.195242,0.3158951 0.0781,0.087461 0.130779,0.161806 0.180584,0.2272601 0.08012,0.067527 0.120617,-0.059713 0.166606,-0.015968 0.05199,0.049449 -0.03427,0.1573144 0.03391,0.1749024 0.386495,0.099698 0.712691,0.2059065 1.066947,0.309756 0.324292,0.1121849 0.723174,0.2227157 1.058236,0.3343719 0.325065,0.1118753 0.639547,0.2206876 0.93176,0.3304864 0.301164,0.1137325 0.573878,0.2286588 0.835952,0.3393743 0.270775,0.120577 0.354212,0.2358394 0.589901,0.3476351 0.12609,0.1476634 0.546738,0.057584 0.795022,0.1919726 0.247166,-0.076838 0.406896,0.2786011 0.622526,0.4138757 0.134419,0.1388131 0.580838,0.2653221 0.760088,0.3939562 0.306295,0.0954 0.127464,0.2379668 0.236679,0.3246031 0.04894,0.1892046 0.30527,0.226699 0.441097,0.3494634 0.130286,0.094094 0.248121,0.2190872 0.358799,0.3331044 0.109279,0.09992 0.207699,0.18022 0.30069,0.289994 0.09631,0.07281 0.236768,0.186881 0.318684,0.300317 0.125463,0.06221 0.132879,0.104993 0.195444,0.209541 0.06453,0.02308 0.171305,0.243589 0.229933,0.373582 0.06948,0.07962 0.187872,0.193001 0.221559,0.290283 0.13383,0.08045 0.07022,0.01926 0.08779,0.102266 0.04533,-0.01965 -0.136974,0.329144 -0.132898,0.467291 -0.175732,0.116039 -0.03364,0.155459 -0.02222,0.211305 -0.0292,0.103012 0.07861,0.183996 0.105067,0.23723 0.05631,0.08684 0.01882,0.07519 0.02971,0.09604 0.0252,0.04823 -0.04881,-0.04216 -0.0464,0.003 0.0023,0.04303 0.122957,0.122155 0.121231,0.179903 0.118609,0.08144 -0.02526,-0.107967 -0.0311,-0.04366 -0.03184,-0.09054 -0.02878,0.298208 -0.06071,0.469216 -0.01119,0.09637 -0.09795,0.167555 -0.117977,0.255119 -0.08591,0.09221 -0.0176,0.129055 -0.04332,0.224481 -0.0068,0.06804 -0.100091,0.300803 -0.141906,0.430012 -0.06076,0.148064 -0.164911,0.151346 -0.19978,0.247077 -0.144932,0.08074 -0.05804,0.221223 -0.107536,0.341164 -0.02337,0.116262 -0.113051,0.07063 -0.17541,0.202863 -0.08351,-0.01677 -0.11593,0.266129 -0.214002,0.44347 -0.0304,0.07208 -0.243117,0.151645 -0.341703,0.306877 -0.163078,-0.0048 -0.182038,0.185085 -0.291094,0.337382 -0.09296,0.03432 -0.225834,0.07685 -0.348692,0.229196 -0.134995,-0.06208 -0.276675,0.225997 -0.427553,0.392284 -0.128455,0.03397 -0.256453,0.284028 -0.395887,0.423083 -0.118621,0.125996 -0.201851,0.290487 -0.333204,0.409377 -0.0877,0.16999 -0.262974,0.257164 -0.407381,0.373423 -0.136811,0.135262 -0.295412,-0.04194 -0.452653,0.06918 -0.198025,-0.132555 -0.462488,0.270138 -0.681269,0.406686 -0.219763,0.0927 -0.393573,0.246717 -0.56845,0.344883 -0.230684,0.139187 -0.402549,0.179126 -0.582541,0.267739 -0.252261,0.0869 -0.274208,0.225709 -0.479841,0.311671 -0.132198,0.143749 -0.526337,0.202867 -0.807249,0.2865 -0.258168,0.07653 -0.401437,0.171897 -0.675626,0.226623 -0.189305,0.09174 -0.606311,0.09759 -0.955689,0.124968 -0.281361,0.01771 -0.651323,-0.03594 -0.991163,-0.0346 -0.341087,0.0013 -0.81912,0.09887 -1.155106,0.07539 -0.186876,-0.01355 -0.502263,-0.01272 -0.683003,-0.03614 -0.269714,0.0015 -0.29452,-0.0016 -0.428902,-0.02518 -0.192532,0.0068 -0.449474,-0.0095 -0.61566,-0.04898 -0.249625,0.02196 -0.332564,-0.01684 -0.469708,-0.0572 -0.209023,0.0075 -0.270281,-0.245784 -0.421753,-0.300998 C 9.9057308,19.264067 9.7642552,19.365955 9.6145964,19.300319 9.4972456,19.240123 9.3665278,19.067826 9.2039071,18.981751 9.1361516,18.821511 9.0399773,18.83574 8.8899775,18.742594 8.8614743,18.65909 8.5674408,18.584082 8.4010822,18.46172 8.2802081,18.421418 8.1141487,18.147556 7.976065,18.030654 7.8699611,17.845446 7.6572208,17.826097 7.5553948,17.730815 7.3519779,17.620103 7.3681242,17.560454 7.2775428,17.467344 7.1632056,17.358888 7.0908663,17.207358 6.983026,17.082718 6.9136609,16.936433 6.7772688,16.617803 6.6754636,16.486018 6.6160411,16.188071 6.5485122,16.319792 6.4844648,16.231128 6.3916974,16.103222 6.2519468,15.98759 6.160307,15.846638 6.0287395,15.73576 6.0029051,15.493463 5.9178013,15.346616 5.8635584,15.145636 5.7469142,15.023927 5.6751216,14.886762 5.5846698,14.69631 5.4404518,14.68108 5.3747189,14.541509 5.2013941,14.443331 5.1983442,14.165241 5.1291092,13.992803 5.0433305,13.79917 5.0224725,13.647467 4.9683196,13.490117 4.9245693,13.28939 4.896977,13.158792 4.8480921,12.991033 4.8328993,12.808082 4.7417693,12.62716 4.6965579,12.441221 4.6473593,12.258399 4.5816425,12.080554 4.5444747,11.892154 4.4775728,11.710991 4.4559617,11.368994 4.4270679,11.173708 4.3868513,10.882979 4.3886081,10.793479 4.3717865,10.644959 4.3549647,10.387654 4.2332938,10.359064 4.2200639,10.187463 4.1007385,10.027801 4.1996977,9.5440554 4.2042459,9.3136804 4.2075323,8.9655627 4.2133358,8.9940901 4.2218226,8.857811 4.2342743,8.6232438 4.3153373,8.4626231 4.3325785,8.2564115 4.3485025,8.0659528 4.2859782,7.9320636 4.297562,7.686962 4.3101013,7.3369105 4.3424074,6.9805368 4.3969416,6.6790363 4.4467008,6.3565073 4.3269039,6.1867453 4.4126592,5.9379605 4.3270195,5.6932675 4.6271215,5.3250761 4.7800518,5.0720919 4.8845555,4.8358063 5.0438659,4.4190701 5.2002344,4.2418384 5.3070389,3.8660081 5.4620995,3.8924681 5.5929141,3.7807422 5.7664209,3.5557599 5.8730457,3.5504542 6.0405724,3.4490478 6.1986296,3.3494992 6.4681076,3.2751747 6.6735013,3.1939167 6.8756295,3.1691957 7.0567601,3.086306 7.2321962,3.0385317 c 0.1890949,-0.022985 0.2553084,-0.059431 0.4094101,-0.088435 0.1098017,-0.012219 0.31099,-0.03229 0.4733013,-0.050971 0.1052154,0.00985 0.422174,-0.025172 0.5507499,-0.036055 0.189697,8.055e-4 0.2606457,0.027741 0.3081243,0.023322 0.1632985,0.036043 0.1798283,0.036879 0.1953661,0.034125 0.1181323,-0.020942 -0.149582,-0.096837 -0.149582,-0.096837 z"
           id="path1-9"
           sodipodi:nodetypes="cssccc"
           inkscape:path-effect="#path-effect2-7"
           inkscape:original-d="m 9.0874935,2.8210264 c 4.7047255,0.1750258 4.6429785,3.4422516 5.5473625,3.6755412 8.502878,2.193352 8.919289,5.3622744 8.96619,6.2396674 0.0621,1.161716 -1.312232,7.832403 -10.827013,7.167305 C 6.9808993,19.483479 3.9965584,14.302716 4.3125474,7.6167324 4.4880968,2.7160108 9.0874935,2.8210264 9.0874935,2.8210264 Z"
           transform="matrix(1.1699301,0,0,1.1699262,-8.6718467,-4.9904499)" />
        <path
           style="fill:#1a73e8;fill-opacity:1;stroke:none;stroke-width:3.28098;stroke-linecap:round;stroke-linejoin:round;stroke-dasharray:none;stroke-opacity:1"
           d="m 8.6823795,7.6287927 c 0,0.1768023 0.01655,0.2956268 0.015417,0.4576307 -0.01997,0.1320471 -0.00194,0.3412926 -0.00102,0.5025052 8.42e-4,0.1419379 -0.020759,0.2495437 -0.016366,0.3825339 -0.019093,0.1035357 -0.044587,0.3083067 -0.031193,0.4361179 -0.046929,0.1380045 0.026592,0.2002197 0.052626,0.2905594 0.022043,0.087563 0.036437,0.1991551 0.072647,0.2768127 0.035037,0.075139 0.1139945,0.098574 0.1457874,0.1536415 0.1023654,0.177302 0.2665713,0.318635 0.3822603,0.407332 0.1544332,0.09189 0.2118229,0.129881 0.3097681,0.15322 0.127879,0.03319 0.2101208,0.04392 0.3168767,0.01659 0.105161,-0.02692 0.225471,-0.105997 0.320044,-0.156944 0.07197,-0.03877 0.166293,-0.09174 0.242436,-0.153792 0.08968,-0.06244 0.175744,-0.0854 0.235773,-0.166218 0.09965,-0.04667 0.129847,-0.197166 0.154034,-0.3226128 0.03222,-0.1036702 -0.0023,-0.2355868 -0.02967,-0.3654176 C 10.824774,9.412451 10.799763,9.2159821 10.720074,9.0779564 10.689163,9.0244172 10.657707,8.961726 10.606459,8.9041906 10.564634,8.8389123 10.511736,8.8080775 10.439934,8.7460142 10.382608,8.7018839 10.409855,8.6103658 10.310828,8.5377243 10.335146,8.456639 10.061368,8.3328317 9.9086048,8.2442476 9.7983504,8.1429427 9.6728042,8.1309353 9.5528103,8.070329 9.4096789,8.0139861 9.3057615,7.9285658 9.1717491,7.8573469 9.0274237,7.7806474 8.8298548,7.7139376 8.6823795,7.6287927 Z"
           id="path6-8"
           sodipodi:nodetypes="csssc"
           inkscape:path-effect="#path-effect9-2"
           inkscape:original-d="m 8.7187236,7.6233459 c 0,1.2376165 -0.052152,2.1211632 0.1848897,2.5317321 0.4094618,0.709209 0.9859708,0.597324 1.3458267,0.403466 0.359857,-0.193857 0.881713,-0.6953198 0.465381,-1.4164274 C 10.498445,8.7673421 9.7761016,8.2338234 8.7187236,7.6233459 Z"
           transform="translate(-6.4389957,-3.0957929)" />
        <path
           style="fill:none;stroke:#d8d8d8;stroke-width:1.5875;stroke-linecap:round;stroke-linejoin:round;stroke-dasharray:none;stroke-opacity:1"
           d="m 10.550079,11.278481 c 0.0793,0.566861 0.172094,0.954701 0.271176,1.410044 0.112021,0.37809 0.295253,0.986029 0.427129,1.37074 0.177797,0.373861 0.170528,0.515021 0.295554,0.765547 0.09132,0.205762 0.301998,0.490205 0.477729,0.705959 0.150638,0.133106 0.228149,0.362457 0.411849,0.505229 0.07921,0.138921 0.555013,0.300125 0.779128,0.392876 0.321869,0.105582 0.330935,-0.01605 0.47297,0.01821 0.209385,0.0505 0.317443,0.254241 0.574595,0.263884 -0.202073,-0.531028 -0.380776,-0.957353 -0.485026,-1.291292 -0.127538,-0.334195 -0.03649,-0.537685 -0.03023,-0.696467 0.124394,-0.08808 0.0025,-0.200028 0.07056,-0.231282 0.06463,-0.0426 0.311759,0.0073 0.594578,0.145119 0.244831,0.119336 0.586352,0.04227 0.982984,0.282482 0.417069,0.252591 0.648304,0.302347 0.863199,0.437911 0.164835,-0.0047 0.471316,0.242821 0.53686,0.22425 0.145696,-0.0082 0.124667,-0.08565 0.07878,-0.246255 -0.05624,-0.196811 -0.328608,-0.516989 -0.432822,-0.995145 -0.105106,-0.482252 -0.158118,-0.822403 -0.175955,-1.051866 0.0026,-0.204364 -0.255162,-0.305132 -0.155937,-0.300456 -0.15291,0.02563 0.379384,-0.142626 0.788251,0.15955 0.341205,0.252169 0.789022,0.924089 1.264887,1.388738 0.162667,0.158833 0.541951,0.231845 0.663986,0.213888 0.332479,-0.0025 0.163472,0.0095 0.218634,-0.100285 0.07372,-0.08541 0.115305,-0.501813 0.06764,-0.863758 -0.03524,-0.288408 -0.103488,-0.56412 -0.218076,-0.87046 -0.11595,-0.333325 -0.311517,-0.708854 -0.526179,-1.040059 -0.244159,-0.392886 -0.594362,-0.710364 -0.90818,-1.009806 -0.333104,-0.317844 -0.578522,-0.708112 -1.052591,-0.9877788"
           id="path2-6"
           sodipodi:nodetypes="ccsssc"
           inkscape:path-effect="#path-effect3-4"
           inkscape:original-d="m 10.550079,11.278481 c 0.634415,4.534889 1.903244,5.310285 3.782991,5.380775 -1.010365,-2.655142 -0.934498,-2.658176 1.010363,-1.480301 1.668276,1.010365 1.574289,0.986868 1.174842,-0.845885 -0.420426,-1.929009 -0.400038,-1.808647 1.644779,0.187974 1.138664,1.111826 1.4803,-2.561155 -1.78576,-4.487896"
           transform="matrix(1.1699301,0,0,1.1699262,-9.0646349,-4.3619909)" />
        <path
           style="fill:none;fill-opacity:1;stroke:#d8d8d8;stroke-width:1.5875;stroke-linecap:round;stroke-linejoin:round;stroke-dasharray:none;stroke-opacity:1"
           d="m 1.0802686,1.5845411 c 1.4277337,0.930607 1.6592505,1.041641 2.6868693,1.159593"
           id="path4-5" />
        <path
           style="fill:#d8d8d8;fill-opacity:1;stroke:none;stroke-width:3.02983;stroke-dasharray:none;stroke-opacity:1"
           d="m 2.2304272,4.1209681 c 0.090451,-1.783101 -0.5491458,-1.88647 -0.9303183,-1.90585 -0.3811724,-0.01938 -1.9833896,1.27272 -1.4859286,2.64881 0.4974631,1.376091 1.7378887,0.678354 1.9898506,0.342407 0.251962,-0.335946 0.3741302,-0.515573 0.4263963,-1.085367 z"
           id="path3-0"
           sodipodi:nodetypes="csssc" />
      </g>
    </g>
  </g>
</svg>
