<?xml version="1.0" encoding="UTF-8" standalone="no"?>
<!-- Created with Inkscape (http://www.inkscape.org/) -->

<svg
   width="100"
   height="100"
   viewBox="0 0 26.458333 26.458333"
   version="1.1"
   id="svg1"
   xml:space="preserve"
   inkscape:version="1.4.3 (0d15f75, 2025-12-25)"
   sodipodi:docname="sad chick screaming.svg"
   xmlns:inkscape="http://www.inkscape.org/namespaces/inkscape"
   xmlns:sodipodi="http://sodipodi.sourceforge.net/DTD/sodipodi-0.dtd"
   xmlns="http://www.w3.org/2000/svg"
   xmlns:svg="http://www.w3.org/2000/svg"><sodipodi:namedview
     id="namedview1"
     pagecolor="#ffffff"
     bordercolor="#000000"
     borderopacity="0.25"
     inkscape:showpageshadow="2"
     inkscape:pageopacity="0.0"
     inkscape:pagecheckerboard="0"
     inkscape:deskcolor="#d1d1d1"
     inkscape:document-units="px"
     inkscape:zoom="3.9403425"
     inkscape:cx="75.120373"
     inkscape:cy="52.787289"
     inkscape:window-width="1920"
     inkscape:window-height="992"
     inkscape:window-x="-8"
     inkscape:window-y="-8"
     inkscape:window-maximized="1"
     inkscape:current-layer="layer1" /><defs
     id="defs1"><inkscape:path-effect
       effect="roughen"
       id="path-effect9"
       is_visible="true"
       lpeversion="1.2"
       global_randomize="0.5;1"
       displace_x="0.3;85671466"
       displace_y="0.32;-56221271"
       method="size"
       max_segment_size="0.4"
       segments="2"
       handles="along"
       shift_nodes="true"
       fixed_displacement="false"
       spray_tool_friendly="false" /><inkscape:path-effect
       effect="pts2ellipse"
       id="path-effect8"
       is_visible="true"
       lpeversion="1"
       method="auto"
       gen_arc="false"
       arc_other="false"
       slice_arc="false"
       gen_isometric_frame="false"
       draw_axes="false"
       gen_perspective_frame="false"
       draw_perspective_axes="false"
       rot_axes="0"
       draw_ori_path="false" /><inkscape:path-effect
       effect="attach_path"
       id="path-effect7"
       is_visible="true"
       lpeversion="1"
       startpath=""
       startposition="0"
       startcurvestart="0,0 , 20,0"
       startcurveend="0,0 , 20,0"
       endpath=""
       endposition="0"
       endcurvestart="0,0 , 20,0"
       endcurveend="0,0 , 20,0" /><inkscape:path-effect
       effect="simplify"
       id="path-effect6"
       is_visible="true"
       lpeversion="1.3"
       threshold="5"
       steps="1"
       smooth_angles="360"
       helper_size="10"
       simplify_individual_paths="false"
       simplify_just_coalesce="false" /><inkscape:path-effect
       effect="roughen"
       id="path-effect3"
       is_visible="true"
       lpeversion="1.2"
       global_randomize="1.3;1"
       displace_x="0.36;1466644229"
       displace_y="0.34;1"
       method="size"
       max_segment_size="1"
       segments="2"
       handles="along"
       shift_nodes="true"
       fixed_displacement="false"
       spray_tool_friendly="false" /><inkscape:path-effect
       effect="roughen"
       id="path-effect2"
       is_visible="true"
       lpeversion="1.2"
       global_randomize="1;1"
       displace_x="0.33;-971983428"
       displace_y="0.31;1"
       method="size"
       max_segment_size="0.543"
       segments="2"
       handles="along"
       shift_nodes="true"
       fixed_displacement="false"
       spray_tool_friendly="false" /></defs><g
     inkscape:label="Layer 1"
     inkscape:groupmode="layer"
     id="layer1"><path
       style="fill:none;fill-opacity:1;stroke:#000000;stroke-width:1.8361;stroke-linecap:round;stroke-linejoin:round;stroke-dasharray:none;stroke-opacity:1"
       d="m 12.274099,21.175522 -0.105598,0.02481 -0.06547,0.10713 -0.02607,0.0083 -0.09122,0.07632 -0.02242,0.07872 -0.01235,0.08764 -0.0677,0.0099 -0.134087,0.127938 -0.0045,0.0376 -0.03294,0.08662 -0.02882,0.05715 -0.01713,0.06942 0.0321,-0.0265 -0.0099,0.114233 -0.07755,0.134322 -0.01838,0.06701 0.01793,0.07174 0.0068,0.07822 -0.109455,0.07716 0.0042,-0.05789 -0.01497,0.190254 -0.01208,0.07249 -0.06608,0.102212 -0.01071,0.02275 -0.01563,0.07701 -0.02529,0.05534 -0.07853,0.07106 -0.0056,0.03917 0.0096,0.119582 -0.03627,0.07867 -0.0081,-0.0056 -0.03401,0.183435 -0.07839,0.06203 -0.05288,0.09232 -0.08885,0.06221 0.01083,0.03752 0.0229,0.13364 0.01852,-0.07112 0.08139,0.190794 -0.02555,0.04508 -0.07177,0.04522 -0.0543,0.146325 0.01995,0.04632 -0.02833,0.07166 0.01059,-0.0099 0.0211,0.117125 0.05326,0.02322 0.0041,0.07325 0.0011,0.01083 -0.0096,0.136321 0.0261,0.130476 0.0039,0.03599 0.115697,0.02434 0.09291,-0.137779 0.09664,0.01374 0.02791,0.0375 0.138181,0.01388 0.0961,0.02757 0.02412,0.0023 0.03044,0.0273 0.104055,0.01179 0.0956,-0.02915 -0.0462,0.02957 0.170047,0.03868 0.06628,0.02903 0.133185,0.03757 0.05916,0.02896 -0.03294,-0.07965 0.106243,0.0343 0.02166,-0.02643 0.188011,0.05428 0.111229,0.04012 -0.03289,-0.06328 -0.01695,-0.02082 -0.09969,-0.01013 -0.116321,-0.02364 -0.06067,-0.120789 -0.0178,-0.0015 -0.17973,0.006 -0.0021,-0.03849 -0.05789,-0.03649 -0.127298,0.02913 -0.05766,-0.02651 -0.03353,-0.02545 -0.133033,-0.0088 -0.06006,-0.0038 -0.08391,-4.5e-4 -0.08575,-0.08042 -0.0555,-0.04658 -0.05966,0.0309 -0.09642,-0.10964 -0.08234,-0.01564 -0.06277,1.96e-4 -0.144077,0.03845 -0.01636,-0.01702 -0.16244,0.03644 -0.02791,-0.01025 -0.01841,-0.129187 -0.06595,-0.04343 -0.183347,0.0202 -0.0073,0.02591 -0.09768,0.01579 -0.07257,0.01407 3.4e-4,0.01662 -0.09358,0.0069 -0.116879,0.02326 -0.08313,0.02307 0.0028,0.0014 -0.137193,0.01728 -0.025877,0.02441 -0.042157,0.01194 -0.1045163,-0.01305 -0.1251795,-0.02967 -0.1723062,0.02798 0.053723,0.0087 -0.1134862,-0.07656 -0.055298,-0.0056 -0.078773,0.0014 -0.1070144,-0.03917 -0.066213,0.0067 0.00138,0.01573 -0.1119535,-0.0039 0.021054,0.03429 -0.1833021,0.03226 0.048644,0.0295 -0.1441705,-0.032 -0.1078777,0.0039"
       id="path7"
       sodipodi:nodetypes="cccc" /><path
       style="fill:none;fill-opacity:1;stroke:#000000;stroke-width:1.8361;stroke-linecap:round;stroke-linejoin:round;stroke-dasharray:none;stroke-opacity:1"
       d="m 16.82233,21.42627 -0.01036,0.02079 0.05012,0.135378 0.01318,0.01083 0.0637,0.07422 0.05652,0.07758 0.01764,0.07433 0.05294,0.0042 0.03313,0.122509 0.01828,0.0486 -0.01594,0.08025 0.02672,0.06382 0.01394,0.06412 0.03271,-0.02996 0.0061,0.09594 0.101304,0.132782 0.02919,0.0532 0.01935,0.06443 0.0059,0.06967 -0.0033,0.07209 0.01655,-0.04822 0.07944,0.179397 0.02118,0.0606 0.07641,0.09645 0.009,0.0136 0.01785,0.07228 0.04044,0.0509 0.01305,0.06466 0.01709,0.03379 -0.0087,0.11481 0.0035,0.07786 0.02039,-0.0095 0.05257,0.176472 -0.03624,0.05609 8.25e-4,0.08384 0.004,0.05118 -0.02075,0.0069 0.120013,0.139943 0.03122,-0.07837 -0.106208,0.195004 -0.01409,0.07977 0.09059,0.05153 0.0083,0.100416 -0.09891,0.02449 0.102581,0.116111 0.0309,-0.04789 0.110204,0.102361 0.01834,0.02459 -0.0806,-0.05044 -0.06716,-0.107496 -0.104998,-0.03108 -0.119112,0.02548 -0.04264,0.03652 -0.111725,0.02393 -0.0086,-0.143339 -0.126467,0.03469 0.01702,0.04505 -0.126691,0.03481 -0.07763,0.04274 -0.05532,0.01736 -0.139848,0.03686 -0.0022,-0.0035 -0.07878,-0.02 -0.04973,0.04163 -0.07989,0.03475 -0.03047,0.03883 -0.08252,0.05525 -0.09563,0.04594 -0.02101,-0.07201 -0.196027,0.03948 0.02565,-0.04131 -0.03268,0.04495 -0.222829,0.07093 v -0.05124 l -0.07494,0.0046 -0.06676,0.02324 -0.07578,0.0069 -0.04759,-0.09338 -0.159772,0.07985 -0.07152,0.03809 -0.01716,-0.02115 -0.08938,0.02978 -0.07298,0.0921 -0.01959,-0.0076 -0.05158,0.03185 -0.04758,0.05539 -0.06663,0.0444 -0.02392,0.04079 -0.03811,-0.04262 0.0687,-0.05331 -0.04641,0.02529 0.179196,-0.128951 0.06242,-0.02165 0.06249,-0.0066 -0.0021,0.0311 0.0925,-0.03164 0.09029,0.02507 0.101925,-0.02067 0.07423,-0.135321 0.06945,-0.05184 0.01277,0.0089 0.08413,0.01907 0.154978,0.0062 -0.04108,0.01166 0.08238,0.0066 0.108879,-0.0041 -0.03359,0.01593 0.09372,0.009 0.09541,-0.01059 0.09411,0.008 0.137653,0.01737 -0.07138,0.01347 0.206657,-0.02385 0.0405,-0.02779 0.0087,0.02435 0.08816,-0.0028 0.119194,-0.08139 0.02907,-0.01025 0.0574,-0.0074 0.08178,-0.04874 0.06575,-0.0035 0.109225,0.0041 0.0099,-0.01841 0.171149,0.01695 -0.07068,0.02392 0.02258,0.02455 0.197841,-0.01613 0.119903,0.01105 -0.04694,0.01374 0.177396,-0.02669 0.01002,-0.0034 0.05507,-0.0073 0.06132,0.0032 0.06885,-0.01533 0.06727,-0.02786 0.06357,-0.06289 0.103318,-3.32e-4 0.09536,-0.0062 7.04e-4,-0.0342 0.06392,-0.0074 0.07277,0.01679 0.08819,-0.01824 0.08818,0.03734 0.02151,-0.06695 0.133352,0.0505 0.04459,0.002 0.05528,4.25e-4 0.08462,0.0021 0.0503,-0.0011 0.147769,0.01531"
       id="path8"
       sodipodi:nodetypes="cccc" /><path
       style="display:inline;fill:none;stroke:#000000;stroke-width:1.5875;stroke-linecap:round;stroke-linejoin:round;stroke-dasharray:none;stroke-opacity:1"
       d="m 9.0195659,2.8236801 c 0.3360519,0.012502 0.6610532,-0.046232 0.9505567,-0.00441 0.2630124,-0.038467 0.5215524,0.1434593 0.7891664,0.2201174 0.184287,0.1125963 0.480481,0.1034149 0.707569,0.2060674 0.187215,0.03616 0.352054,0.1705989 0.540231,0.292704 0.114267,0.080717 0.396128,0.2585667 0.557445,0.4001032 0.156869,0.1123827 0.306624,0.2628638 0.419014,0.3845564 0.154176,0.1366935 0.164989,0.1286926 0.251328,0.2392345 0.08626,0.056414 0.372502,0.3350132 0.467952,0.4830404 0.211494,0.1280306 0.110644,0.1825128 0.159395,0.2703933 0.06459,0.1202539 0.02878,0.2621027 0.08153,0.370679 -0.04012,0.141369 0.138177,0.2218309 0.195242,0.3158951 0.0781,0.087461 0.130779,0.161806 0.180584,0.2272601 0.08012,0.067527 0.120617,-0.059713 0.166606,-0.015968 0.05199,0.049449 -0.03427,0.1573144 0.03391,0.1749024 0.386495,0.099698 0.712691,0.2059065 1.066947,0.309756 0.324292,0.1121849 0.723174,0.2227157 1.058236,0.3343719 0.325065,0.1118753 0.639547,0.2206876 0.93176,0.3304864 0.301164,0.1137325 0.573878,0.2286588 0.835952,0.3393743 0.270775,0.120577 0.354212,0.2358394 0.589901,0.3476351 0.12609,0.1476634 0.546738,0.057584 0.795022,0.1919726 0.247166,-0.076838 0.406896,0.2786011 0.622526,0.4138757 0.134419,0.1388131 0.580838,0.2653221 0.760088,0.3939562 0.306295,0.0954 0.127464,0.2379668 0.236679,0.3246031 0.04894,0.1892046 0.30527,0.226699 0.441097,0.3494634 0.130286,0.094094 0.248121,0.2190872 0.358799,0.3331044 0.109279,0.09992 0.207699,0.18022 0.30069,0.289994 0.09631,0.07281 0.236768,0.186881 0.318684,0.300317 0.125463,0.06221 0.132879,0.104993 0.195444,0.209541 0.06453,0.02308 0.171305,0.243589 0.229933,0.373582 0.06948,0.07962 0.187872,0.193001 0.221559,0.290283 0.13383,0.08045 0.07022,0.01926 0.08779,0.102266 0.04533,-0.01965 -0.136974,0.329144 -0.132898,0.467291 -0.175732,0.116039 -0.03364,0.155459 -0.02222,0.211305 -0.0292,0.103012 0.07861,0.183996 0.105067,0.23723 0.05631,0.08684 0.01882,0.07519 0.02971,0.09604 0.0252,0.04823 -0.04881,-0.04216 -0.0464,0.003 0.0023,0.04303 0.122957,0.122155 0.121231,0.179903 0.118609,0.08144 -0.02526,-0.107967 -0.0311,-0.04366 -0.03184,-0.09054 -0.02878,0.298208 -0.06071,0.469216 -0.01119,0.09637 -0.09795,0.167555 -0.117977,0.255119 -0.08591,0.09221 -0.0176,0.129055 -0.04332,0.224481 -0.0068,0.06804 -0.100091,0.300803 -0.141906,0.430012 -0.06076,0.148064 -0.164911,0.151346 -0.19978,0.247077 -0.144932,0.08074 -0.05804,0.221223 -0.107536,0.341164 -0.02337,0.116262 -0.113051,0.07063 -0.17541,0.202863 -0.08351,-0.01677 -0.11593,0.266129 -0.214002,0.44347 -0.0304,0.07208 -0.243117,0.151645 -0.341703,0.306877 -0.163078,-0.0048 -0.182038,0.185085 -0.291094,0.337382 -0.09296,0.03432 -0.225834,0.07685 -0.348692,0.229196 -0.134995,-0.06208 -0.276675,0.225997 -0.427553,0.392284 -0.128455,0.03397 -0.256453,0.284028 -0.395887,0.423083 -0.118621,0.125996 -0.201851,0.290487 -0.333204,0.409377 -0.0877,0.16999 -0.262974,0.257164 -0.407381,0.373423 -0.136811,0.135262 -0.295412,-0.04194 -0.452653,0.06918 -0.198025,-0.132555 -0.462488,0.270138 -0.681269,0.406686 -0.219763,0.0927 -0.393573,0.246717 -0.56845,0.344883 -0.230684,0.139187 -0.402549,0.179126 -0.582541,0.267739 -0.252261,0.0869 -0.274208,0.225709 -0.479841,0.311671 -0.132198,0.143749 -0.526337,0.202867 -0.807249,0.2865 -0.258168,0.07653 -0.401437,0.171897 -0.675626,0.226623 -0.189305,0.09174 -0.606311,0.09759 -0.955689,0.124968 -0.281361,0.01771 -0.651323,-0.03594 -0.991163,-0.0346 -0.341087,0.0013 -0.81912,0.09887 -1.155106,0.07539 -0.186876,-0.01355 -0.502263,-0.01272 -0.683003,-0.03614 -0.269714,0.0015 -0.29452,-0.0016 -0.428902,-0.02518 -0.192532,0.0068 -0.449474,-0.0095 -0.61566,-0.04898 -0.249625,0.02196 -0.332564,-0.01684 -0.469708,-0.0572 -0.209023,0.0075 -0.270281,-0.245784 -0.421753,-0.300998 C 9.9057308,19.264067 9.7642552,19.365955 9.6145964,19.300319 9.4972456,19.240123 9.3665278,19.067826 9.2039071,18.981751 9.1361516,18.821511 9.0399773,18.83574 8.8899775,18.742594 8.8614743,18.65909 8.5674408,18.584082 8.4010822,18.46172 8.2802081,18.421418 8.1141487,18.147556 7.976065,18.030654 7.8699611,17.845446 7.6572208,17.826097 7.5553948,17.730815 7.3519779,17.620103 7.3681242,17.560454 7.2775428,17.467344 7.1632056,17.358888 7.0908663,17.207358 6.983026,17.082718 6.9136609,16.936433 6.7772688,16.617803 6.6754636,16.486018 6.6160411,16.188071 6.5485122,16.319792 6.4844648,16.231128 6.3916974,16.103222 6.2519468,15.98759 6.160307,15.846638 6.0287395,15.73576 6.0029051,15.493463 5.9178013,15.346616 5.8635584,15.145636 5.7469142,15.023927 5.6751216,14.886762 5.5846698,14.69631 5.4404518,14.68108 5.3747189,14.541509 5.2013941,14.443331 5.1983442,14.165241 5.1291092,13.992803 5.0433305,13.79917 5.0224725,13.647467 4.9683196,13.490117 4.9245693,13.28939 4.896977,13.158792 4.8480921,12.991033 4.8328993,12.808082 4.7417693,12.62716 4.6965579,12.441221 4.6473593,12.258399 4.5816425,12.080554 4.5444747,11.892154 4.4775728,11.710991 4.4559617,11.368994 4.4270679,11.173708 4.3868513,10.882979 4.3886081,10.793479 4.3717865,10.644959 4.3549647,10.387654 4.2332938,10.359064 4.2200639,10.187463 4.1007385,10.027801 4.1996977,9.5440554 4.2042459,9.3136804 4.2075323,8.9655627 4.2133358,8.9940901 4.2218226,8.857811 4.2342743,8.6232438 4.3153373,8.4626231 4.3325785,8.2564115 4.3485025,8.0659528 4.2859782,7.9320636 4.297562,7.686962 4.3101013,7.3369105 4.3424074,6.9805368 4.3969416,6.6790363 4.4467008,6.3565073 4.3269039,6.1867453 4.4126592,5.9379605 4.3270195,5.6932675 4.6271215,5.3250761 4.7800518,5.0720919 4.8845555,4.8358063 5.0438659,4.4190701 5.2002344,4.2418384 5.3070389,3.8660081 5.4620995,3.8924681 5.5929141,3.7807422 5.7664209,3.5557599 5.8730457,3.5504542 6.0405724,3.4490478 6.1986296,3.3494992 6.4681076,3.2751747 6.6735013,3.1939167 6.8756295,3.1691957 7.0567601,3.086306 7.2321962,3.0385317 c 0.1890949,-0.022985 0.2553084,-0.059431 0.4094101,-0.088435 0.1098017,-0.012219 0.31099,-0.03229 0.4733013,-0.050971 0.1052154,0.00985 0.422174,-0.025172 0.5507499,-0.036055 0.189697,8.055e-4 0.2606457,0.027741 0.3081243,0.023322 0.1632985,0.036043 0.1798283,0.036879 0.1953661,0.034125 0.1181323,-0.020942 -0.149582,-0.096837 -0.149582,-0.096837 z"
       id="path1"
       sodipodi:nodetypes="cssccc"
       inkscape:path-effect="#path-effect2"
       inkscape:original-d="m 9.0874935,2.8210264 c 4.7047255,0.1750258 4.6429785,3.4422516 5.5473625,3.6755412 8.502878,2.193352 8.919289,5.3622744 8.96619,6.2396674 0.0621,1.161716 -1.312232,7.832403 -10.827013,7.167305 C 6.9808993,19.483479 3.9965584,14.302716 4.3125474,7.6167324 4.4880968,2.7160108 9.0874935,2.8210264 9.0874935,2.8210264 Z"
       transform="matrix(1.151555,0,0,1.1515504,-1.7121238,-1.7738608)" /><path
       style="fill:#1a73e8;fill-opacity:1;stroke:none;stroke-width:3.28098;stroke-linecap:round;stroke-linejoin:round;stroke-dasharray:none;stroke-opacity:1"
       d="m 8.6823795,7.6287927 c 0,0.1768023 0.01655,0.2956268 0.015417,0.4576307 -0.01997,0.1320471 -0.00194,0.3412926 -0.00102,0.5025052 8.42e-4,0.1419379 -0.020759,0.2495437 -0.016366,0.3825339 -0.019093,0.1035357 -0.044587,0.3083067 -0.031193,0.4361179 -0.046929,0.1380045 0.026592,0.2002197 0.052626,0.2905594 0.022043,0.087563 0.036437,0.1991551 0.072647,0.2768127 0.035037,0.075139 0.1139945,0.098574 0.1457874,0.1536415 0.1023654,0.177302 0.2665713,0.318635 0.3822603,0.407332 0.1544332,0.09189 0.2118229,0.129881 0.3097681,0.15322 0.127879,0.03319 0.2101208,0.04392 0.3168767,0.01659 0.105161,-0.02692 0.225471,-0.105997 0.320044,-0.156944 0.07197,-0.03877 0.166293,-0.09174 0.242436,-0.153792 0.08968,-0.06244 0.175744,-0.0854 0.235773,-0.166218 0.09965,-0.04667 0.129847,-0.197166 0.154034,-0.3226128 0.03222,-0.1036702 -0.0023,-0.2355868 -0.02967,-0.3654176 C 10.824774,9.412451 10.799763,9.2159821 10.720074,9.0779564 10.689163,9.0244172 10.657707,8.961726 10.606459,8.9041906 10.564634,8.8389123 10.511736,8.8080775 10.439934,8.7460142 10.382608,8.7018839 10.409855,8.6103658 10.310828,8.5377243 10.335146,8.456639 10.061368,8.3328317 9.9086048,8.2442476 9.7983504,8.1429427 9.6728042,8.1309353 9.5528103,8.070329 9.4096789,8.0139861 9.3057615,7.9285658 9.1717491,7.8573469 9.0274237,7.7806474 8.8298548,7.7139376 8.6823795,7.6287927 Z"
       id="path6"
       sodipodi:nodetypes="csssc"
       inkscape:path-effect="#path-effect9"
       inkscape:original-d="m 8.7187236,7.6233459 c 0,1.2376165 -0.052152,2.1211632 0.1848897,2.5317321 0.4094618,0.709209 0.9859708,0.597324 1.3458267,0.403466 0.359857,-0.193857 0.881713,-0.6953198 0.465381,-1.4164274 C 10.498445,8.7673421 9.7761016,8.2338234 8.7187236,7.6233459 Z"
       transform="matrix(0.98429386,0,0,0.98429313,0.48565767,0.09103711)" /><path
       style="fill:none;stroke:#000000;stroke-width:1.5875;stroke-linecap:round;stroke-linejoin:round;stroke-dasharray:none;stroke-opacity:1"
       d="m 10.550079,11.278481 c 0.0793,0.566861 0.172094,0.954701 0.271176,1.410044 0.112021,0.37809 0.295253,0.986029 0.427129,1.37074 0.177797,0.373861 0.170528,0.515021 0.295554,0.765547 0.09132,0.205762 0.301998,0.490205 0.477729,0.705959 0.150638,0.133106 0.228149,0.362457 0.411849,0.505229 0.07921,0.138921 0.555013,0.300125 0.779128,0.392876 0.321869,0.105582 0.330935,-0.01605 0.47297,0.01821 0.209385,0.0505 0.317443,0.254241 0.574595,0.263884 -0.202073,-0.531028 -0.380776,-0.957353 -0.485026,-1.291292 -0.127538,-0.334195 -0.03649,-0.537685 -0.03023,-0.696467 0.124394,-0.08808 0.0025,-0.200028 0.07056,-0.231282 0.06463,-0.0426 0.311759,0.0073 0.594578,0.145119 0.244831,0.119336 0.586352,0.04227 0.982984,0.282482 0.417069,0.252591 0.648304,0.302347 0.863199,0.437911 0.164835,-0.0047 0.471316,0.242821 0.53686,0.22425 0.145696,-0.0082 0.124667,-0.08565 0.07878,-0.246255 -0.05624,-0.196811 -0.328608,-0.516989 -0.432822,-0.995145 -0.105106,-0.482252 -0.158118,-0.822403 -0.175955,-1.051866 0.0026,-0.204364 -0.255162,-0.305132 -0.155937,-0.300456 -0.15291,0.02563 0.379384,-0.142626 0.788251,0.15955 0.341205,0.252169 0.789022,0.924089 1.264887,1.388738 0.162667,0.158833 0.541951,0.231845 0.663986,0.213888 0.332479,-0.0025 0.163472,0.0095 0.218634,-0.100285 0.07372,-0.08541 0.115305,-0.501813 0.06764,-0.863758 -0.03524,-0.288408 -0.103488,-0.56412 -0.218076,-0.87046 -0.11595,-0.333325 -0.311517,-0.708854 -0.526179,-1.040059 -0.244159,-0.392886 -0.594362,-0.710364 -0.90818,-1.009806 -0.333104,-0.317844 -0.578522,-0.708112 -1.052591,-0.9877788"
       id="path2"
       sodipodi:nodetypes="ccsssc"
       inkscape:path-effect="#path-effect3"
       inkscape:original-d="m 10.550079,11.278481 c 0.634415,4.534889 1.903244,5.310285 3.782991,5.380775 -1.010365,-2.655142 -0.934498,-2.658176 1.010363,-1.480301 1.668276,1.010365 1.574289,0.986868 1.174842,-0.845885 -0.420426,-1.929009 -0.400038,-1.808647 1.644779,0.187974 1.138664,1.111826 1.4803,-2.561155 -1.78576,-4.487896"
       transform="matrix(1.151555,0,0,1.1515504,-2.0987429,-1.1552729)" /><path
       style="fill:none;fill-opacity:1;stroke:#000000;stroke-width:1.56257;stroke-linecap:round;stroke-linejoin:round;stroke-dasharray:none;stroke-opacity:1"
       d="m 7.8868234,4.6978577 c 1.4053095,0.9159901 1.63319,1.0252801 2.6446686,1.1413794"
       id="path4" /><path
       style="fill:#000000;fill-opacity:1;stroke:none;stroke-width:2.98224;stroke-dasharray:none;stroke-opacity:1"
       d="M 9.0189175,7.1944453 C 9.1079478,5.4393513 8.4783966,5.3376059 8.1032108,5.3185304 7.7280251,5.2994547 6.1509726,6.5712598 6.6406204,7.9257359 7.1302703,9.2802128 8.3512136,8.593435 8.5992182,8.2627647 8.8472229,7.9320953 8.9674723,7.7552897 9.0189175,7.1944453 Z"
       id="path3"
       sodipodi:nodetypes="csssc" /><path
       style="fill:none;fill-opacity:1;stroke:#000000;stroke-width:2.08343;stroke-linecap:round;stroke-linejoin:round;stroke-dasharray:none;stroke-opacity:1"
       d="M 3.238669,5.2378282 1.7185375,4.7256103 3.1230067,5.9318007 Z"
       id="path9"
       sodipodi:nodetypes="cccc" /><path
       style="fill:none;fill-opacity:1;stroke:#000000;stroke-width:2.08343;stroke-linecap:round;stroke-linejoin:round;stroke-dasharray:none;stroke-opacity:1"
       d="M 2.6172389,7.7138654 1.0412744,7.4146945 2.856804,7.052364 Z"
       id="path10"
       sodipodi:nodetypes="cccc" /></g></svg>
