<?xml version="1.0" encoding="UTF-8" standalone="no"?>
<!-- Created with Inkscape (http://www.inkscape.org/) -->

<svg
   width="500"
   height="58.127998"
   viewBox="0 0 132.29166 15.379699"
   version="1.1"
   id="svg1"
   xmlns="http://www.w3.org/2000/svg"
   xmlns:svg="http://www.w3.org/2000/svg">
  <defs
     id="defs1" />
  <g
     id="layer1">
    <path
       style="fill:none;stroke:#262626;stroke-width:1.39188;stroke-linecap:round;stroke-linejoin:round;stroke-dasharray:none;stroke-opacity:1"
       d="m 65.398469,91.614799 c 0.449791,-0.05654 0.869958,-0.09996 1.321167,-0.154878 0.431279,-0.04389 1.101037,-0.09693 1.564078,-0.151441 0.572051,-0.03191 0.723977,0.01174 1.119934,-0.03355 0.412858,0.0493 0.932415,-0.121403 1.413119,-0.174503 0.436266,-0.06378 0.914518,-0.0038 1.378962,-0.0534 0.450825,0.04826 1.03376,-0.07481 1.498312,-0.122733 0.528993,-0.02024 0.760652,-0.116109 1.184211,-0.158451 0.399764,-0.07801 0.980141,-0.08038 1.466159,-0.127217 0.465743,-0.0282 0.916407,0.03374 1.373366,-0.0088 0.465699,0.07794 1.009944,-0.110952 1.472708,-0.152515 0.516839,-0.06442 0.870511,-0.07891 1.302404,-0.116414 0.465999,-0.04186 0.971822,-0.03122 1.430822,-0.06966 0.499477,0.01046 0.782511,0.08864 1.227779,0.05265 0.394417,0.121952 0.951111,0.0062 1.453389,-0.0328 0.429302,0.04909 1.107019,-0.255923 1.589403,-0.291937 0.553959,-0.21249 0.828648,-0.07352 1.239982,-0.103188 0.467127,-0.04589 0.957926,0.0438 1.418958,0.01184 0.490065,0.07816 0.958848,-0.119801 1.412878,-0.150065 0.496387,-0.08716 0.986764,0.06678 1.432231,0.03824 0.530342,0.09774 0.615576,0.0043 1.049996,-0.02245 0.295496,0.02563 1.126499,-0.09336 1.675219,-0.125522 0.482338,-0.05313 0.909379,-0.03629 1.362669,-0.06175 0.465433,-0.0097 0.980163,-0.07016 1.442802,-0.09501 0.499317,-0.04263 0.837305,-0.05063 1.281803,-0.07348 0.42811,-0.02806 0.907627,-0.06707 1.387465,-0.09054 0.427195,-0.04179 0.854635,-0.09577 1.334025,-0.118054 0.39153,-0.07249 0.94377,0.05654 1.43959,0.03473 0.43069,0.08096 0.85174,-0.04024 1.33054,-0.06018 0.38992,-0.01933 0.98798,-0.09776 1.48397,-0.11724 0.45641,-0.07511 0.92185,0.0061 1.38265,-0.01094 0.45979,0.02479 0.8191,-0.02017 1.27893,-0.03624 0.39134,-0.0038 1.05973,-0.04853 1.55185,-0.06461 0.50738,-0.02881 0.91942,-0.06258 1.35194,-0.07586 0.49234,-0.04819 0.91836,0.0068 1.35663,-0.0058 0.48352,0.02055 1.15244,0.101175 1.59451,0.08933 0.63403,0.116359 0.59293,-0.02337 0.95942,-0.03262 0.35983,-0.01663 1.00776,-0.04563 1.50731,-0.0572 0.45685,-0.03131 0.75039,0.05591 1.19954,0.04634 0.35211,0.06564 1.0089,0.01423 1.50921,0.0046 0.45407,0.02644 0.96207,-0.06546 1.40898,-0.0733 0.49234,-0.05605 0.82504,0.09842 1.2499,0.09168 0.42982,0.105753 1.027,-0.0121 1.48192,-0.01855 0.52182,-0.0038 0.79062,-0.01148 1.19636,-0.01661 0.42849,-0.006 0.88775,-0.0065 1.3374,-0.01148 0.43255,-4.04e-4 0.83407,0.01858 1.27904,0.0144 0.40124,0.02372 0.87307,-0.01167 1.33095,-0.01522 0.40785,-0.0069 0.82201,0.05502 1.27356,0.05223 0.38041,0.05883 0.79232,-0.02147 1.25471,-0.0236 0.34386,-0.01832 0.67873,0.03761 1.156,0.03618 0.24622,0.04006 0.90137,0.153043 1.42412,0.152375 0.33106,0.155117 0.96007,0.04735 1.43723,0.04742 0.42887,0.04829 0.8836,0.05689 1.30849,0.05747 0.44564,0.05707 0.97602,-0.14463 1.38896,-0.143593 0.52081,-0.145068 0.67684,0.160728 1.04893,0.162076 0.37365,0.160252 0.87612,-0.176388 1.31719,-0.174269 0.41153,-0.177838 0.85299,-0.0275 1.27208,-0.02496 0.4227,-0.02931 0.8214,0.05868 1.23061,0.06167 0.41196,0.05645 1.01818,0.02408 1.42832,0.02757 0.53877,0.02074 0.68965,0.03914 1.03257,0.0424 0.40752,0.03697 1.04669,-0.03283 1.45052,-0.02855 0.56038,-0.03731 0.63791,-0.163129 0.9616,-0.159401 0.39363,-0.165494 0.70553,0.02626 1.10844,0.03143 0.32831,0.02222 1.01044,0.08285 1.4401,0.08895 0.49141,0.07637 0.69345,0.0037 1.0368,0.0089 0.39385,-3.81e-4 0.83152,0.03182 1.21907,0.03817 0.4226,0.0258 0.78079,-0.170572 1.14884,-0.164144 0.41287,-0.1764 0.76566,0.02326 1.13524,0.03019 0.39604,0.01704 0.63568,0.03791 1.00674,0.04535 0.30402,0.03198 0.86736,-0.05418 1.27867,-0.04537 0.40059,-0.06331 0.70131,-0.04832 1.06023,-0.04017 0.35713,-0.05543 0.83598,0.02068 1.21094,0.02973 0.42054,0.01146 0.77328,0.01815 1.11034,0.02673 0.42606,0.01 0.53692,0.08615 0.86549,0.09491 0.27599,0.0798 0.79066,0.07857 1.18692,0.0897 0.34898,0.067 0.86441,0.15788 1.21859,0.168229 0.44978,0.146376 0.52853,-0.0652 0.82539,-0.0563 0.30215,-0.07165 0.73441,0.0216 1.10152,0.03302 0.33872,0.0099 0.69012,0.08542 1.03158,0.09638 0.33891,0.07467 0.79666,4.1e-5 1.13058,0.01106 0.41619,-0.01207 0.4722,0.02186 0.76264,0.03168 0.25498,0.01487 0.71657,0.02331 1.07985,0.03595 0.3138,0.0098 0.91133,0.04992 1.23881,0.06162 0.48641,0.03519 0.44991,0.0224 0.68447,0.03093 0.3015,0.01723 0.62277,0.06345 0.94235,0.07533 0.29579,0.05169 0.63501,0.05247 0.94971,0.0644 0.30569,0.04033 0.65855,-0.01625 0.96137,-0.0046 0.33319,-0.0285 0.59453,-0.06393 0.87772,-0.05283 0.3129,-0.07468 0.39516,-0.115296 0.68188,-0.103772 0.17179,-0.123845 0.58873,-0.204271 0.93871,-0.189588 0.20998,-0.219225 0.77693,0.158931 1.10273,0.173457 0.35674,0.141499 0.47848,0.112482 0.71618,0.123437 0.27404,0.1036 0.48683,0.134771 0.75829,0.147646 0.22784,0.12304 0.57808,0.0453 0.86388,0.05911 0.2645,0.03054 0.78701,0.01547 1.04881,0.02831 0.43029,-0.0017 0.29821,0.0416 0.47064,0.05015 0.22197,0.03796 0.5748,0.0098 0.84085,0.02316 0.27222,-0.0052 0.46034,0.03832 0.69428,0.05027 0.23401,0.02703 0.27191,0.06339 0.51536,0.07599 0.0904,0.05425 0.55625,0.03707 0.8611,0.05299 0.18789,0.01805 0.7867,0.16602 1.03586,0.179096 0.40846,0.146279 0.38956,0.02836 0.51784,0.03503 0.30677,0.02396 0.37717,0.174362 0.54992,0.183221 0.22977,0.166615 0.47079,-0.01413 0.66924,-0.0044 0.25298,-0.02549 0.3973,0.107302 0.5798,0.115915 0.21816,0.09835 0.39708,0.04026 0.58487,0.04858 0.20525,0.03093 0.55769,0.0075 0.74412,0.01511 0.30615,-0.0038 0.3339,-0.02012 0.4616,-0.01515 0.23318,-0.02446 0.4218,-0.0204 0.5761,-0.01473 0.24725,-0.02733 0.39983,0.0047 0.53731,0.0095 0.2486,-9.68e-4 0.27869,0.007 0.40514,0.0113 0.17744,0.0033 0.3833,0.07433 0.5346,0.0792 0.20335,0.06814 0.24896,0.05501 0.37677,0.05878 0.1417,0.05131 0.20276,0.04127 0.35122,0.04494 0.076,0.03703 0.37916,-0.0755 0.55006,-0.07254 0.15063,-0.08145 0.31245,-0.0168 0.43681,-0.01496 0.16503,-0.01947 0.12289,-0.02757 0.22902,-0.02615 0.0601,-0.02864 0.30448,0.02718 0.45068,0.02911 0.11193,0.02461 0.20237,0.02461 0.31283,0.02587 0.0893,0.02301 0.14089,0.157405 0.25173,0.158225 0.0435,0.155975 0.26992,0.115643 0.39554,0.113008 0.10036,0.113528 0.20347,-0.02709 0.29569,-0.03281 0.0936,-0.02626 0.12339,-0.0015 0.20269,-0.0091 0.0523,0.001 0.24624,-5.4e-4 0.33456,-0.01277 0.10805,0.01255 0.15982,-0.06923 0.2092,-0.07775 0.0932,-0.06044 0.16977,-0.120081 0.20558,-0.126722 0.10602,-0.109002 0.0266,0.03562 0.0395,0.03335 0.0496,0.0318 0.13611,-0.0659 0.17545,-0.07231 0.0622,-0.05299 0.0644,-0.0031 0.0818,-0.0053 0.0478,1.1e-4 0.0414,-0.01857 0.0586,-0.01975 0.0288,-0.01587 0.0442,-0.0075 0.0605,-0.0048 0.035,7.04e-4 0.0438,-4.12e-4 0.0452,0.008 3.1e-4,0.0019 0.0218,-0.03808 0.0218,-0.03808 -0.1591,-0.04594 -0.33086,0.05806 -0.49514,0.01227 -0.18344,0.101538 -0.38858,-0.07113 -0.56767,-0.119296 -0.1982,-0.01739 -0.44711,-0.230566 -0.61084,-0.273276 -0.25056,-0.177356 -0.21102,-0.02569 -0.33778,-0.05801 -0.15517,-0.01036 -0.40292,-0.08485 -0.60266,-0.134074 -0.19355,-0.03077 -0.38396,-0.08422 -0.57008,-0.12873 -0.20234,-0.0388 -0.38414,0.007 -0.5722,-0.03672 -0.21062,0.04917 -0.15212,-0.05455 -0.35276,-0.09985 -0.0336,-0.02585 -0.59184,-0.09758 -0.87642,-0.159393 -0.23002,-0.01546 -0.35151,-0.100178 -0.54934,-0.142062 -0.18069,-0.06242 -0.49251,-0.04702 -0.71614,-0.09307 -0.25157,0.0045 -0.21567,-0.117516 -0.41837,-0.158269 -0.0884,-0.09048 -0.52882,-0.09815 -0.80812,-0.152542 -0.20899,-0.03329 -0.47206,-0.120337 -0.70496,-0.16455 -0.23311,-0.0733 -0.43499,-0.144465 -0.65898,-0.185989 -0.2221,-0.103527 -0.46123,-0.144845 -0.69444,-0.187043 -0.23207,-0.101858 -0.46013,-0.08371 -0.69516,-0.12524 -0.23635,-0.0427 -0.48002,-0.130323 -0.72442,-0.172481 -0.23901,-0.08724 -0.62297,-0.02421 -0.86852,-0.06558 -0.34426,0.0242 -0.40056,0.0082 -0.60974,-0.02635 -0.24601,0.03475 -0.59111,-0.219656 -0.85498,-0.262239 -0.29579,-0.170499 -0.44078,-0.132229 -0.66991,-0.168457 -0.24754,-0.100568 -0.44636,0.05241 -0.71069,0.01158 -0.21777,0.08914 -0.61808,-0.109537 -0.91709,-0.15458 -0.28445,-0.05759 -0.56043,-0.231746 -0.82116,-0.270185 -0.29343,-0.191141 -0.69259,-0.116316 -0.94496,-0.152747 -0.40286,-0.07334 -0.43922,0.06312 -0.6517,0.03298 -0.29549,0.0843 -0.54129,-0.05782 -0.82291,-0.09688 -0.27127,-0.01906 -0.52911,0.0084 -0.82067,-0.03114 -0.25606,0.04676 -0.55832,-0.08486 -0.86685,-0.125739 -0.25268,-0.04295 -0.48448,0.0344 -0.7938,-0.0057 -0.20979,0.07135 -0.72594,-0.184154 -1.0687,-0.227461 -0.32318,-0.131674 -0.59034,0.01616 -0.86921,-0.01837 -0.32685,0.04983 -0.56425,-0.07045 -0.85725,-0.105989 -0.29015,-0.0361 -0.52112,-0.0343 -0.83176,-0.07118 -0.24211,2.1e-5 -0.39788,-0.08788 -0.73908,-0.127455 -0.1195,-0.05421 -0.69302,-0.03593 -1.09654,-0.08145 -0.24145,0.0169 -0.65845,-0.0066 -1.00995,-0.04529 -0.29037,0.03537 -0.5569,0.125439 -0.88941,0.0896 -0.25418,0.159246 -0.77231,-0.0074 -1.13346,-0.04544 -0.35949,0.03743 -0.51144,-0.0477 -0.81791,-0.07943 -0.25722,-0.02051 -0.82002,-0.03662 -1.1783,-0.07292 -0.39946,0.0072 -0.59863,-0.07753 -0.89173,-0.10672 -0.33783,-0.05079 -0.57423,-0.169473 -0.89894,-0.201203 -0.27919,-0.139725 -0.41262,-0.138039 -0.76611,-0.171832 -0.13589,-0.110469 -0.88835,-0.08874 -1.31849,-0.128728 -0.35865,-0.03781 -0.62553,-0.07271 -0.95208,-0.102432 -0.32165,-0.0441 -0.85696,-0.04344 -1.20525,-0.07441 -0.45146,-0.0063 -0.57816,-0.04684 -0.86708,-0.07205 -0.34496,-0.02576 -0.66958,0.07456 -1.01399,0.04518 -0.33829,0.103831 -0.68331,0.114101 -1.03977,0.08436 -0.33456,0.144198 -0.75565,0.0091 -1.11867,-0.02057 -0.37355,0.04123 -0.66764,-0.07502 -1.01005,-0.102445 -0.34152,-0.04809 -0.71277,-0.06281 -1.07057,-0.09088 -0.35365,-0.03375 -0.68522,-0.112203 -1.04055,-0.139495 -0.33909,-0.08474 -0.62809,-0.0744 -0.99164,-0.101698 -0.29265,-0.04828 -0.80281,-0.07595 -1.19373,-0.104567 -0.3753,-0.04356 -0.65404,-0.0215 -1.00673,-0.04671 -0.32922,0.0026 -0.66928,-0.045 -1.0492,-0.07148 -0.3044,-0.01855 -0.75326,-0.0518 -1.14735,-0.07852 -0.34335,-0.0229 -0.63367,-0.0039 -1.01066,-0.02876 -0.28844,0.01994 -0.91366,0.09279 -1.32179,0.0666 -0.43818,0.124448 -0.77016,-0.08344 -1.10919,-0.104718 -0.43149,-0.06147 -0.89199,-0.05352 -1.23063,-0.07429 -0.51553,-0.02971 -0.59882,0.04448 -0.89867,0.02648 -0.37407,0.05855 -0.71306,-0.120355 -1.08801,-0.142303 -0.3487,-0.09818 -0.73562,-0.147724 -1.12053,-0.169614 -0.35131,-0.124907 -0.784,-0.06836 -1.16881,-0.08955 -0.38648,-0.04543 -0.64715,0.02494 -1.01848,0.0052 -0.31554,0.0436 -0.8446,-0.01972 -1.25534,-0.04082 -0.39547,0.0045 -0.78807,0.0067 -1.15947,-0.01173 -0.41134,0.02638 -0.87175,-0.03533 -1.23724,-0.05289 -0.47537,-0.01539 -0.66622,-0.03673 -1.00013,-0.05229 -0.38079,-0.02269 -0.76924,-0.07137 -1.15146,-0.08851 -0.38563,-0.05317 -0.81022,0.07769 -1.19059,0.06131 -0.41834,0.09559 -0.70746,-0.03721 -1.07585,-0.0525 -0.36464,-0.02211 -0.72289,-0.113843 -1.1166,-0.12951 -0.34084,-0.09762 -0.78219,-0.02682 -1.18728,-0.04215 -0.36704,-0.0099 -0.71357,-0.05757 -1.10823,-0.07175 -0.33524,-0.04285 -0.71894,-0.09256 -1.12971,-0.106466 -0.3175,-0.07769 -0.88776,-0.139319 -1.3076,-0.15257 -0.41824,-0.123057 -0.73935,0.07354 -1.10898,0.0627 -0.38845,0.08507 -0.75632,-0.03246 -1.14446,-0.04301 -0.37436,-0.02083 -0.79322,0.0088 -1.18733,-9.8e-4 -0.3916,0.02018 -0.77244,0.02401 -1.15882,0.01521 -0.38828,0.03401 -0.74459,0.0021 -1.13301,-0.006 -0.36687,0.01111 -0.8626,0.05987 -1.26162,0.05244 -0.43189,0.06915 -0.68333,-0.0036 -1.05047,-0.0098 -0.35431,0.0029 -0.80729,-0.102294 -1.21255,-0.108311 -0.38566,-0.09482 -0.80321,-0.0079 -1.19204,-0.01283 -0.4052,-0.0016 -0.76382,-0.02439 -1.14343,-0.02836 -0.39097,-0.01924 -0.7539,-0.02853 -1.14028,-0.03169 -0.37508,-0.0241 -0.79644,0.08576 -1.19044,0.0835 -0.3932,0.08952 -0.69734,-0.09668 -1.08218,-0.09807 -0.33868,-0.09415 -0.71541,0.02198 -1.12662,0.02159 -0.31525,0.02401 -0.69185,0.01123 -1.11436,0.01195 -0.28398,0.01223 -0.81133,0.01373 -1.24882,0.01569 -0.34335,0.01345 -0.80427,0.08474 -1.21134,0.0876 -0.37852,0.08331 -0.98044,-0.06303 -1.36881,-0.05948 -0.52082,-0.06599 -0.44542,0.09846 -0.76234,0.102003 -0.25777,0.09734 -0.982726,-0.03496 -1.429123,-0.02891 -0.443274,-0.04067 -0.618564,-0.02628 -0.972033,-0.02071 -0.323475,-0.02976 -0.800748,0.08029 -1.212818,0.08798 -0.365285,0.07395 -0.728362,0.0069 -1.117353,0.01503 -0.347355,2.4e-4 -0.711636,0.01544 -1.108909,0.02478 -0.324074,0.0078 -0.814192,0.07833 -1.221582,0.089 -0.37758,0.06854 -0.890691,-0.125076 -1.269037,-0.114376 -0.46829,-0.13582 -0.661367,2.6e-4 -0.995602,0.01076 -0.371685,-0.0073 -0.779957,0.174746 -1.158875,0.18807 -0.387725,0.163094 -0.593316,0.02549 -0.959417,0.03914 -0.280559,0.01501 -0.882666,-0.01319 -1.302983,0.0036 -0.400797,-0.03076 -0.728111,0.07632 -1.087378,0.09169 -0.376566,0.06286 -0.68542,0.06801 -1.05275,0.08462 -0.335767,0.05356 -0.725826,0.09242 -1.111545,0.110695 -0.336339,0.07523 -0.442593,0.113267 -0.825373,0.131903 -0.148139,0.09972 -1.003795,-0.0079 -1.47837,0.01509 -0.404197,-0.03704 -0.707824,-0.106307 -1.054968,-0.08886 -0.375081,-0.122097 -0.859784,0.05875 -1.220876,0.079 -0.453638,0.03911 -0.701507,-0.01818 -1.016578,9.51e-4 -0.408507,-0.03377 -0.780482,-0.127716 -1.117374,-0.104928 -0.433067,-0.147725 -0.555072,0.109563 -0.881762,0.135983 -0.286476,0.09428 -0.784714,0.04922 -1.172207,0.08456 -0.359215,0.01633 -0.614988,0.02612 -0.966562,0.06147 -0.291471,-0.0016 -0.512962,0.0092 -0.896357,0.05206 -0.175127,-0.02232 -0.921647,0.09819 -1.362538,0.153739 -0.382773,0.03894 -0.726179,-0.0172 -1.055368,0.02705 -0.397874,-0.05743 -0.358437,0.176649 -0.683009,0.228375 -0.118625,0.14981 -0.799927,-0.139771 -1.245181,-0.07889 -0.310212,-0.219762 -0.664154,0.06395 -1.039737,0.153368 -0.26946,0.01605 -0.386781,0.167412 -0.742307,0.263454 -0.351972,0.09508 -1.062906,0.280436 -1.356033,0.317457 0.444475,-0.111451 0.982006,-0.181574 1.425709,-0.290041 0.510625,-0.06216 0.838237,-0.333856 1.254699,-0.433241 0.435957,-0.234224 0.863092,-0.315129 1.294019,-0.415375 0.434177,-0.211467 0.917666,-0.175955 1.350975,-0.274141 0.477064,-0.0722 1.054825,-0.225977 1.481263,-0.320105 0.574672,-0.116243 0.701802,-0.168578 1.075132,-0.249084 0.407857,-0.102344 0.883719,-0.154008 1.336427,-0.248859 0.425204,-0.05378 0.955708,-0.160723 1.403162,-0.251799 0.479096,-0.0597 0.878616,-0.168182 1.297575,-0.251141 0.462823,-0.08237 0.813143,-0.195936 1.235732,-0.277278 0.410484,-0.114927 0.872715,-0.15185 1.315648,-0.234557 0.424866,-0.0644 0.678228,-0.22693 1.116861,-0.306358 0.293403,-0.153531 0.998113,-0.269578 1.49086,-0.355679 0.433573,-0.166245 0.928678,-0.143144 1.350835,-0.21462 0.48648,-0.06484 0.800866,-0.124692 1.203661,-0.190824 0.425508,-0.05997 0.631527,-0.2093 1.062141,-0.277661 0.268556,-0.148167 0.727032,-0.186634 1.225524,-0.262631 0.242051,-0.107986 1.136603,-0.143949 1.649454,-0.218822 0.498554,-0.04583 0.756927,-0.109951 1.146336,-0.164916 0.408235,-0.0579 0.907182,-0.0541 1.337603,-0.112568 0.45492,0.01077 0.789026,-0.06057 1.198451,-0.11415 0.401456,-0.0068 0.930451,-0.101542 1.362244,-0.155824 0.462741,-0.0394 1.043693,-0.09037 1.440581,-0.138402 0.583768,-0.03192 0.8024,-0.09346 1.137314,-0.132675 0.502909,-0.05642 0.738992,-0.170146 1.109569,-0.211945 0.408179,-0.130437 0.827826,-0.04371 1.23851,-0.08806 0.41662,0.0037 0.76005,-0.07755 1.17104,-0.119988 0.3677,-0.03411 0.8935,-0.205473 1.32384,-0.247793 0.42497,-0.156217 0.75485,-0.1048 1.1483,-0.141703 0.38308,-0.06724 0.83991,-0.09597 1.25569,-0.132974 0.40825,-0.05456 0.8234,-0.07575 1.22441,-0.109584 0.41551,-0.03855 0.76758,0.06695 1.16268,0.0354 0.38766,0.09997 0.88621,-0.230132 1.29728,-0.261085 0.43579,-0.193403 0.83486,-0.08395 1.20797,-0.110462 0.45391,-0.0545 0.8603,-0.03455 1.2265,-0.05904 0.47897,-0.0067 0.8465,-0.04536 1.19856,-0.06752 0.48616,-0.02059 0.68279,-0.0575 1.02745,-0.07787 0.38457,-0.03788 0.71062,-0.05877 1.10204,-0.0802 0.33816,-0.03582 0.76812,-0.09587 1.17941,-0.116493 0.34691,-0.07191 0.847,0.01374 1.24977,-0.0046 0.41005,0.03641 0.74329,0.04074 1.11353,0.02536 0.38246,0.058 0.72285,-0.03082 1.10346,-0.04508 0.35151,-0.01457 0.75472,-0.01929 1.14565,-0.0323 0.35646,-0.0036 0.82271,0.07778 1.20768,0.06653 0.40791,0.09226 0.67509,-0.227882 1.03185,-0.237014 0.34264,-0.217426 0.8645,-0.03555 1.24635,-0.04374 0.43389,-0.02393 0.62064,0.118998 0.95563,0.113034 0.33287,0.125956 0.9874,-0.0099 1.37,-0.01518 0.50914,-9.76e-4 0.35588,0.06814 0.64542,0.06499 0.21203,0.071 0.91587,-0.140975 1.34983,-0.143844 0.38678,-0.134676 0.69516,0.05468 1.0374,0.05364 0.361,0.05754 0.57493,0.01609 0.92633,0.01626 0.26596,0.0178 0.72393,0.02642 1.11843,0.02817 0.30401,0.02689 0.52245,-0.20864 0.89367,-0.205648 0.19963,-0.209217 0.90062,0.115829 1.32104,0.121141 0.38039,0.112152 0.60231,0.01527 0.92643,0.02043 0.30922,0.01221 0.70961,0.143415 1.06544,0.150349 0.33384,0.138001 0.74181,-0.04751 1.07944,-0.0399 0.37803,-0.05415 0.63499,0.141963 0.94818,0.149949 0.33514,0.13571 0.65701,0.02242 0.98448,0.03167 0.32844,0.0145 0.7242,-0.02726 1.05193,-0.01711 0.37013,-0.03689 0.48096,0.05432 0.78415,0.06452 0.23745,0.04733 0.76682,0.02414 1.12989,0.03745 0.34381,0.01029 0.59967,0.03492 0.90572,0.04691 0.30614,0.02459 0.66768,0.06244 0.98735,0.07578 0.32926,0.04955 0.78482,0.0302 1.08755,0.04354 0.42703,0.01549 0.49161,0.04802 0.74156,0.05952 0.29952,0.03991 0.59087,-0.05676 0.89856,-0.04192 0.28601,-0.07041 0.48242,0.129721 0.79449,0.145585 0.20138,0.116666 0.69098,-0.03081 1.03521,-0.0125 0.2959,-0.0506 0.63436,-0.07478 0.93097,-0.05833 0.32002,-0.09119 0.58194,-0.133494 0.8627,-0.117159 0.30441,-0.148502 0.65178,-0.07814 0.93712,-0.06051 0.34021,-0.09584 0.40619,0.04008 0.66737,0.05721 0.20345,0.02829 0.6721,0.133136 0.99182,0.155562 0.29495,0.108866 0.70095,-0.105714 0.96676,-0.08623 0.3893,-0.127296 0.42975,0.03583 0.65208,0.0529 0.26035,0.02399 0.57829,0.108446 0.85337,0.130729 0.28179,0.08618 0.32859,0.0017 0.58466,0.02328 0.14062,-0.01288 0.73057,0.187314 1.05477,0.216106 0.30612,0.151783 0.55463,0.168396 0.78388,0.189206 0.31409,0.147238 0.38699,0.04418 0.60645,0.06427 0.21551,0.02873 0.63889,0.07075 0.90637,0.09545 0.31324,0.041 0.43712,0.142247 0.65004,0.162014 0.24659,0.124717 0.51241,-0.08714 0.74843,-0.06542 0.26834,-0.109893 0.62001,0.02694 0.84998,0.04838 0.34036,0.0013 0.33656,0.08494 0.52001,0.102283 0.20886,0.07323 0.63324,0.0322 0.87181,0.05492 0.32847,0.0034 0.35767,0.02083 0.53456,0.03785 0.22532,0.0084 0.58066,0.107495 0.80169,0.129085 0.30591,0.08115 0.17165,0.0413 0.34335,0.05808 0.0994,0.03425 0.54334,0.04934 0.81226,0.07539 0.20857,0.01657 0.2605,0.160035 0.47055,0.180273 0.0935,0.143783 0.533,0.01046 0.78812,0.03318 0.21456,-0.02066 0.4559,0.114323 0.65229,0.131204 0.23595,0.09451 0.3563,0.03623 0.53101,0.05015 0.19656,0.02187 0.37302,0.03948 0.56359,0.05342 0.18115,0.02361 0.33237,0.13827 0.52384,0.151044 0.14699,0.124095 0.42358,0.03209 0.62397,0.04192 0.19364,0.01565 0.3903,0.01305 0.56343,0.01933 0.20348,0.0031 0.26304,0.01632 0.42361,0.02084 0.12914,0.01068 0.40799,0.0066 0.59839,0.01067 0.1821,1.01e-4 0.24725,0.0138 0.40357,0.0171 0.11289,0.01108 0.3679,0.0047 0.55208,0.0089 0.15591,6.84e-4 0.3947,-0.01027 0.54975,-0.0054 0.21176,-0.01371 0.2597,0.03868 0.37854,0.04624 0.1559,0.03803 0.29455,0.0071 0.435,0.01297 0.1408,0.0059 0.39681,-0.03062 0.54146,-0.01669"
       id="path1"
       transform="matrix(0.99596095,0,0,0.99596095,-64.441192,-76.558086)" />
  </g>
</svg>
